%TF.GenerationSoftware,KiCad,Pcbnew,(6.0.1-0)*%
%TF.CreationDate,2022-12-13T14:32:30+01:00*%
%TF.ProjectId,CAN_Steppermodul,43414e5f-5374-4657-9070-65726d6f6475,rev?*%
%TF.SameCoordinates,Original*%
%TF.FileFunction,Paste,Top*%
%TF.FilePolarity,Positive*%
%FSLAX46Y46*%
G04 Gerber Fmt 4.6, Leading zero omitted, Abs format (unit mm)*
G04 Created by KiCad (PCBNEW (6.0.1-0)) date 2022-12-13 14:32:30*
%MOMM*%
%LPD*%
G01*
G04 APERTURE LIST*
G04 Aperture macros list*
%AMRoundRect*
0 Rectangle with rounded corners*
0 $1 Rounding radius*
0 $2 $3 $4 $5 $6 $7 $8 $9 X,Y pos of 4 corners*
0 Add a 4 corners polygon primitive as box body*
4,1,4,$2,$3,$4,$5,$6,$7,$8,$9,$2,$3,0*
0 Add four circle primitives for the rounded corners*
1,1,$1+$1,$2,$3*
1,1,$1+$1,$4,$5*
1,1,$1+$1,$6,$7*
1,1,$1+$1,$8,$9*
0 Add four rect primitives between the rounded corners*
20,1,$1+$1,$2,$3,$4,$5,0*
20,1,$1+$1,$4,$5,$6,$7,0*
20,1,$1+$1,$6,$7,$8,$9,0*
20,1,$1+$1,$8,$9,$2,$3,0*%
G04 Aperture macros list end*
%ADD10RoundRect,0.225000X-0.225000X-0.250000X0.225000X-0.250000X0.225000X0.250000X-0.225000X0.250000X0*%
%ADD11RoundRect,0.150000X-0.825000X-0.150000X0.825000X-0.150000X0.825000X0.150000X-0.825000X0.150000X0*%
%ADD12RoundRect,0.150000X0.150000X-0.512500X0.150000X0.512500X-0.150000X0.512500X-0.150000X-0.512500X0*%
%ADD13RoundRect,0.075000X-0.662500X-0.075000X0.662500X-0.075000X0.662500X0.075000X-0.662500X0.075000X0*%
%ADD14RoundRect,0.075000X-0.075000X-0.662500X0.075000X-0.662500X0.075000X0.662500X-0.075000X0.662500X0*%
%ADD15RoundRect,0.250000X0.262500X0.450000X-0.262500X0.450000X-0.262500X-0.450000X0.262500X-0.450000X0*%
%ADD16RoundRect,0.250000X-0.262500X-0.450000X0.262500X-0.450000X0.262500X0.450000X-0.262500X0.450000X0*%
%ADD17RoundRect,0.135000X0.185000X-0.135000X0.185000X0.135000X-0.185000X0.135000X-0.185000X-0.135000X0*%
%ADD18RoundRect,0.135000X-0.135000X-0.185000X0.135000X-0.185000X0.135000X0.185000X-0.135000X0.185000X0*%
%ADD19RoundRect,0.250000X0.450000X-0.262500X0.450000X0.262500X-0.450000X0.262500X-0.450000X-0.262500X0*%
%ADD20RoundRect,0.250000X-0.450000X0.262500X-0.450000X-0.262500X0.450000X-0.262500X0.450000X0.262500X0*%
%ADD21RoundRect,0.135000X-0.185000X0.135000X-0.185000X-0.135000X0.185000X-0.135000X0.185000X0.135000X0*%
%ADD22RoundRect,0.150000X-0.587500X-0.150000X0.587500X-0.150000X0.587500X0.150000X-0.587500X0.150000X0*%
%ADD23RoundRect,0.150000X0.587500X0.150000X-0.587500X0.150000X-0.587500X-0.150000X0.587500X-0.150000X0*%
%ADD24R,2.750000X1.000000*%
%ADD25R,0.740000X2.400000*%
%ADD26RoundRect,0.140000X0.170000X-0.140000X0.170000X0.140000X-0.170000X0.140000X-0.170000X-0.140000X0*%
%ADD27RoundRect,0.140000X0.140000X0.170000X-0.140000X0.170000X-0.140000X-0.170000X0.140000X-0.170000X0*%
%ADD28RoundRect,0.250000X-0.650000X0.325000X-0.650000X-0.325000X0.650000X-0.325000X0.650000X0.325000X0*%
%ADD29RoundRect,0.140000X-0.170000X0.140000X-0.170000X-0.140000X0.170000X-0.140000X0.170000X0.140000X0*%
%ADD30RoundRect,0.250000X0.475000X-0.250000X0.475000X0.250000X-0.475000X0.250000X-0.475000X-0.250000X0*%
%ADD31RoundRect,0.140000X-0.140000X-0.170000X0.140000X-0.170000X0.140000X0.170000X-0.140000X0.170000X0*%
G04 APERTURE END LIST*
D10*
%TO.C,C1*%
X139230000Y-92000000D03*
X140780000Y-92000000D03*
%TD*%
D11*
%TO.C,U3*%
X155275000Y-97095000D03*
X155275000Y-98365000D03*
X155275000Y-99635000D03*
X155275000Y-100905000D03*
X160225000Y-100905000D03*
X160225000Y-99635000D03*
X160225000Y-98365000D03*
X160225000Y-97095000D03*
%TD*%
D12*
%TO.C,U2*%
X154050000Y-89137500D03*
X155000000Y-89137500D03*
X155950000Y-89137500D03*
X155950000Y-86862500D03*
X155000000Y-86862500D03*
X154050000Y-86862500D03*
%TD*%
D13*
%TO.C,U1*%
X138337500Y-96250000D03*
X138337500Y-96750000D03*
X138337500Y-97250000D03*
X138337500Y-97750000D03*
X138337500Y-98250000D03*
X138337500Y-98750000D03*
X138337500Y-99250000D03*
X138337500Y-99750000D03*
X138337500Y-100250000D03*
X138337500Y-100750000D03*
X138337500Y-101250000D03*
X138337500Y-101750000D03*
D14*
X139750000Y-103162500D03*
X140250000Y-103162500D03*
X140750000Y-103162500D03*
X141250000Y-103162500D03*
X141750000Y-103162500D03*
X142250000Y-103162500D03*
X142750000Y-103162500D03*
X143250000Y-103162500D03*
X143750000Y-103162500D03*
X144250000Y-103162500D03*
X144750000Y-103162500D03*
X145250000Y-103162500D03*
D13*
X146662500Y-101750000D03*
X146662500Y-101250000D03*
X146662500Y-100750000D03*
X146662500Y-100250000D03*
X146662500Y-99750000D03*
X146662500Y-99250000D03*
X146662500Y-98750000D03*
X146662500Y-98250000D03*
X146662500Y-97750000D03*
X146662500Y-97250000D03*
X146662500Y-96750000D03*
X146662500Y-96250000D03*
D14*
X145250000Y-94837500D03*
X144750000Y-94837500D03*
X144250000Y-94837500D03*
X143750000Y-94837500D03*
X143250000Y-94837500D03*
X142750000Y-94837500D03*
X142250000Y-94837500D03*
X141750000Y-94837500D03*
X141250000Y-94837500D03*
X140750000Y-94837500D03*
X140250000Y-94837500D03*
X139750000Y-94837500D03*
%TD*%
D15*
%TO.C,R29*%
X169162500Y-118000000D03*
X167337500Y-118000000D03*
%TD*%
D16*
%TO.C,R28*%
X170500000Y-80250000D03*
X172325000Y-80250000D03*
%TD*%
D17*
%TO.C,R27*%
X162750000Y-99510000D03*
X162750000Y-98490000D03*
%TD*%
D18*
%TO.C,R26*%
X162240000Y-106000000D03*
X163260000Y-106000000D03*
%TD*%
%TO.C,R25*%
X163260000Y-92000000D03*
X162240000Y-92000000D03*
%TD*%
%TO.C,R24*%
X158250000Y-95750000D03*
X159270000Y-95750000D03*
%TD*%
D19*
%TO.C,R23*%
X136000000Y-125162500D03*
X136000000Y-123337500D03*
%TD*%
D20*
%TO.C,R22*%
X121750000Y-105087500D03*
X121750000Y-106912500D03*
%TD*%
%TO.C,R21*%
X121750000Y-101587500D03*
X121750000Y-103412500D03*
%TD*%
D18*
%TO.C,R20*%
X141990000Y-118000000D03*
X143010000Y-118000000D03*
%TD*%
D21*
%TO.C,R19*%
X123250000Y-105490000D03*
X123250000Y-106510000D03*
%TD*%
%TO.C,R18*%
X123250000Y-101990000D03*
X123250000Y-103010000D03*
%TD*%
%TO.C,R17*%
X124250000Y-105490000D03*
X124250000Y-106510000D03*
%TD*%
%TO.C,R16*%
X124250000Y-101990000D03*
X124250000Y-103010000D03*
%TD*%
D17*
%TO.C,R15*%
X129250000Y-106510000D03*
X129250000Y-105490000D03*
%TD*%
%TO.C,R14*%
X129250000Y-103010000D03*
X129250000Y-101990000D03*
%TD*%
D19*
%TO.C,R13*%
X121750000Y-99912500D03*
X121750000Y-98087500D03*
%TD*%
%TO.C,R12*%
X121750000Y-96412500D03*
X121750000Y-94587500D03*
%TD*%
%TO.C,R11*%
X121750000Y-92912500D03*
X121750000Y-91087500D03*
%TD*%
D17*
%TO.C,R10*%
X127250000Y-99510000D03*
X127250000Y-98490000D03*
%TD*%
%TO.C,R9*%
X127250000Y-96010000D03*
X127250000Y-94990000D03*
%TD*%
%TO.C,R8*%
X127250000Y-92510000D03*
X127250000Y-91490000D03*
%TD*%
D21*
%TO.C,R7*%
X128250000Y-98490000D03*
X128250000Y-99510000D03*
%TD*%
%TO.C,R6*%
X128250000Y-94990000D03*
X128250000Y-96010000D03*
%TD*%
%TO.C,R5*%
X128250000Y-91490000D03*
X128250000Y-92510000D03*
%TD*%
%TO.C,R4*%
X142500000Y-81740000D03*
X142500000Y-82760000D03*
%TD*%
%TO.C,R3*%
X141250000Y-81740000D03*
X141250000Y-82760000D03*
%TD*%
%TO.C,R2*%
X143750000Y-81740000D03*
X143750000Y-82760000D03*
%TD*%
D17*
%TO.C,R1*%
X143000000Y-92760000D03*
X143000000Y-91740000D03*
%TD*%
D22*
%TO.C,Q5*%
X125812500Y-105050000D03*
X125812500Y-106950000D03*
X127687500Y-106000000D03*
%TD*%
%TO.C,Q4*%
X125812500Y-101550000D03*
X125812500Y-103450000D03*
X127687500Y-102500000D03*
%TD*%
D23*
%TO.C,Q3*%
X125687500Y-99950000D03*
X125687500Y-98050000D03*
X123812500Y-99000000D03*
%TD*%
%TO.C,Q2*%
X125687500Y-96450000D03*
X125687500Y-94550000D03*
X123812500Y-95500000D03*
%TD*%
%TO.C,Q1*%
X125687500Y-92950000D03*
X125687500Y-91050000D03*
X123812500Y-92000000D03*
%TD*%
D24*
%TO.C,L1*%
X154000000Y-84900000D03*
X154000000Y-82600000D03*
%TD*%
D25*
%TO.C,J1*%
X145040000Y-74050000D03*
X145040000Y-77950000D03*
X143770000Y-74050000D03*
X143770000Y-77950000D03*
X142500000Y-74050000D03*
X142500000Y-77950000D03*
X141230000Y-74050000D03*
X141230000Y-77950000D03*
X139960000Y-74050000D03*
X139960000Y-77950000D03*
%TD*%
D26*
%TO.C,C12*%
X153500000Y-99480000D03*
X153500000Y-98520000D03*
%TD*%
D27*
%TO.C,C11*%
X142980000Y-119000000D03*
X142020000Y-119000000D03*
%TD*%
D28*
%TO.C,C10*%
X159500000Y-82025000D03*
X159500000Y-84975000D03*
%TD*%
%TO.C,C9*%
X157000000Y-82025000D03*
X157000000Y-84975000D03*
%TD*%
D26*
%TO.C,C8*%
X152750000Y-88000000D03*
X152750000Y-87040000D03*
%TD*%
D29*
%TO.C,C7*%
X136755000Y-96250000D03*
X136755000Y-97210000D03*
%TD*%
D26*
%TO.C,C6*%
X136755000Y-100000000D03*
X136755000Y-99040000D03*
%TD*%
D27*
%TO.C,C5*%
X145485000Y-104750000D03*
X144525000Y-104750000D03*
%TD*%
D29*
%TO.C,C4*%
X148255000Y-95520000D03*
X148255000Y-96480000D03*
%TD*%
D30*
%TO.C,C3*%
X157750000Y-88950000D03*
X157750000Y-87050000D03*
%TD*%
D31*
%TO.C,C2*%
X139525000Y-93250000D03*
X140485000Y-93250000D03*
%TD*%
M02*
