%TF.GenerationSoftware,KiCad,Pcbnew,(6.0.1-0)*%
%TF.CreationDate,2022-12-13T14:32:30+01:00*%
%TF.ProjectId,CAN_Steppermodul,43414e5f-5374-4657-9070-65726d6f6475,rev?*%
%TF.SameCoordinates,Original*%
%TF.FileFunction,Copper,L1,Top*%
%TF.FilePolarity,Positive*%
%FSLAX46Y46*%
G04 Gerber Fmt 4.6, Leading zero omitted, Abs format (unit mm)*
G04 Created by KiCad (PCBNEW (6.0.1-0)) date 2022-12-13 14:32:30*
%MOMM*%
%LPD*%
G01*
G04 APERTURE LIST*
G04 Aperture macros list*
%AMRoundRect*
0 Rectangle with rounded corners*
0 $1 Rounding radius*
0 $2 $3 $4 $5 $6 $7 $8 $9 X,Y pos of 4 corners*
0 Add a 4 corners polygon primitive as box body*
4,1,4,$2,$3,$4,$5,$6,$7,$8,$9,$2,$3,0*
0 Add four circle primitives for the rounded corners*
1,1,$1+$1,$2,$3*
1,1,$1+$1,$4,$5*
1,1,$1+$1,$6,$7*
1,1,$1+$1,$8,$9*
0 Add four rect primitives between the rounded corners*
20,1,$1+$1,$2,$3,$4,$5,0*
20,1,$1+$1,$4,$5,$6,$7,0*
20,1,$1+$1,$6,$7,$8,$9,0*
20,1,$1+$1,$8,$9,$2,$3,0*%
G04 Aperture macros list end*
%TA.AperFunction,ComponentPad*%
%ADD10C,8.600000*%
%TD*%
%TA.AperFunction,ComponentPad*%
%ADD11C,0.900000*%
%TD*%
%TA.AperFunction,SMDPad,CuDef*%
%ADD12RoundRect,0.225000X-0.225000X-0.250000X0.225000X-0.250000X0.225000X0.250000X-0.225000X0.250000X0*%
%TD*%
%TA.AperFunction,SMDPad,CuDef*%
%ADD13RoundRect,0.150000X-0.825000X-0.150000X0.825000X-0.150000X0.825000X0.150000X-0.825000X0.150000X0*%
%TD*%
%TA.AperFunction,SMDPad,CuDef*%
%ADD14RoundRect,0.150000X0.150000X-0.512500X0.150000X0.512500X-0.150000X0.512500X-0.150000X-0.512500X0*%
%TD*%
%TA.AperFunction,SMDPad,CuDef*%
%ADD15RoundRect,0.075000X-0.662500X-0.075000X0.662500X-0.075000X0.662500X0.075000X-0.662500X0.075000X0*%
%TD*%
%TA.AperFunction,SMDPad,CuDef*%
%ADD16RoundRect,0.075000X-0.075000X-0.662500X0.075000X-0.662500X0.075000X0.662500X-0.075000X0.662500X0*%
%TD*%
%TA.AperFunction,ComponentPad*%
%ADD17C,1.400000*%
%TD*%
%TA.AperFunction,SMDPad,CuDef*%
%ADD18RoundRect,0.250000X0.262500X0.450000X-0.262500X0.450000X-0.262500X-0.450000X0.262500X-0.450000X0*%
%TD*%
%TA.AperFunction,SMDPad,CuDef*%
%ADD19RoundRect,0.250000X-0.262500X-0.450000X0.262500X-0.450000X0.262500X0.450000X-0.262500X0.450000X0*%
%TD*%
%TA.AperFunction,SMDPad,CuDef*%
%ADD20RoundRect,0.135000X0.185000X-0.135000X0.185000X0.135000X-0.185000X0.135000X-0.185000X-0.135000X0*%
%TD*%
%TA.AperFunction,SMDPad,CuDef*%
%ADD21RoundRect,0.135000X-0.135000X-0.185000X0.135000X-0.185000X0.135000X0.185000X-0.135000X0.185000X0*%
%TD*%
%TA.AperFunction,SMDPad,CuDef*%
%ADD22RoundRect,0.250000X0.450000X-0.262500X0.450000X0.262500X-0.450000X0.262500X-0.450000X-0.262500X0*%
%TD*%
%TA.AperFunction,SMDPad,CuDef*%
%ADD23RoundRect,0.250000X-0.450000X0.262500X-0.450000X-0.262500X0.450000X-0.262500X0.450000X0.262500X0*%
%TD*%
%TA.AperFunction,SMDPad,CuDef*%
%ADD24RoundRect,0.135000X-0.185000X0.135000X-0.185000X-0.135000X0.185000X-0.135000X0.185000X0.135000X0*%
%TD*%
%TA.AperFunction,SMDPad,CuDef*%
%ADD25RoundRect,0.150000X-0.587500X-0.150000X0.587500X-0.150000X0.587500X0.150000X-0.587500X0.150000X0*%
%TD*%
%TA.AperFunction,SMDPad,CuDef*%
%ADD26RoundRect,0.150000X0.587500X0.150000X-0.587500X0.150000X-0.587500X-0.150000X0.587500X-0.150000X0*%
%TD*%
%TA.AperFunction,SMDPad,CuDef*%
%ADD27R,2.750000X1.000000*%
%TD*%
%TA.AperFunction,ComponentPad*%
%ADD28C,2.300000*%
%TD*%
%TA.AperFunction,ComponentPad*%
%ADD29C,1.500000*%
%TD*%
%TA.AperFunction,ComponentPad*%
%ADD30R,1.500000X1.500000*%
%TD*%
%TA.AperFunction,ComponentPad*%
%ADD31C,1.508000*%
%TD*%
%TA.AperFunction,SMDPad,CuDef*%
%ADD32R,0.740000X2.400000*%
%TD*%
%TA.AperFunction,SMDPad,CuDef*%
%ADD33RoundRect,0.140000X0.170000X-0.140000X0.170000X0.140000X-0.170000X0.140000X-0.170000X-0.140000X0*%
%TD*%
%TA.AperFunction,SMDPad,CuDef*%
%ADD34RoundRect,0.140000X0.140000X0.170000X-0.140000X0.170000X-0.140000X-0.170000X0.140000X-0.170000X0*%
%TD*%
%TA.AperFunction,SMDPad,CuDef*%
%ADD35RoundRect,0.250000X-0.650000X0.325000X-0.650000X-0.325000X0.650000X-0.325000X0.650000X0.325000X0*%
%TD*%
%TA.AperFunction,SMDPad,CuDef*%
%ADD36RoundRect,0.140000X-0.170000X0.140000X-0.170000X-0.140000X0.170000X-0.140000X0.170000X0.140000X0*%
%TD*%
%TA.AperFunction,SMDPad,CuDef*%
%ADD37RoundRect,0.250000X0.475000X-0.250000X0.475000X0.250000X-0.475000X0.250000X-0.475000X-0.250000X0*%
%TD*%
%TA.AperFunction,SMDPad,CuDef*%
%ADD38RoundRect,0.140000X-0.140000X-0.170000X0.140000X-0.170000X0.140000X0.170000X-0.140000X0.170000X0*%
%TD*%
%TA.AperFunction,ViaPad*%
%ADD39C,0.800000*%
%TD*%
%TA.AperFunction,ViaPad*%
%ADD40C,0.600000*%
%TD*%
%TA.AperFunction,Conductor*%
%ADD41C,0.250000*%
%TD*%
%TA.AperFunction,Conductor*%
%ADD42C,0.200000*%
%TD*%
G04 APERTURE END LIST*
D10*
%TO.P,H4,1,1*%
%TO.N,GND*%
X178000000Y-76000000D03*
D11*
X178000000Y-79225000D03*
X175719581Y-78280419D03*
X180280419Y-73719581D03*
X180280419Y-78280419D03*
X174775000Y-76000000D03*
X175719581Y-73719581D03*
X178000000Y-72775000D03*
X181225000Y-76000000D03*
%TD*%
D10*
%TO.P,H3,1,1*%
%TO.N,GND*%
X118000000Y-76000000D03*
D11*
X118000000Y-79225000D03*
X115719581Y-78280419D03*
X120280419Y-73719581D03*
X120280419Y-78280419D03*
X114775000Y-76000000D03*
X115719581Y-73719581D03*
X118000000Y-72775000D03*
X121225000Y-76000000D03*
%TD*%
D10*
%TO.P,H2,1,1*%
%TO.N,GND*%
X118000000Y-122000000D03*
D11*
X118000000Y-125225000D03*
X115719581Y-124280419D03*
X120280419Y-119719581D03*
X120280419Y-124280419D03*
X114775000Y-122000000D03*
X115719581Y-119719581D03*
X118000000Y-118775000D03*
X121225000Y-122000000D03*
%TD*%
D10*
%TO.P,H1,1,1*%
%TO.N,GND*%
X178000000Y-122000000D03*
D11*
X178000000Y-125225000D03*
X175719581Y-124280419D03*
X180280419Y-119719581D03*
X180280419Y-124280419D03*
X174775000Y-122000000D03*
X175719581Y-119719581D03*
X178000000Y-118775000D03*
X181225000Y-122000000D03*
%TD*%
D12*
%TO.P,C1,1*%
%TO.N,+3V3*%
X139230000Y-92000000D03*
%TO.P,C1,2*%
%TO.N,GND*%
X140780000Y-92000000D03*
%TD*%
D13*
%TO.P,U3,1,D*%
%TO.N,/CAN_TX*%
X155275000Y-97095000D03*
%TO.P,U3,2,GND*%
%TO.N,GND*%
X155275000Y-98365000D03*
%TO.P,U3,3,VCC*%
%TO.N,+3V3*%
X155275000Y-99635000D03*
%TO.P,U3,4,R*%
%TO.N,/CAN_RX*%
X155275000Y-100905000D03*
%TO.P,U3,5,Vref*%
%TO.N,unconnected-(U3-Pad5)*%
X160225000Y-100905000D03*
%TO.P,U3,6,CANL*%
%TO.N,/CAN-*%
X160225000Y-99635000D03*
%TO.P,U3,7,CANH*%
%TO.N,/CAN+*%
X160225000Y-98365000D03*
%TO.P,U3,8,Rs*%
%TO.N,Net-(R24-Pad1)*%
X160225000Y-97095000D03*
%TD*%
D14*
%TO.P,U2,1,FB*%
%TO.N,+3V3*%
X154050000Y-89137500D03*
%TO.P,U2,2,EN*%
%TO.N,+24V*%
X155000000Y-89137500D03*
%TO.P,U2,3,IN*%
X155950000Y-89137500D03*
%TO.P,U2,4,GND*%
%TO.N,GND*%
X155950000Y-86862500D03*
%TO.P,U2,5,SW*%
%TO.N,Net-(C8-Pad2)*%
X155000000Y-86862500D03*
%TO.P,U2,6,BST*%
%TO.N,Net-(C8-Pad1)*%
X154050000Y-86862500D03*
%TD*%
D15*
%TO.P,U1,1,VBAT*%
%TO.N,+3V3*%
X138337500Y-96250000D03*
%TO.P,U1,2,PC13*%
%TO.N,unconnected-(U1-Pad2)*%
X138337500Y-96750000D03*
%TO.P,U1,3,PC14*%
%TO.N,unconnected-(U1-Pad3)*%
X138337500Y-97250000D03*
%TO.P,U1,4,PC15*%
%TO.N,unconnected-(U1-Pad4)*%
X138337500Y-97750000D03*
%TO.P,U1,5,PD0*%
%TO.N,unconnected-(U1-Pad5)*%
X138337500Y-98250000D03*
%TO.P,U1,6,PD1*%
%TO.N,unconnected-(U1-Pad6)*%
X138337500Y-98750000D03*
%TO.P,U1,7,NRST*%
%TO.N,/NRST*%
X138337500Y-99250000D03*
%TO.P,U1,8,VSSA*%
%TO.N,GND*%
X138337500Y-99750000D03*
%TO.P,U1,9,VDDA*%
%TO.N,+3V3*%
X138337500Y-100250000D03*
%TO.P,U1,10,PA0*%
%TO.N,/PUL_MCU*%
X138337500Y-100750000D03*
%TO.P,U1,11,PA1*%
%TO.N,/DIR_MCU*%
X138337500Y-101250000D03*
%TO.P,U1,12,PA2*%
%TO.N,/ENA_MCU*%
X138337500Y-101750000D03*
D16*
%TO.P,U1,13,PA3*%
%TO.N,/POS_MCU*%
X139750000Y-103162500D03*
%TO.P,U1,14,PA4*%
%TO.N,/ALM_MCU*%
X140250000Y-103162500D03*
%TO.P,U1,15,PA5*%
%TO.N,/HOME*%
X140750000Y-103162500D03*
%TO.P,U1,16,PA6*%
%TO.N,/STATUS*%
X141250000Y-103162500D03*
%TO.P,U1,17,PA7*%
%TO.N,unconnected-(U1-Pad17)*%
X141750000Y-103162500D03*
%TO.P,U1,18,PB0*%
%TO.N,unconnected-(U1-Pad18)*%
X142250000Y-103162500D03*
%TO.P,U1,19,PB1*%
%TO.N,unconnected-(U1-Pad19)*%
X142750000Y-103162500D03*
%TO.P,U1,20,PB2*%
%TO.N,unconnected-(U1-Pad20)*%
X143250000Y-103162500D03*
%TO.P,U1,21,PB10*%
%TO.N,unconnected-(U1-Pad21)*%
X143750000Y-103162500D03*
%TO.P,U1,22,PB11*%
%TO.N,unconnected-(U1-Pad22)*%
X144250000Y-103162500D03*
%TO.P,U1,23,VSS*%
%TO.N,GND*%
X144750000Y-103162500D03*
%TO.P,U1,24,VDD*%
%TO.N,+3V3*%
X145250000Y-103162500D03*
D15*
%TO.P,U1,25,PB12*%
%TO.N,unconnected-(U1-Pad25)*%
X146662500Y-101750000D03*
%TO.P,U1,26,PB13*%
%TO.N,unconnected-(U1-Pad26)*%
X146662500Y-101250000D03*
%TO.P,U1,27,PB14*%
%TO.N,unconnected-(U1-Pad27)*%
X146662500Y-100750000D03*
%TO.P,U1,28,PB15*%
%TO.N,unconnected-(U1-Pad28)*%
X146662500Y-100250000D03*
%TO.P,U1,29,PA8*%
%TO.N,unconnected-(U1-Pad29)*%
X146662500Y-99750000D03*
%TO.P,U1,30,PA9*%
%TO.N,unconnected-(U1-Pad30)*%
X146662500Y-99250000D03*
%TO.P,U1,31,PA10*%
%TO.N,unconnected-(U1-Pad31)*%
X146662500Y-98750000D03*
%TO.P,U1,32,PA11*%
%TO.N,/CAN_RX*%
X146662500Y-98250000D03*
%TO.P,U1,33,PA12*%
%TO.N,/CAN_TX*%
X146662500Y-97750000D03*
%TO.P,U1,34,PA13*%
%TO.N,/SWDIO*%
X146662500Y-97250000D03*
%TO.P,U1,35,VSS*%
%TO.N,GND*%
X146662500Y-96750000D03*
%TO.P,U1,36,VDD*%
%TO.N,+3V3*%
X146662500Y-96250000D03*
D16*
%TO.P,U1,37,PA14*%
%TO.N,/SWCLK*%
X145250000Y-94837500D03*
%TO.P,U1,38,PA15*%
%TO.N,unconnected-(U1-Pad38)*%
X144750000Y-94837500D03*
%TO.P,U1,39,PB3*%
%TO.N,unconnected-(U1-Pad39)*%
X144250000Y-94837500D03*
%TO.P,U1,40,PB4*%
%TO.N,unconnected-(U1-Pad40)*%
X143750000Y-94837500D03*
%TO.P,U1,41,PB5*%
%TO.N,unconnected-(U1-Pad41)*%
X143250000Y-94837500D03*
%TO.P,U1,42,PB6*%
%TO.N,unconnected-(U1-Pad42)*%
X142750000Y-94837500D03*
%TO.P,U1,43,PB7*%
%TO.N,unconnected-(U1-Pad43)*%
X142250000Y-94837500D03*
%TO.P,U1,44,BOOT0*%
%TO.N,Net-(R1-Pad1)*%
X141750000Y-94837500D03*
%TO.P,U1,45,PB8*%
%TO.N,unconnected-(U1-Pad45)*%
X141250000Y-94837500D03*
%TO.P,U1,46,PB9*%
%TO.N,unconnected-(U1-Pad46)*%
X140750000Y-94837500D03*
%TO.P,U1,47,VSS*%
%TO.N,GND*%
X140250000Y-94837500D03*
%TO.P,U1,48,VDD*%
%TO.N,+3V3*%
X139750000Y-94837500D03*
%TD*%
D17*
%TO.P,TP3,1,1*%
%TO.N,GND*%
X162750000Y-104000000D03*
%TO.P,TP3,2,2*%
%TO.N,/CAN-*%
X162750000Y-101460000D03*
%TD*%
%TO.P,TP2,1,1*%
%TO.N,GND*%
X162750000Y-94000000D03*
%TO.P,TP2,2,2*%
%TO.N,/CAN+*%
X162750000Y-96540000D03*
%TD*%
%TO.P,TP1,1,1*%
%TO.N,GND*%
X154460000Y-76460000D03*
%TO.P,TP1,2,2*%
%TO.N,+3V3*%
X154460000Y-79000000D03*
%TD*%
D18*
%TO.P,R29,1*%
%TO.N,+24V*%
X169162500Y-118000000D03*
%TO.P,R29,2*%
%TO.N,/LED4*%
X167337500Y-118000000D03*
%TD*%
D19*
%TO.P,R28,1*%
%TO.N,+24V*%
X170500000Y-80250000D03*
%TO.P,R28,2*%
%TO.N,/LED2*%
X172325000Y-80250000D03*
%TD*%
D20*
%TO.P,R27,1*%
%TO.N,/CAN-*%
X162750000Y-99510000D03*
%TO.P,R27,2*%
%TO.N,/CAN+*%
X162750000Y-98490000D03*
%TD*%
D21*
%TO.P,R26,1*%
%TO.N,/STATUS*%
X162240000Y-106000000D03*
%TO.P,R26,2*%
%TO.N,/LED3*%
X163260000Y-106000000D03*
%TD*%
%TO.P,R25,2*%
%TO.N,/LED1*%
X163260000Y-92000000D03*
%TO.P,R25,1*%
%TO.N,/STATUS*%
X162240000Y-92000000D03*
%TD*%
%TO.P,R24,1*%
%TO.N,Net-(R24-Pad1)*%
X158250000Y-95750000D03*
%TO.P,R24,2*%
%TO.N,GND*%
X159270000Y-95750000D03*
%TD*%
D22*
%TO.P,R23,1*%
%TO.N,+24V*%
X136000000Y-125162500D03*
%TO.P,R23,2*%
%TO.N,Net-(J3-Pad1)*%
X136000000Y-123337500D03*
%TD*%
D23*
%TO.P,R22,1*%
%TO.N,+24V*%
X121750000Y-105087500D03*
%TO.P,R22,2*%
%TO.N,/ALM+*%
X121750000Y-106912500D03*
%TD*%
%TO.P,R21,1*%
%TO.N,+24V*%
X121750000Y-101587500D03*
%TO.P,R21,2*%
%TO.N,/POS+*%
X121750000Y-103412500D03*
%TD*%
D21*
%TO.P,R20,1*%
%TO.N,/HOME*%
X141990000Y-118000000D03*
%TO.P,R20,2*%
%TO.N,Net-(C11-Pad1)*%
X143010000Y-118000000D03*
%TD*%
D24*
%TO.P,R19,1*%
%TO.N,Net-(Q5-Pad1)*%
X123250000Y-105490000D03*
%TO.P,R19,2*%
%TO.N,/ALM+*%
X123250000Y-106510000D03*
%TD*%
%TO.P,R18,1*%
%TO.N,Net-(Q4-Pad1)*%
X123250000Y-101990000D03*
%TO.P,R18,2*%
%TO.N,/POS+*%
X123250000Y-103010000D03*
%TD*%
%TO.P,R17,1*%
%TO.N,Net-(Q5-Pad1)*%
X124250000Y-105490000D03*
%TO.P,R17,2*%
%TO.N,GND*%
X124250000Y-106510000D03*
%TD*%
%TO.P,R16,1*%
%TO.N,Net-(Q4-Pad1)*%
X124250000Y-101990000D03*
%TO.P,R16,2*%
%TO.N,GND*%
X124250000Y-103010000D03*
%TD*%
D20*
%TO.P,R15,1*%
%TO.N,+3V3*%
X129250000Y-106510000D03*
%TO.P,R15,2*%
%TO.N,/ALM_MCU*%
X129250000Y-105490000D03*
%TD*%
%TO.P,R14,1*%
%TO.N,+3V3*%
X129250000Y-103010000D03*
%TO.P,R14,2*%
%TO.N,/POS_MCU*%
X129250000Y-101990000D03*
%TD*%
D22*
%TO.P,R13,1*%
%TO.N,/ENA-*%
X121750000Y-99912500D03*
%TO.P,R13,2*%
%TO.N,Net-(Q3-Pad3)*%
X121750000Y-98087500D03*
%TD*%
%TO.P,R12,1*%
%TO.N,/DIR-*%
X121750000Y-96412500D03*
%TO.P,R12,2*%
%TO.N,Net-(Q2-Pad3)*%
X121750000Y-94587500D03*
%TD*%
%TO.P,R11,1*%
%TO.N,/PUL-*%
X121750000Y-92912500D03*
%TO.P,R11,2*%
%TO.N,Net-(Q1-Pad3)*%
X121750000Y-91087500D03*
%TD*%
D20*
%TO.P,R10,1*%
%TO.N,Net-(Q3-Pad1)*%
X127250000Y-99510000D03*
%TO.P,R10,2*%
%TO.N,GND*%
X127250000Y-98490000D03*
%TD*%
%TO.P,R9,1*%
%TO.N,Net-(Q2-Pad1)*%
X127250000Y-96010000D03*
%TO.P,R9,2*%
%TO.N,GND*%
X127250000Y-94990000D03*
%TD*%
%TO.P,R8,1*%
%TO.N,Net-(Q1-Pad1)*%
X127250000Y-92510000D03*
%TO.P,R8,2*%
%TO.N,GND*%
X127250000Y-91490000D03*
%TD*%
D24*
%TO.P,R7,1*%
%TO.N,/ENA_MCU*%
X128250000Y-98490000D03*
%TO.P,R7,2*%
%TO.N,Net-(Q3-Pad1)*%
X128250000Y-99510000D03*
%TD*%
%TO.P,R6,1*%
%TO.N,/DIR_MCU*%
X128250000Y-94990000D03*
%TO.P,R6,2*%
%TO.N,Net-(Q2-Pad1)*%
X128250000Y-96010000D03*
%TD*%
%TO.P,R5,1*%
%TO.N,/PUL_MCU*%
X128250000Y-91490000D03*
%TO.P,R5,2*%
%TO.N,Net-(Q1-Pad1)*%
X128250000Y-92510000D03*
%TD*%
%TO.P,R4,1*%
%TO.N,/SWCLK_CONN*%
X142500000Y-81740000D03*
%TO.P,R4,2*%
%TO.N,/SWCLK*%
X142500000Y-82760000D03*
%TD*%
%TO.P,R3,1*%
%TO.N,/NRST_CONN*%
X141250000Y-81740000D03*
%TO.P,R3,2*%
%TO.N,/NRST*%
X141250000Y-82760000D03*
%TD*%
%TO.P,R2,1*%
%TO.N,/SWDIO_CONN*%
X143750000Y-81740000D03*
%TO.P,R2,2*%
%TO.N,/SWDIO*%
X143750000Y-82760000D03*
%TD*%
D20*
%TO.P,R1,1*%
%TO.N,Net-(R1-Pad1)*%
X143000000Y-92760000D03*
%TO.P,R1,2*%
%TO.N,GND*%
X143000000Y-91740000D03*
%TD*%
D25*
%TO.P,Q5,1,G*%
%TO.N,Net-(Q5-Pad1)*%
X125812500Y-105050000D03*
%TO.P,Q5,2,S*%
%TO.N,GND*%
X125812500Y-106950000D03*
%TO.P,Q5,3,D*%
%TO.N,/ALM_MCU*%
X127687500Y-106000000D03*
%TD*%
%TO.P,Q4,1,G*%
%TO.N,Net-(Q4-Pad1)*%
X125812500Y-101550000D03*
%TO.P,Q4,2,S*%
%TO.N,GND*%
X125812500Y-103450000D03*
%TO.P,Q4,3,D*%
%TO.N,/POS_MCU*%
X127687500Y-102500000D03*
%TD*%
D26*
%TO.P,Q3,1,G*%
%TO.N,Net-(Q3-Pad1)*%
X125687500Y-99950000D03*
%TO.P,Q3,2,S*%
%TO.N,GND*%
X125687500Y-98050000D03*
%TO.P,Q3,3,D*%
%TO.N,Net-(Q3-Pad3)*%
X123812500Y-99000000D03*
%TD*%
%TO.P,Q2,1,G*%
%TO.N,Net-(Q2-Pad1)*%
X125687500Y-96450000D03*
%TO.P,Q2,2,S*%
%TO.N,GND*%
X125687500Y-94550000D03*
%TO.P,Q2,3,D*%
%TO.N,Net-(Q2-Pad3)*%
X123812500Y-95500000D03*
%TD*%
%TO.P,Q1,1,G*%
%TO.N,Net-(Q1-Pad1)*%
X125687500Y-92950000D03*
%TO.P,Q1,2,S*%
%TO.N,GND*%
X125687500Y-91050000D03*
%TO.P,Q1,3,D*%
%TO.N,Net-(Q1-Pad3)*%
X123812500Y-92000000D03*
%TD*%
D27*
%TO.P,L1,1*%
%TO.N,Net-(C8-Pad2)*%
X154000000Y-84900000D03*
%TO.P,L1,2*%
%TO.N,+3V3*%
X154000000Y-82600000D03*
%TD*%
D28*
%TO.P,J4,SH*%
%TO.N,GND*%
X173985000Y-83000000D03*
X173985000Y-115000000D03*
D29*
%TO.P,J4,24*%
%TO.N,/LED4*%
X168275000Y-113740000D03*
%TO.P,J4,23*%
%TO.N,GND*%
X168275000Y-111450000D03*
%TO.P,J4,22*%
%TO.N,/LED3*%
X168275000Y-102310000D03*
%TO.P,J4,21*%
%TO.N,GND*%
X168275000Y-100020000D03*
%TO.P,J4,20*%
%TO.N,+24V*%
X173095000Y-110432000D03*
%TO.P,J4,19*%
%TO.N,GND*%
X174875000Y-109416000D03*
%TO.P,J4,18*%
X173095000Y-108400000D03*
%TO.P,J4,17*%
%TO.N,unconnected-(J4-Pad17)*%
X174875000Y-107384000D03*
%TO.P,J4,16*%
%TO.N,unconnected-(J4-Pad16)*%
X173095000Y-106368000D03*
%TO.P,J4,15*%
%TO.N,GND*%
X174875000Y-105352000D03*
%TO.P,J4,14*%
%TO.N,/CAN-*%
X173095000Y-104336000D03*
%TO.P,J4,13*%
%TO.N,/CAN+*%
X174875000Y-103320000D03*
%TO.P,J4,12*%
%TO.N,/LED2*%
X168275000Y-97990000D03*
%TO.P,J4,11*%
%TO.N,GND*%
X168275000Y-95700000D03*
%TO.P,J4,10*%
%TO.N,/LED1*%
X168275000Y-86560000D03*
%TO.P,J4,9*%
%TO.N,GND*%
X168275000Y-84270000D03*
%TO.P,J4,8*%
%TO.N,+24V*%
X173095000Y-94682000D03*
%TO.P,J4,7*%
%TO.N,GND*%
X174875000Y-93666000D03*
%TO.P,J4,6*%
X173095000Y-92650000D03*
%TO.P,J4,5*%
%TO.N,unconnected-(J4-Pad5)*%
X174875000Y-91634000D03*
%TO.P,J4,4*%
%TO.N,unconnected-(J4-Pad4)*%
X173095000Y-90618000D03*
%TO.P,J4,3*%
%TO.N,GND*%
X174875000Y-89602000D03*
%TO.P,J4,2*%
%TO.N,/CAN-*%
X173095000Y-88586000D03*
D30*
%TO.P,J4,1*%
%TO.N,/CAN+*%
X174875000Y-87570000D03*
%TD*%
D31*
%TO.P,J3,4,Pin_4*%
%TO.N,GND*%
X146310000Y-123300000D03*
%TO.P,J3,3,Pin_3*%
%TO.N,Net-(C11-Pad1)*%
X143770000Y-123300000D03*
%TO.P,J3,2,Pin_2*%
%TO.N,GND*%
X141230000Y-123300000D03*
%TO.P,J3,1,Pin_1*%
%TO.N,Net-(J3-Pad1)*%
X138690000Y-123300000D03*
%TD*%
%TO.P,J2,7,Pin_7*%
%TO.N,GND*%
X116950000Y-106620000D03*
%TO.P,J2,6,Pin_6*%
%TO.N,/ALM+*%
X116950000Y-104080000D03*
%TO.P,J2,5,Pin_5*%
%TO.N,/POS+*%
X116950000Y-101540000D03*
%TO.P,J2,4,Pin_4*%
%TO.N,/ENA-*%
X116950000Y-99000000D03*
%TO.P,J2,3,Pin_3*%
%TO.N,/DIR-*%
X116950000Y-96460000D03*
%TO.P,J2,2,Pin_2*%
%TO.N,/PUL-*%
X116950000Y-93920000D03*
%TO.P,J2,1,Pin_1*%
%TO.N,+24V*%
X116950000Y-91380000D03*
%TD*%
D32*
%TO.P,J1,1,Pin_1*%
%TO.N,+3V3*%
X145040000Y-74050000D03*
%TO.P,J1,2,Pin_2*%
%TO.N,/SWDIO_CONN*%
X145040000Y-77950000D03*
%TO.P,J1,3,Pin_3*%
%TO.N,GND*%
X143770000Y-74050000D03*
%TO.P,J1,4,Pin_4*%
%TO.N,/SWCLK_CONN*%
X143770000Y-77950000D03*
%TO.P,J1,5,Pin_5*%
%TO.N,GND*%
X142500000Y-74050000D03*
%TO.P,J1,6,Pin_6*%
%TO.N,unconnected-(J1-Pad6)*%
X142500000Y-77950000D03*
%TO.P,J1,7,Pin_7*%
%TO.N,unconnected-(J1-Pad7)*%
X141230000Y-74050000D03*
%TO.P,J1,8,Pin_8*%
%TO.N,unconnected-(J1-Pad8)*%
X141230000Y-77950000D03*
%TO.P,J1,9,Pin_9*%
%TO.N,GND*%
X139960000Y-74050000D03*
%TO.P,J1,10,Pin_10*%
%TO.N,/NRST_CONN*%
X139960000Y-77950000D03*
%TD*%
D33*
%TO.P,C12,1*%
%TO.N,+3V3*%
X153500000Y-99480000D03*
%TO.P,C12,2*%
%TO.N,GND*%
X153500000Y-98520000D03*
%TD*%
D34*
%TO.P,C11,1*%
%TO.N,Net-(C11-Pad1)*%
X142980000Y-119000000D03*
%TO.P,C11,2*%
%TO.N,GND*%
X142020000Y-119000000D03*
%TD*%
D35*
%TO.P,C10,1*%
%TO.N,+3V3*%
X159500000Y-82025000D03*
%TO.P,C10,2*%
%TO.N,GND*%
X159500000Y-84975000D03*
%TD*%
%TO.P,C9,1*%
%TO.N,+3V3*%
X157000000Y-82025000D03*
%TO.P,C9,2*%
%TO.N,GND*%
X157000000Y-84975000D03*
%TD*%
D33*
%TO.P,C8,1*%
%TO.N,Net-(C8-Pad1)*%
X152750000Y-88000000D03*
%TO.P,C8,2*%
%TO.N,Net-(C8-Pad2)*%
X152750000Y-87040000D03*
%TD*%
D36*
%TO.P,C7,1*%
%TO.N,+3V3*%
X136755000Y-96250000D03*
%TO.P,C7,2*%
%TO.N,GND*%
X136755000Y-97210000D03*
%TD*%
D33*
%TO.P,C6,1*%
%TO.N,+3V3*%
X136755000Y-100000000D03*
%TO.P,C6,2*%
%TO.N,GND*%
X136755000Y-99040000D03*
%TD*%
D34*
%TO.P,C5,1*%
%TO.N,+3V3*%
X145485000Y-104750000D03*
%TO.P,C5,2*%
%TO.N,GND*%
X144525000Y-104750000D03*
%TD*%
D36*
%TO.P,C4,1*%
%TO.N,+3V3*%
X148255000Y-95520000D03*
%TO.P,C4,2*%
%TO.N,GND*%
X148255000Y-96480000D03*
%TD*%
D37*
%TO.P,C3,1*%
%TO.N,+24V*%
X157750000Y-88950000D03*
%TO.P,C3,2*%
%TO.N,GND*%
X157750000Y-87050000D03*
%TD*%
D38*
%TO.P,C2,1*%
%TO.N,+3V3*%
X139525000Y-93250000D03*
%TO.P,C2,2*%
%TO.N,GND*%
X140485000Y-93250000D03*
%TD*%
D39*
%TO.N,GND*%
X180000000Y-116000000D03*
X180000000Y-114000000D03*
X180000000Y-112000000D03*
X180000000Y-110000000D03*
X180000000Y-108000000D03*
X180000000Y-106000000D03*
X180000000Y-104000000D03*
X180000000Y-102000000D03*
X180000000Y-100000000D03*
X180000000Y-98000000D03*
X180000000Y-96000000D03*
X178000000Y-116000000D03*
X178000000Y-90000000D03*
X178000000Y-88000000D03*
X174000000Y-118000000D03*
X174000000Y-100000000D03*
X172000000Y-124000000D03*
X172000000Y-122000000D03*
X172000000Y-120000000D03*
X172000000Y-118000000D03*
X172000000Y-100000000D03*
X172000000Y-78000000D03*
X172000000Y-76000000D03*
X172000000Y-74000000D03*
X170000000Y-124000000D03*
X170000000Y-122000000D03*
X170000000Y-112000000D03*
X170000000Y-100000000D03*
X170000000Y-96000000D03*
X170000000Y-78000000D03*
X170000000Y-76000000D03*
X170000000Y-74000000D03*
X168000000Y-124000000D03*
X168000000Y-94000000D03*
X168000000Y-82000000D03*
X168000000Y-80000000D03*
X168000000Y-78000000D03*
X168000000Y-76000000D03*
X168000000Y-74000000D03*
X166000000Y-120000000D03*
X166000000Y-116000000D03*
X166000000Y-114000000D03*
X166000000Y-112000000D03*
X166000000Y-86000000D03*
X166000000Y-84000000D03*
X166000000Y-82000000D03*
X166000000Y-80000000D03*
X166000000Y-78000000D03*
X166000000Y-76000000D03*
X166000000Y-74000000D03*
X164000000Y-122000000D03*
X164000000Y-120000000D03*
X164000000Y-118000000D03*
X164000000Y-116000000D03*
X164000000Y-114000000D03*
X164000000Y-112000000D03*
X164000000Y-88000000D03*
X164000000Y-86000000D03*
X164000000Y-84000000D03*
X164000000Y-82000000D03*
X164000000Y-80000000D03*
X164000000Y-78000000D03*
X164000000Y-76000000D03*
X164000000Y-74000000D03*
X162000000Y-124000000D03*
X162000000Y-122000000D03*
X162000000Y-120000000D03*
X162000000Y-118000000D03*
X162000000Y-116000000D03*
X162000000Y-114000000D03*
X162000000Y-112000000D03*
X162000000Y-88000000D03*
X162000000Y-86000000D03*
X162000000Y-84000000D03*
X162000000Y-82000000D03*
X162000000Y-80000000D03*
X162000000Y-78000000D03*
X162000000Y-76000000D03*
X162000000Y-74000000D03*
X160000000Y-124000000D03*
X160000000Y-122000000D03*
X160000000Y-120000000D03*
X160000000Y-118000000D03*
X160000000Y-116000000D03*
X160000000Y-114000000D03*
X160000000Y-112000000D03*
X160000000Y-104000000D03*
X160000000Y-76000000D03*
X160000000Y-74000000D03*
X158000000Y-124000000D03*
X158000000Y-122000000D03*
X158000000Y-120000000D03*
X158000000Y-118000000D03*
X158000000Y-116000000D03*
X158000000Y-114000000D03*
X158000000Y-112000000D03*
X158000000Y-76000000D03*
X158000000Y-74000000D03*
X156000000Y-124000000D03*
X156000000Y-122000000D03*
X156000000Y-120000000D03*
X156000000Y-118000000D03*
X156000000Y-116000000D03*
X156000000Y-114000000D03*
X156000000Y-112000000D03*
X156000000Y-104000000D03*
X156000000Y-94000000D03*
X156000000Y-92000000D03*
X156000000Y-74000000D03*
X154000000Y-124000000D03*
X154000000Y-122000000D03*
X154000000Y-120000000D03*
X154000000Y-118000000D03*
X154000000Y-116000000D03*
X154000000Y-114000000D03*
X154000000Y-112000000D03*
X154000000Y-104000000D03*
X154000000Y-94000000D03*
X154000000Y-92000000D03*
X154000000Y-74000000D03*
X152000000Y-124000000D03*
X152000000Y-122000000D03*
X152000000Y-120000000D03*
X152000000Y-118000000D03*
X152000000Y-116000000D03*
X152000000Y-114000000D03*
X152000000Y-112000000D03*
X152000000Y-104000000D03*
X152000000Y-102000000D03*
X152000000Y-96000000D03*
X152000000Y-94000000D03*
X152000000Y-92000000D03*
X152000000Y-76000000D03*
X152000000Y-74000000D03*
X150000000Y-124000000D03*
X150000000Y-122000000D03*
X150000000Y-120000000D03*
X150000000Y-118000000D03*
X150000000Y-116000000D03*
X150000000Y-114000000D03*
X150000000Y-112000000D03*
X150000000Y-76000000D03*
X150000000Y-74000000D03*
X148000000Y-124000000D03*
X148000000Y-122000000D03*
X148000000Y-120000000D03*
X148000000Y-118000000D03*
X148000000Y-116000000D03*
X148000000Y-114000000D03*
X148000000Y-112000000D03*
X148000000Y-94000000D03*
X148000000Y-92000000D03*
X148000000Y-86000000D03*
X148000000Y-84000000D03*
X148000000Y-82000000D03*
X148000000Y-76000000D03*
X148000000Y-74000000D03*
X146000000Y-120000000D03*
X146000000Y-118000000D03*
X146000000Y-116000000D03*
X146000000Y-114000000D03*
X146000000Y-112000000D03*
X146000000Y-84000000D03*
X146000000Y-82000000D03*
X144000000Y-116000000D03*
X144000000Y-114000000D03*
X144000000Y-100000000D03*
X142000000Y-90000000D03*
X140000000Y-120000000D03*
X140000000Y-118000000D03*
X140000000Y-98000000D03*
X140000000Y-90000000D03*
X140000000Y-88000000D03*
X140000000Y-86000000D03*
X140000000Y-84000000D03*
X140000000Y-82000000D03*
X138000000Y-120000000D03*
X138000000Y-112000000D03*
X138000000Y-94000000D03*
X138000000Y-90000000D03*
X138000000Y-88000000D03*
X138000000Y-86000000D03*
X138000000Y-84000000D03*
X138000000Y-78000000D03*
X138000000Y-76000000D03*
X138000000Y-74000000D03*
X136000000Y-114000000D03*
X136000000Y-112000000D03*
X136000000Y-94000000D03*
X136000000Y-90000000D03*
X136000000Y-88000000D03*
X136000000Y-86000000D03*
X136000000Y-80000000D03*
X136000000Y-78000000D03*
X136000000Y-76000000D03*
X136000000Y-74000000D03*
X134000000Y-124000000D03*
X134000000Y-122000000D03*
X134000000Y-120000000D03*
X134000000Y-118000000D03*
X134000000Y-116000000D03*
X134000000Y-114000000D03*
X134000000Y-112000000D03*
X134000000Y-82000000D03*
X134000000Y-80000000D03*
X134000000Y-78000000D03*
X134000000Y-76000000D03*
X134000000Y-74000000D03*
X132000000Y-124000000D03*
X132000000Y-122000000D03*
X132000000Y-120000000D03*
X132000000Y-118000000D03*
X132000000Y-116000000D03*
X132000000Y-114000000D03*
X132000000Y-112000000D03*
X132000000Y-84000000D03*
X132000000Y-82000000D03*
X132000000Y-80000000D03*
X132000000Y-78000000D03*
X132000000Y-76000000D03*
X132000000Y-74000000D03*
X130000000Y-124000000D03*
X130000000Y-122000000D03*
X130000000Y-120000000D03*
X130000000Y-118000000D03*
X130000000Y-116000000D03*
X130000000Y-114000000D03*
X130000000Y-112000000D03*
X130000000Y-90000000D03*
X130000000Y-88000000D03*
X130000000Y-86000000D03*
X130000000Y-84000000D03*
X130000000Y-82000000D03*
X130000000Y-80000000D03*
X130000000Y-78000000D03*
X130000000Y-76000000D03*
X130000000Y-74000000D03*
X128000000Y-124000000D03*
X128000000Y-122000000D03*
X128000000Y-120000000D03*
X128000000Y-118000000D03*
X128000000Y-116000000D03*
X128000000Y-114000000D03*
X128000000Y-112000000D03*
X128000000Y-88000000D03*
X128000000Y-86000000D03*
X128000000Y-84000000D03*
X128000000Y-82000000D03*
X128000000Y-80000000D03*
X128000000Y-78000000D03*
X128000000Y-76000000D03*
X128000000Y-74000000D03*
X126000000Y-124000000D03*
X126000000Y-122000000D03*
X126000000Y-120000000D03*
X126000000Y-118000000D03*
X126000000Y-116000000D03*
X126000000Y-114000000D03*
X126000000Y-112000000D03*
X126000000Y-88000000D03*
X126000000Y-86000000D03*
X126000000Y-84000000D03*
X126000000Y-82000000D03*
X126000000Y-80000000D03*
X126000000Y-78000000D03*
X126000000Y-76000000D03*
X126000000Y-74000000D03*
X124000000Y-124000000D03*
X124000000Y-122000000D03*
X124000000Y-120000000D03*
X124000000Y-118000000D03*
X124000000Y-116000000D03*
X124000000Y-114000000D03*
X124000000Y-112000000D03*
X124000000Y-94000000D03*
X124000000Y-90000000D03*
X124000000Y-88000000D03*
X124000000Y-86000000D03*
X124000000Y-84000000D03*
X124000000Y-82000000D03*
X124000000Y-80000000D03*
X124000000Y-78000000D03*
X124000000Y-76000000D03*
X124000000Y-74000000D03*
X122000000Y-118000000D03*
X122000000Y-116000000D03*
X122000000Y-114000000D03*
X122000000Y-112000000D03*
X122000000Y-88000000D03*
X122000000Y-86000000D03*
X122000000Y-84000000D03*
X122000000Y-82000000D03*
X122000000Y-80000000D03*
X120000000Y-116000000D03*
X120000000Y-114000000D03*
X120000000Y-112000000D03*
X120000000Y-110000000D03*
X120000000Y-90000000D03*
X120000000Y-88000000D03*
X120000000Y-86000000D03*
X120000000Y-84000000D03*
X120000000Y-82000000D03*
X118000000Y-116000000D03*
X118000000Y-114000000D03*
X118000000Y-112000000D03*
X118000000Y-110000000D03*
X118000000Y-88000000D03*
X118000000Y-86000000D03*
X118000000Y-84000000D03*
X118000000Y-82000000D03*
X116000000Y-116000000D03*
X116000000Y-114000000D03*
X116000000Y-112000000D03*
X116000000Y-110000000D03*
X116000000Y-88000000D03*
X116000000Y-86000000D03*
X116000000Y-84000000D03*
X116000000Y-82000000D03*
D40*
X142000000Y-119000000D03*
X124250000Y-106510000D03*
X124250000Y-103010000D03*
X127250000Y-98490000D03*
X127250000Y-94990000D03*
X127250000Y-91490000D03*
X140000000Y-74250000D03*
X142500000Y-74250000D03*
X143750000Y-74250000D03*
%TO.N,+3V3*%
X145000000Y-74250000D03*
X136755000Y-100000000D03*
%TO.N,GND*%
X136755000Y-99040000D03*
X136750000Y-97250000D03*
%TO.N,+3V3*%
X136755000Y-96250000D03*
X129250000Y-103000000D03*
X129250000Y-106500000D03*
%TO.N,GND*%
X144525000Y-104750000D03*
%TO.N,+3V3*%
X145485000Y-104750000D03*
X154000000Y-82600000D03*
X159500000Y-82000000D03*
X157000000Y-82000000D03*
X139230000Y-92000000D03*
%TO.N,GND*%
X140765000Y-92015000D03*
X143000000Y-91750000D03*
%TO.N,+24V*%
X170500000Y-80250000D03*
%TO.N,GND*%
X159500000Y-87000000D03*
X159500000Y-86000000D03*
X158250000Y-86000000D03*
X157000000Y-86000000D03*
X157750000Y-87000000D03*
X159500000Y-85000000D03*
X158250000Y-85000000D03*
X157000000Y-85000000D03*
%TO.N,+24V*%
X157750000Y-89000000D03*
%TO.N,GND*%
X159250000Y-95750000D03*
%TO.N,+3V3*%
X148255000Y-95520000D03*
%TO.N,GND*%
X148255000Y-96480000D03*
%TO.N,+3V3*%
X153510000Y-99490000D03*
%TO.N,GND*%
X153510000Y-98510000D03*
%TO.N,/CAN+*%
X162750000Y-98500000D03*
%TO.N,/CAN-*%
X162745000Y-99505000D03*
%TO.N,+24V*%
X136000000Y-125162500D03*
X121750000Y-101500000D03*
X121750000Y-105000000D03*
D39*
%TO.N,+3V3*%
X154500000Y-81000000D03*
X156250000Y-80500000D03*
X157750000Y-80500000D03*
X159250000Y-80500000D03*
X159250000Y-79000000D03*
X157750000Y-79000000D03*
X156250000Y-79000000D03*
%TO.N,/NRST*%
X144250000Y-96250000D03*
X144250000Y-93250000D03*
%TD*%
D41*
%TO.N,GND*%
X125800000Y-103450000D02*
X124690000Y-103450000D01*
%TO.N,/POS_MCU*%
X129250000Y-101990000D02*
X128760000Y-101990000D01*
X128250000Y-102500000D02*
X127687500Y-102500000D01*
X128760000Y-101990000D02*
X128250000Y-102500000D01*
%TO.N,+3V3*%
X151000000Y-89250000D02*
X152000000Y-90250000D01*
X154000000Y-82600000D02*
X152150000Y-82600000D01*
X152150000Y-82600000D02*
X151000000Y-83750000D01*
X151000000Y-83750000D02*
X151000000Y-89250000D01*
X152000000Y-90250000D02*
X153750000Y-90250000D01*
X153750000Y-90250000D02*
X154050000Y-89950000D01*
X154050000Y-89950000D02*
X154050000Y-89137500D01*
%TO.N,GND*%
X140765000Y-92015000D02*
X140780000Y-92000000D01*
%TO.N,/LED2*%
X172325000Y-80250000D02*
X174750000Y-80250000D01*
X176250000Y-81750000D02*
X178500000Y-81750000D01*
X180750000Y-84000000D02*
X180750000Y-91250000D01*
X174750000Y-80250000D02*
X176250000Y-81750000D01*
X178500000Y-81750000D02*
X180750000Y-84000000D01*
X180750000Y-91250000D02*
X174010000Y-97990000D01*
X174010000Y-97990000D02*
X168275000Y-97990000D01*
%TO.N,+3V3*%
X153510000Y-99490000D02*
X153500000Y-99480000D01*
%TO.N,GND*%
X153510000Y-98510000D02*
X153500000Y-98520000D01*
%TO.N,/LED1*%
X163260000Y-92000000D02*
X168275000Y-86985000D01*
X168275000Y-86985000D02*
X168275000Y-86560000D01*
%TO.N,/STATUS*%
X157000000Y-106000000D02*
X157250000Y-106000000D01*
X157250000Y-106000000D02*
X157250000Y-94750000D01*
X157250000Y-94750000D02*
X160000000Y-92000000D01*
X160000000Y-92000000D02*
X162240000Y-92000000D01*
X157000000Y-106000000D02*
X162240000Y-106000000D01*
X143000000Y-106000000D02*
X157000000Y-106000000D01*
%TO.N,/LED3*%
X163260000Y-106000000D02*
X164585000Y-106000000D01*
X164585000Y-106000000D02*
X168275000Y-102310000D01*
%TO.N,/STATUS*%
X141250000Y-103162500D02*
X141250000Y-104250000D01*
X141250000Y-104250000D02*
X143000000Y-106000000D01*
%TO.N,Net-(C8-Pad2)*%
X152750000Y-87040000D02*
X152750000Y-85500000D01*
X153350000Y-84900000D02*
X154000000Y-84900000D01*
X152750000Y-85500000D02*
X153350000Y-84900000D01*
%TO.N,Net-(C8-Pad1)*%
X152750000Y-88000000D02*
X153750000Y-88000000D01*
X154050000Y-87700000D02*
X154050000Y-86862500D01*
X153750000Y-88000000D02*
X154050000Y-87700000D01*
%TO.N,GND*%
X155275000Y-98365000D02*
X153655000Y-98365000D01*
X153655000Y-98365000D02*
X153510000Y-98510000D01*
%TO.N,/POS+*%
X121750000Y-103412500D02*
X122847500Y-103412500D01*
X122847500Y-103412500D02*
X123250000Y-103010000D01*
%TO.N,Net-(Q3-Pad3)*%
X123812500Y-99000000D02*
X122662500Y-99000000D01*
X122662500Y-99000000D02*
X121750000Y-98087500D01*
%TO.N,Net-(Q2-Pad3)*%
X123812500Y-95500000D02*
X122662500Y-95500000D01*
X122662500Y-95500000D02*
X121750000Y-94587500D01*
%TO.N,Net-(Q1-Pad3)*%
X123812500Y-92000000D02*
X122662500Y-92000000D01*
X122662500Y-92000000D02*
X121750000Y-91087500D01*
%TO.N,GND*%
X125687500Y-91050000D02*
X126810000Y-91050000D01*
X126810000Y-91050000D02*
X127250000Y-91490000D01*
%TO.N,Net-(Q1-Pad1)*%
X127250000Y-92510000D02*
X128250000Y-92510000D01*
X125687500Y-92950000D02*
X126810000Y-92950000D01*
X126810000Y-92950000D02*
X127250000Y-92510000D01*
%TO.N,GND*%
X125687500Y-94550000D02*
X126810000Y-94550000D01*
X126810000Y-94550000D02*
X127250000Y-94990000D01*
%TO.N,Net-(Q2-Pad1)*%
X127250000Y-96010000D02*
X128250000Y-96010000D01*
X125687500Y-96450000D02*
X126810000Y-96450000D01*
X126810000Y-96450000D02*
X127250000Y-96010000D01*
%TO.N,Net-(Q3-Pad1)*%
X127250000Y-99510000D02*
X128250000Y-99510000D01*
X125687500Y-99950000D02*
X126810000Y-99950000D01*
X126810000Y-99950000D02*
X127250000Y-99510000D01*
%TO.N,GND*%
X125687500Y-98050000D02*
X126810000Y-98050000D01*
X126810000Y-98050000D02*
X127250000Y-98490000D01*
%TO.N,Net-(Q4-Pad1)*%
X125812500Y-101550000D02*
X124690000Y-101550000D01*
X124690000Y-101550000D02*
X124250000Y-101990000D01*
%TO.N,Net-(Q5-Pad1)*%
X125812500Y-105050000D02*
X124690000Y-105050000D01*
X124690000Y-105050000D02*
X124250000Y-105490000D01*
%TO.N,GND*%
X125812500Y-106950000D02*
X124690000Y-106950000D01*
X124690000Y-106950000D02*
X124250000Y-106510000D01*
X125812500Y-103450000D02*
X125800000Y-103450000D01*
X124690000Y-103450000D02*
X124250000Y-103010000D01*
%TO.N,Net-(Q4-Pad1)*%
X123250000Y-101990000D02*
X124250000Y-101990000D01*
%TO.N,/ALM_MCU*%
X127687500Y-106000000D02*
X128250000Y-106000000D01*
X128250000Y-106000000D02*
X128760000Y-105490000D01*
X128760000Y-105490000D02*
X129250000Y-105490000D01*
%TO.N,Net-(Q5-Pad1)*%
X123250000Y-105490000D02*
X124250000Y-105490000D01*
%TO.N,/ALM+*%
X121750000Y-106912500D02*
X122847500Y-106912500D01*
X122847500Y-106912500D02*
X123250000Y-106510000D01*
X116950000Y-104080000D02*
X118917500Y-104080000D01*
X118917500Y-104080000D02*
X121750000Y-106912500D01*
%TO.N,/POS+*%
X116950000Y-101540000D02*
X119877500Y-101540000D01*
X119877500Y-101540000D02*
X121750000Y-103412500D01*
%TO.N,/ENA-*%
X116950000Y-99000000D02*
X120837500Y-99000000D01*
X120837500Y-99000000D02*
X121750000Y-99912500D01*
%TO.N,/DIR-*%
X116950000Y-96460000D02*
X121702500Y-96460000D01*
X121702500Y-96460000D02*
X121750000Y-96412500D01*
%TO.N,/PUL-*%
X116950000Y-93920000D02*
X117957500Y-92912500D01*
X117957500Y-92912500D02*
X121750000Y-92912500D01*
%TO.N,/SWDIO_CONN*%
X145040000Y-79710000D02*
X145040000Y-77950000D01*
X143750000Y-81000000D02*
X145040000Y-79710000D01*
X143750000Y-81740000D02*
X143750000Y-81000000D01*
%TO.N,/SWDIO*%
X146662500Y-97250000D02*
X148750000Y-97250000D01*
X148750000Y-97250000D02*
X149500000Y-96500000D01*
X149500000Y-96500000D02*
X149500000Y-90500000D01*
X149500000Y-90500000D02*
X143750000Y-84750000D01*
X143750000Y-84750000D02*
X143750000Y-82760000D01*
%TO.N,/SWCLK_CONN*%
X143770000Y-79730000D02*
X143770000Y-77950000D01*
X142500000Y-81740000D02*
X142500000Y-81000000D01*
X142500000Y-81000000D02*
X143770000Y-79730000D01*
%TO.N,/SWCLK*%
X145250000Y-94837500D02*
X145250000Y-88000000D01*
X145250000Y-88000000D02*
X142500000Y-85250000D01*
X142500000Y-85250000D02*
X142500000Y-82760000D01*
%TO.N,/NRST*%
X144250000Y-88750000D02*
X141250000Y-85750000D01*
%TO.N,/NRST_CONN*%
X141250000Y-81740000D02*
X141250000Y-81000000D01*
X141250000Y-81000000D02*
X139960000Y-79710000D01*
X139960000Y-79710000D02*
X139960000Y-77950000D01*
%TO.N,/NRST*%
X144250000Y-93250000D02*
X144250000Y-88750000D01*
X141250000Y-85750000D02*
X141250000Y-82760000D01*
X144250000Y-96250000D02*
X141250000Y-99250000D01*
X141250000Y-99250000D02*
X138337500Y-99250000D01*
%TO.N,+3V3*%
X146662500Y-96250000D02*
X147500000Y-96250000D01*
X147500000Y-96250000D02*
X148230000Y-95520000D01*
X148230000Y-95520000D02*
X148255000Y-95520000D01*
%TO.N,GND*%
X146662500Y-96750000D02*
X147985000Y-96750000D01*
X147985000Y-96750000D02*
X148255000Y-96480000D01*
%TO.N,/CAN_TX*%
X155275000Y-97095000D02*
X150580000Y-97095000D01*
X150580000Y-97095000D02*
X149925000Y-97750000D01*
X149925000Y-97750000D02*
X146662500Y-97750000D01*
%TO.N,/CAN_RX*%
X155275000Y-100905000D02*
X150405000Y-100905000D01*
X150405000Y-100905000D02*
X147750000Y-98250000D01*
X147750000Y-98250000D02*
X146662500Y-98250000D01*
%TO.N,+3V3*%
X155275000Y-99635000D02*
X153655000Y-99635000D01*
X153655000Y-99635000D02*
X153510000Y-99490000D01*
%TO.N,Net-(R24-Pad1)*%
X160225000Y-97095000D02*
X158895000Y-97095000D01*
X158895000Y-97095000D02*
X158260000Y-96460000D01*
X158260000Y-96460000D02*
X158260000Y-95750000D01*
D42*
%TO.N,/CAN-*%
X162750000Y-99510000D02*
X162760000Y-99500000D01*
X163818200Y-99500000D02*
X165225000Y-98093200D01*
X162760000Y-99500000D02*
X163818200Y-99500000D01*
X165225000Y-93093200D02*
X171343200Y-86975000D01*
X165225000Y-98093200D02*
X165225000Y-93093200D01*
X171343200Y-86975000D02*
X172181801Y-86975000D01*
X172181801Y-86975000D02*
X173095000Y-87888199D01*
X173095000Y-87888199D02*
X173095000Y-88586000D01*
%TO.N,/CAN+*%
X162750000Y-98490000D02*
X162760000Y-98500000D01*
X162760000Y-98500000D02*
X164181800Y-98500000D01*
X171156800Y-86525000D02*
X172368199Y-86525000D01*
X164181800Y-98500000D02*
X164775000Y-97906800D01*
X164775000Y-97906800D02*
X164775000Y-92906800D01*
X164775000Y-92906800D02*
X171156800Y-86525000D01*
X172368199Y-86525000D02*
X173413199Y-87570000D01*
X173413199Y-87570000D02*
X174875000Y-87570000D01*
%TO.N,/CAN-*%
X160225000Y-99635000D02*
X162615000Y-99635000D01*
X162615000Y-99635000D02*
X162745000Y-99505000D01*
%TO.N,/CAN+*%
X160225000Y-98365000D02*
X162615000Y-98365000D01*
X162615000Y-98365000D02*
X162745000Y-98495000D01*
%TO.N,/CAN-*%
X162745000Y-99505000D02*
X162750000Y-99510000D01*
%TO.N,/CAN+*%
X162745000Y-98495000D02*
X162750000Y-98490000D01*
D41*
%TO.N,/LED4*%
X167337500Y-118000000D02*
X167337500Y-114677500D01*
X167337500Y-114677500D02*
X168275000Y-113740000D01*
%TO.N,+24V*%
X169162500Y-118000000D02*
X169162500Y-116087500D01*
X169162500Y-116087500D02*
X173095000Y-112155000D01*
X173095000Y-112155000D02*
X173095000Y-110432000D01*
X136000000Y-125162500D02*
X163587500Y-125162500D01*
X163587500Y-125162500D02*
X169162500Y-119587500D01*
X169162500Y-119587500D02*
X169162500Y-118000000D01*
%TO.N,Net-(J3-Pad1)*%
X138690000Y-123300000D02*
X136037500Y-123300000D01*
X136037500Y-123300000D02*
X136000000Y-123337500D01*
%TO.N,Net-(R1-Pad1)*%
X141750000Y-94837500D02*
X141750000Y-94010000D01*
X141750000Y-94010000D02*
X143000000Y-92760000D01*
%TO.N,GND*%
X140485000Y-93250000D02*
X140485000Y-92295000D01*
X140485000Y-92295000D02*
X140765000Y-92015000D01*
X140250000Y-94837500D02*
X140250000Y-93485000D01*
X140250000Y-93485000D02*
X140485000Y-93250000D01*
%TO.N,+3V3*%
X139525000Y-93250000D02*
X139525000Y-92295000D01*
X139525000Y-92295000D02*
X139230000Y-92000000D01*
X139750000Y-94837500D02*
X139750000Y-93475000D01*
X139750000Y-93475000D02*
X139525000Y-93250000D01*
X136755000Y-96250000D02*
X138337500Y-96250000D01*
%TO.N,GND*%
X138337500Y-99750000D02*
X137471930Y-99750000D01*
X137471930Y-99750000D02*
X136761930Y-99040000D01*
X136761930Y-99040000D02*
X136755000Y-99040000D01*
%TO.N,+3V3*%
X136755000Y-100000000D02*
X137005000Y-100250000D01*
X137005000Y-100250000D02*
X138337500Y-100250000D01*
%TO.N,/DIR_MCU*%
X138337500Y-101250000D02*
X135000000Y-101250000D01*
X135000000Y-101250000D02*
X128740000Y-94990000D01*
X128740000Y-94990000D02*
X128250000Y-94990000D01*
%TO.N,/ENA_MCU*%
X138337500Y-101750000D02*
X137250000Y-101750000D01*
X137250000Y-101750000D02*
X136750000Y-102250000D01*
X136750000Y-102250000D02*
X134000000Y-102250000D01*
X134000000Y-102250000D02*
X130240000Y-98490000D01*
X130240000Y-98490000D02*
X128250000Y-98490000D01*
%TO.N,/PUL_MCU*%
X138337500Y-100750000D02*
X136250000Y-100750000D01*
X136250000Y-100750000D02*
X130750000Y-95250000D01*
X130750000Y-95250000D02*
X130750000Y-92750000D01*
X130750000Y-92750000D02*
X129490000Y-91490000D01*
X129490000Y-91490000D02*
X128250000Y-91490000D01*
%TO.N,/ALM_MCU*%
X140250000Y-103162500D02*
X140250000Y-104750000D01*
X140250000Y-104750000D02*
X139510000Y-105490000D01*
X139510000Y-105490000D02*
X129250000Y-105490000D01*
%TO.N,/POS_MCU*%
X139750000Y-103162500D02*
X131912500Y-103162500D01*
X131912500Y-103162500D02*
X130740000Y-101990000D01*
X130740000Y-101990000D02*
X129250000Y-101990000D01*
%TO.N,+3V3*%
X145250000Y-103162500D02*
X145250000Y-104515000D01*
X145250000Y-104515000D02*
X145485000Y-104750000D01*
%TO.N,GND*%
X144750000Y-103162500D02*
X144750000Y-104525000D01*
X144750000Y-104525000D02*
X144525000Y-104750000D01*
%TO.N,/HOME*%
X141990000Y-107240000D02*
X140750000Y-106000000D01*
X141990000Y-118000000D02*
X141990000Y-107240000D01*
X140750000Y-106000000D02*
X140750000Y-103162500D01*
%TO.N,Net-(C11-Pad1)*%
X143010000Y-118000000D02*
X143010000Y-118970000D01*
X143010000Y-118970000D02*
X142980000Y-119000000D01*
X142980000Y-119000000D02*
X142980000Y-122510000D01*
X142980000Y-122510000D02*
X143770000Y-123300000D01*
%TD*%
%TA.AperFunction,Conductor*%
%TO.N,Net-(C8-Pad2)*%
G36*
X155442121Y-84270002D02*
G01*
X155488614Y-84323658D01*
X155500000Y-84376000D01*
X155500000Y-85956373D01*
X155479998Y-86024494D01*
X155475351Y-86031232D01*
X155402961Y-86129239D01*
X155402957Y-86129246D01*
X155397366Y-86136816D01*
X155352481Y-86264631D01*
X155349500Y-86296166D01*
X155349500Y-87428834D01*
X155352481Y-87460369D01*
X155355026Y-87467616D01*
X155395283Y-87582252D01*
X155398981Y-87653152D01*
X155363761Y-87714797D01*
X155300805Y-87747614D01*
X155276400Y-87750000D01*
X154723600Y-87750000D01*
X154655479Y-87729998D01*
X154608986Y-87676342D01*
X154598882Y-87606068D01*
X154604717Y-87582252D01*
X154644974Y-87467616D01*
X154647519Y-87460369D01*
X154650500Y-87428834D01*
X154650500Y-86296166D01*
X154647519Y-86264631D01*
X154602634Y-86136816D01*
X154597042Y-86129246D01*
X154597041Y-86129243D01*
X154527742Y-86035421D01*
X154522150Y-86027850D01*
X154517347Y-86024303D01*
X154514272Y-86019120D01*
X154500000Y-86006753D01*
X154500000Y-86000000D01*
X154492206Y-86000000D01*
X154485126Y-85993865D01*
X154461898Y-85983347D01*
X154420757Y-85952959D01*
X154420754Y-85952958D01*
X154413184Y-85947366D01*
X154285369Y-85902481D01*
X154277723Y-85901758D01*
X154277722Y-85901758D01*
X154271752Y-85901194D01*
X154253834Y-85899500D01*
X153846166Y-85899500D01*
X153828248Y-85901194D01*
X153822278Y-85901758D01*
X153822277Y-85901758D01*
X153814631Y-85902481D01*
X153686816Y-85947366D01*
X153679246Y-85952958D01*
X153679243Y-85952959D01*
X153648928Y-85975351D01*
X153582250Y-85999734D01*
X153574068Y-86000000D01*
X152626000Y-86000000D01*
X152557879Y-85979998D01*
X152511386Y-85926342D01*
X152500000Y-85874000D01*
X152500000Y-84376000D01*
X152520002Y-84307879D01*
X152573658Y-84261386D01*
X152626000Y-84250000D01*
X155374000Y-84250000D01*
X155442121Y-84270002D01*
G37*
%TD.AperFunction*%
%TD*%
%TA.AperFunction,Conductor*%
%TO.N,+3V3*%
G36*
X160442121Y-77770002D02*
G01*
X160488614Y-77823658D01*
X160500000Y-77876000D01*
X160500000Y-83124000D01*
X160479998Y-83192121D01*
X160426342Y-83238614D01*
X160374000Y-83250000D01*
X152626000Y-83250000D01*
X152557879Y-83229998D01*
X152511386Y-83176342D01*
X152500000Y-83124000D01*
X152500000Y-77876000D01*
X152520002Y-77807879D01*
X152573658Y-77761386D01*
X152626000Y-77750000D01*
X160374000Y-77750000D01*
X160442121Y-77770002D01*
G37*
%TD.AperFunction*%
%TD*%
%TA.AperFunction,Conductor*%
%TO.N,/STATUS*%
G36*
X157284648Y-105284648D02*
G01*
X157916352Y-105916352D01*
X157930704Y-105951000D01*
X157916352Y-105985648D01*
X157881704Y-106000000D01*
X156618296Y-106000000D01*
X156583648Y-105985648D01*
X156569296Y-105951000D01*
X156583648Y-105916352D01*
X157215352Y-105284648D01*
X157250000Y-105270296D01*
X157284648Y-105284648D01*
G37*
%TD.AperFunction*%
%TD*%
%TA.AperFunction,Conductor*%
%TO.N,+24V*%
G36*
X158692121Y-88270002D02*
G01*
X158738614Y-88323658D01*
X158750000Y-88376000D01*
X158750000Y-89874000D01*
X158729998Y-89942121D01*
X158676342Y-89988614D01*
X158624000Y-90000000D01*
X154732379Y-90000000D01*
X154664258Y-89979998D01*
X154617765Y-89926342D01*
X154607661Y-89856068D01*
X154613497Y-89832251D01*
X154644973Y-89742620D01*
X154644974Y-89742617D01*
X154647519Y-89735369D01*
X154650500Y-89703834D01*
X154650500Y-88571166D01*
X154647519Y-88539631D01*
X154604717Y-88417747D01*
X154601019Y-88346848D01*
X154636239Y-88285203D01*
X154699195Y-88252386D01*
X154723600Y-88250000D01*
X158624000Y-88250000D01*
X158692121Y-88270002D01*
G37*
%TD.AperFunction*%
%TD*%
%TA.AperFunction,Conductor*%
%TO.N,GND*%
G36*
X160942121Y-84270002D02*
G01*
X160988614Y-84323658D01*
X161000000Y-84376000D01*
X161000000Y-87624000D01*
X160979998Y-87692121D01*
X160926342Y-87738614D01*
X160874000Y-87750000D01*
X155824040Y-87750000D01*
X155755919Y-87729998D01*
X155709426Y-87676342D01*
X155698211Y-87630563D01*
X155695110Y-87571120D01*
X155694876Y-87566626D01*
X155678337Y-87482851D01*
X155656617Y-87421001D01*
X155649500Y-87379253D01*
X155649500Y-86345745D01*
X155656617Y-86303999D01*
X155659199Y-86296646D01*
X155676728Y-86263537D01*
X155716663Y-86209470D01*
X155717286Y-86208597D01*
X155722016Y-86201971D01*
X155722049Y-86201924D01*
X155722313Y-86201554D01*
X155726960Y-86194816D01*
X155767846Y-86109013D01*
X155787848Y-86040892D01*
X155789755Y-86027631D01*
X155799361Y-85960819D01*
X155799361Y-85960816D01*
X155800000Y-85956373D01*
X155800000Y-84376000D01*
X155820002Y-84307879D01*
X155873658Y-84261386D01*
X155926000Y-84250000D01*
X160874000Y-84250000D01*
X160942121Y-84270002D01*
G37*
%TD.AperFunction*%
%TD*%
M02*
