%TF.GenerationSoftware,KiCad,Pcbnew,(6.0.1-0)*%
%TF.CreationDate,2022-12-13T14:32:30+01:00*%
%TF.ProjectId,CAN_Steppermodul,43414e5f-5374-4657-9070-65726d6f6475,rev?*%
%TF.SameCoordinates,Original*%
%TF.FileFunction,Copper,L4,Bot*%
%TF.FilePolarity,Positive*%
%FSLAX46Y46*%
G04 Gerber Fmt 4.6, Leading zero omitted, Abs format (unit mm)*
G04 Created by KiCad (PCBNEW (6.0.1-0)) date 2022-12-13 14:32:30*
%MOMM*%
%LPD*%
G01*
G04 APERTURE LIST*
%TA.AperFunction,ComponentPad*%
%ADD10C,8.600000*%
%TD*%
%TA.AperFunction,ComponentPad*%
%ADD11C,0.900000*%
%TD*%
%TA.AperFunction,ComponentPad*%
%ADD12C,1.400000*%
%TD*%
%TA.AperFunction,ComponentPad*%
%ADD13C,2.300000*%
%TD*%
%TA.AperFunction,ComponentPad*%
%ADD14C,1.500000*%
%TD*%
%TA.AperFunction,ComponentPad*%
%ADD15R,1.500000X1.500000*%
%TD*%
%TA.AperFunction,ComponentPad*%
%ADD16C,1.508000*%
%TD*%
%TA.AperFunction,ViaPad*%
%ADD17C,0.800000*%
%TD*%
%TA.AperFunction,ViaPad*%
%ADD18C,0.600000*%
%TD*%
%TA.AperFunction,Conductor*%
%ADD19C,1.000000*%
%TD*%
%TA.AperFunction,Conductor*%
%ADD20C,0.250000*%
%TD*%
%TA.AperFunction,Conductor*%
%ADD21C,0.200000*%
%TD*%
G04 APERTURE END LIST*
D10*
%TO.P,H4,1,1*%
%TO.N,GND*%
X178000000Y-76000000D03*
D11*
X178000000Y-79225000D03*
X175719581Y-78280419D03*
X180280419Y-73719581D03*
X180280419Y-78280419D03*
X174775000Y-76000000D03*
X175719581Y-73719581D03*
X178000000Y-72775000D03*
X181225000Y-76000000D03*
%TD*%
D10*
%TO.P,H3,1,1*%
%TO.N,GND*%
X118000000Y-76000000D03*
D11*
X118000000Y-79225000D03*
X115719581Y-78280419D03*
X120280419Y-73719581D03*
X120280419Y-78280419D03*
X114775000Y-76000000D03*
X115719581Y-73719581D03*
X118000000Y-72775000D03*
X121225000Y-76000000D03*
%TD*%
D10*
%TO.P,H2,1,1*%
%TO.N,GND*%
X118000000Y-122000000D03*
D11*
X118000000Y-125225000D03*
X115719581Y-124280419D03*
X120280419Y-119719581D03*
X120280419Y-124280419D03*
X114775000Y-122000000D03*
X115719581Y-119719581D03*
X118000000Y-118775000D03*
X121225000Y-122000000D03*
%TD*%
D10*
%TO.P,H1,1,1*%
%TO.N,GND*%
X178000000Y-122000000D03*
D11*
X178000000Y-125225000D03*
X175719581Y-124280419D03*
X180280419Y-119719581D03*
X180280419Y-124280419D03*
X174775000Y-122000000D03*
X175719581Y-119719581D03*
X178000000Y-118775000D03*
X181225000Y-122000000D03*
%TD*%
D12*
%TO.P,TP3,1,1*%
%TO.N,GND*%
X162750000Y-104000000D03*
%TO.P,TP3,2,2*%
%TO.N,/CAN-*%
X162750000Y-101460000D03*
%TD*%
%TO.P,TP2,1,1*%
%TO.N,GND*%
X162750000Y-94000000D03*
%TO.P,TP2,2,2*%
%TO.N,/CAN+*%
X162750000Y-96540000D03*
%TD*%
%TO.P,TP1,1,1*%
%TO.N,GND*%
X154460000Y-76460000D03*
%TO.P,TP1,2,2*%
%TO.N,+3V3*%
X154460000Y-79000000D03*
%TD*%
D13*
%TO.P,J4,SH*%
%TO.N,GND*%
X173985000Y-83000000D03*
X173985000Y-115000000D03*
D14*
%TO.P,J4,24*%
%TO.N,/LED4*%
X168275000Y-113740000D03*
%TO.P,J4,23*%
%TO.N,GND*%
X168275000Y-111450000D03*
%TO.P,J4,22*%
%TO.N,/LED3*%
X168275000Y-102310000D03*
%TO.P,J4,21*%
%TO.N,GND*%
X168275000Y-100020000D03*
%TO.P,J4,20*%
%TO.N,+24V*%
X173095000Y-110432000D03*
%TO.P,J4,19*%
%TO.N,GND*%
X174875000Y-109416000D03*
%TO.P,J4,18*%
X173095000Y-108400000D03*
%TO.P,J4,17*%
%TO.N,unconnected-(J4-Pad17)*%
X174875000Y-107384000D03*
%TO.P,J4,16*%
%TO.N,unconnected-(J4-Pad16)*%
X173095000Y-106368000D03*
%TO.P,J4,15*%
%TO.N,GND*%
X174875000Y-105352000D03*
%TO.P,J4,14*%
%TO.N,/CAN-*%
X173095000Y-104336000D03*
%TO.P,J4,13*%
%TO.N,/CAN+*%
X174875000Y-103320000D03*
%TO.P,J4,12*%
%TO.N,/LED2*%
X168275000Y-97990000D03*
%TO.P,J4,11*%
%TO.N,GND*%
X168275000Y-95700000D03*
%TO.P,J4,10*%
%TO.N,/LED1*%
X168275000Y-86560000D03*
%TO.P,J4,9*%
%TO.N,GND*%
X168275000Y-84270000D03*
%TO.P,J4,8*%
%TO.N,+24V*%
X173095000Y-94682000D03*
%TO.P,J4,7*%
%TO.N,GND*%
X174875000Y-93666000D03*
%TO.P,J4,6*%
X173095000Y-92650000D03*
%TO.P,J4,5*%
%TO.N,unconnected-(J4-Pad5)*%
X174875000Y-91634000D03*
%TO.P,J4,4*%
%TO.N,unconnected-(J4-Pad4)*%
X173095000Y-90618000D03*
%TO.P,J4,3*%
%TO.N,GND*%
X174875000Y-89602000D03*
%TO.P,J4,2*%
%TO.N,/CAN-*%
X173095000Y-88586000D03*
D15*
%TO.P,J4,1*%
%TO.N,/CAN+*%
X174875000Y-87570000D03*
%TD*%
D16*
%TO.P,J3,4,Pin_4*%
%TO.N,GND*%
X146310000Y-123300000D03*
%TO.P,J3,3,Pin_3*%
%TO.N,Net-(C11-Pad1)*%
X143770000Y-123300000D03*
%TO.P,J3,2,Pin_2*%
%TO.N,GND*%
X141230000Y-123300000D03*
%TO.P,J3,1,Pin_1*%
%TO.N,Net-(J3-Pad1)*%
X138690000Y-123300000D03*
%TD*%
%TO.P,J2,7,Pin_7*%
%TO.N,GND*%
X116950000Y-106620000D03*
%TO.P,J2,6,Pin_6*%
%TO.N,/ALM+*%
X116950000Y-104080000D03*
%TO.P,J2,5,Pin_5*%
%TO.N,/POS+*%
X116950000Y-101540000D03*
%TO.P,J2,4,Pin_4*%
%TO.N,/ENA-*%
X116950000Y-99000000D03*
%TO.P,J2,3,Pin_3*%
%TO.N,/DIR-*%
X116950000Y-96460000D03*
%TO.P,J2,2,Pin_2*%
%TO.N,/PUL-*%
X116950000Y-93920000D03*
%TO.P,J2,1,Pin_1*%
%TO.N,+24V*%
X116950000Y-91380000D03*
%TD*%
D17*
%TO.N,GND*%
X180000000Y-116000000D03*
X180000000Y-114000000D03*
X180000000Y-112000000D03*
X180000000Y-110000000D03*
X180000000Y-108000000D03*
X180000000Y-106000000D03*
X180000000Y-104000000D03*
X180000000Y-102000000D03*
X180000000Y-100000000D03*
X180000000Y-98000000D03*
X180000000Y-96000000D03*
X178000000Y-116000000D03*
X178000000Y-90000000D03*
X178000000Y-88000000D03*
X174000000Y-118000000D03*
X174000000Y-100000000D03*
X172000000Y-124000000D03*
X172000000Y-122000000D03*
X172000000Y-120000000D03*
X172000000Y-118000000D03*
X172000000Y-100000000D03*
X172000000Y-78000000D03*
X172000000Y-76000000D03*
X172000000Y-74000000D03*
X170000000Y-124000000D03*
X170000000Y-122000000D03*
X170000000Y-112000000D03*
X170000000Y-100000000D03*
X170000000Y-96000000D03*
X170000000Y-78000000D03*
X170000000Y-76000000D03*
X170000000Y-74000000D03*
X168000000Y-124000000D03*
X168000000Y-94000000D03*
X168000000Y-82000000D03*
X168000000Y-80000000D03*
X168000000Y-78000000D03*
X168000000Y-76000000D03*
X168000000Y-74000000D03*
X166000000Y-120000000D03*
X166000000Y-116000000D03*
X166000000Y-114000000D03*
X166000000Y-112000000D03*
X166000000Y-86000000D03*
X166000000Y-84000000D03*
X166000000Y-82000000D03*
X166000000Y-80000000D03*
X166000000Y-78000000D03*
X166000000Y-76000000D03*
X166000000Y-74000000D03*
X164000000Y-122000000D03*
X164000000Y-120000000D03*
X164000000Y-118000000D03*
X164000000Y-116000000D03*
X164000000Y-114000000D03*
X164000000Y-112000000D03*
X164000000Y-88000000D03*
X164000000Y-86000000D03*
X164000000Y-84000000D03*
X164000000Y-82000000D03*
X164000000Y-80000000D03*
X164000000Y-78000000D03*
X164000000Y-76000000D03*
X164000000Y-74000000D03*
X162000000Y-124000000D03*
X162000000Y-122000000D03*
X162000000Y-120000000D03*
X162000000Y-118000000D03*
X162000000Y-116000000D03*
X162000000Y-114000000D03*
X162000000Y-112000000D03*
X162000000Y-88000000D03*
X162000000Y-86000000D03*
X162000000Y-84000000D03*
X162000000Y-82000000D03*
X162000000Y-80000000D03*
X162000000Y-78000000D03*
X162000000Y-76000000D03*
X162000000Y-74000000D03*
X160000000Y-124000000D03*
X160000000Y-122000000D03*
X160000000Y-120000000D03*
X160000000Y-118000000D03*
X160000000Y-116000000D03*
X160000000Y-114000000D03*
X160000000Y-112000000D03*
X160000000Y-104000000D03*
X160000000Y-76000000D03*
X160000000Y-74000000D03*
X158000000Y-124000000D03*
X158000000Y-122000000D03*
X158000000Y-120000000D03*
X158000000Y-118000000D03*
X158000000Y-116000000D03*
X158000000Y-114000000D03*
X158000000Y-112000000D03*
X158000000Y-76000000D03*
X158000000Y-74000000D03*
X156000000Y-124000000D03*
X156000000Y-122000000D03*
X156000000Y-120000000D03*
X156000000Y-118000000D03*
X156000000Y-116000000D03*
X156000000Y-114000000D03*
X156000000Y-112000000D03*
X156000000Y-104000000D03*
X156000000Y-94000000D03*
X156000000Y-92000000D03*
X156000000Y-74000000D03*
X154000000Y-124000000D03*
X154000000Y-122000000D03*
X154000000Y-120000000D03*
X154000000Y-118000000D03*
X154000000Y-116000000D03*
X154000000Y-114000000D03*
X154000000Y-112000000D03*
X154000000Y-104000000D03*
X154000000Y-94000000D03*
X154000000Y-92000000D03*
X154000000Y-74000000D03*
X152000000Y-124000000D03*
X152000000Y-122000000D03*
X152000000Y-120000000D03*
X152000000Y-118000000D03*
X152000000Y-116000000D03*
X152000000Y-114000000D03*
X152000000Y-112000000D03*
X152000000Y-104000000D03*
X152000000Y-102000000D03*
X152000000Y-96000000D03*
X152000000Y-94000000D03*
X152000000Y-92000000D03*
X152000000Y-76000000D03*
X152000000Y-74000000D03*
X150000000Y-124000000D03*
X150000000Y-122000000D03*
X150000000Y-120000000D03*
X150000000Y-118000000D03*
X150000000Y-116000000D03*
X150000000Y-114000000D03*
X150000000Y-112000000D03*
X150000000Y-76000000D03*
X150000000Y-74000000D03*
X148000000Y-124000000D03*
X148000000Y-122000000D03*
X148000000Y-120000000D03*
X148000000Y-118000000D03*
X148000000Y-116000000D03*
X148000000Y-114000000D03*
X148000000Y-112000000D03*
X148000000Y-94000000D03*
X148000000Y-92000000D03*
X148000000Y-86000000D03*
X148000000Y-84000000D03*
X148000000Y-82000000D03*
X148000000Y-76000000D03*
X148000000Y-74000000D03*
X146000000Y-120000000D03*
X146000000Y-118000000D03*
X146000000Y-116000000D03*
X146000000Y-114000000D03*
X146000000Y-112000000D03*
X146000000Y-84000000D03*
X146000000Y-82000000D03*
X144000000Y-116000000D03*
X144000000Y-114000000D03*
X144000000Y-100000000D03*
X142000000Y-90000000D03*
X140000000Y-120000000D03*
X140000000Y-118000000D03*
X140000000Y-98000000D03*
X140000000Y-90000000D03*
X140000000Y-88000000D03*
X140000000Y-86000000D03*
X140000000Y-84000000D03*
X140000000Y-82000000D03*
X138000000Y-120000000D03*
X138000000Y-112000000D03*
X138000000Y-94000000D03*
X138000000Y-90000000D03*
X138000000Y-88000000D03*
X138000000Y-86000000D03*
X138000000Y-84000000D03*
X138000000Y-78000000D03*
X138000000Y-76000000D03*
X138000000Y-74000000D03*
X136000000Y-114000000D03*
X136000000Y-112000000D03*
X136000000Y-94000000D03*
X136000000Y-90000000D03*
X136000000Y-88000000D03*
X136000000Y-86000000D03*
X136000000Y-80000000D03*
X136000000Y-78000000D03*
X136000000Y-76000000D03*
X136000000Y-74000000D03*
X134000000Y-124000000D03*
X134000000Y-122000000D03*
X134000000Y-120000000D03*
X134000000Y-118000000D03*
X134000000Y-116000000D03*
X134000000Y-114000000D03*
X134000000Y-112000000D03*
X134000000Y-82000000D03*
X134000000Y-80000000D03*
X134000000Y-78000000D03*
X134000000Y-76000000D03*
X134000000Y-74000000D03*
X132000000Y-124000000D03*
X132000000Y-122000000D03*
X132000000Y-120000000D03*
X132000000Y-118000000D03*
X132000000Y-116000000D03*
X132000000Y-114000000D03*
X132000000Y-112000000D03*
X132000000Y-84000000D03*
X132000000Y-82000000D03*
X132000000Y-80000000D03*
X132000000Y-78000000D03*
X132000000Y-76000000D03*
X132000000Y-74000000D03*
X130000000Y-124000000D03*
X130000000Y-122000000D03*
X130000000Y-120000000D03*
X130000000Y-118000000D03*
X130000000Y-116000000D03*
X130000000Y-114000000D03*
X130000000Y-112000000D03*
X130000000Y-90000000D03*
X130000000Y-88000000D03*
X130000000Y-86000000D03*
X130000000Y-84000000D03*
X130000000Y-82000000D03*
X130000000Y-80000000D03*
X130000000Y-78000000D03*
X130000000Y-76000000D03*
X130000000Y-74000000D03*
X128000000Y-124000000D03*
X128000000Y-122000000D03*
X128000000Y-120000000D03*
X128000000Y-118000000D03*
X128000000Y-116000000D03*
X128000000Y-114000000D03*
X128000000Y-112000000D03*
X128000000Y-88000000D03*
X128000000Y-86000000D03*
X128000000Y-84000000D03*
X128000000Y-82000000D03*
X128000000Y-80000000D03*
X128000000Y-78000000D03*
X128000000Y-76000000D03*
X128000000Y-74000000D03*
X126000000Y-124000000D03*
X126000000Y-122000000D03*
X126000000Y-120000000D03*
X126000000Y-118000000D03*
X126000000Y-116000000D03*
X126000000Y-114000000D03*
X126000000Y-112000000D03*
X126000000Y-88000000D03*
X126000000Y-86000000D03*
X126000000Y-84000000D03*
X126000000Y-82000000D03*
X126000000Y-80000000D03*
X126000000Y-78000000D03*
X126000000Y-76000000D03*
X126000000Y-74000000D03*
X124000000Y-124000000D03*
X124000000Y-122000000D03*
X124000000Y-120000000D03*
X124000000Y-118000000D03*
X124000000Y-116000000D03*
X124000000Y-114000000D03*
X124000000Y-112000000D03*
X124000000Y-94000000D03*
X124000000Y-90000000D03*
X124000000Y-88000000D03*
X124000000Y-86000000D03*
X124000000Y-84000000D03*
X124000000Y-82000000D03*
X124000000Y-80000000D03*
X124000000Y-78000000D03*
X124000000Y-76000000D03*
X124000000Y-74000000D03*
X122000000Y-118000000D03*
X122000000Y-116000000D03*
X122000000Y-114000000D03*
X122000000Y-112000000D03*
X122000000Y-88000000D03*
X122000000Y-86000000D03*
X122000000Y-84000000D03*
X122000000Y-82000000D03*
X122000000Y-80000000D03*
X120000000Y-116000000D03*
X120000000Y-114000000D03*
X120000000Y-112000000D03*
X120000000Y-110000000D03*
X120000000Y-90000000D03*
X120000000Y-88000000D03*
X120000000Y-86000000D03*
X120000000Y-84000000D03*
X120000000Y-82000000D03*
X118000000Y-116000000D03*
X118000000Y-114000000D03*
X118000000Y-112000000D03*
X118000000Y-110000000D03*
X118000000Y-88000000D03*
X118000000Y-86000000D03*
X118000000Y-84000000D03*
X118000000Y-82000000D03*
X116000000Y-116000000D03*
X116000000Y-114000000D03*
X116000000Y-112000000D03*
X116000000Y-110000000D03*
X116000000Y-88000000D03*
X116000000Y-86000000D03*
X116000000Y-84000000D03*
X116000000Y-82000000D03*
D18*
X142000000Y-119000000D03*
X124250000Y-106510000D03*
X124250000Y-103010000D03*
X127250000Y-98490000D03*
X127250000Y-94990000D03*
X127250000Y-91490000D03*
X140000000Y-74250000D03*
X142500000Y-74250000D03*
X143750000Y-74250000D03*
%TO.N,+3V3*%
X145000000Y-74250000D03*
X136755000Y-100000000D03*
%TO.N,GND*%
X136755000Y-99040000D03*
X136750000Y-97250000D03*
%TO.N,+3V3*%
X136755000Y-96250000D03*
X129250000Y-103000000D03*
X129250000Y-106500000D03*
%TO.N,GND*%
X144525000Y-104750000D03*
%TO.N,+3V3*%
X145485000Y-104750000D03*
X154000000Y-82600000D03*
X159500000Y-82000000D03*
X157000000Y-82000000D03*
X139230000Y-92000000D03*
%TO.N,GND*%
X140765000Y-92015000D03*
X143000000Y-91750000D03*
%TO.N,+24V*%
X170500000Y-80250000D03*
%TO.N,GND*%
X159500000Y-87000000D03*
X159500000Y-86000000D03*
X158250000Y-86000000D03*
X157000000Y-86000000D03*
X157750000Y-87000000D03*
X159500000Y-85000000D03*
X158250000Y-85000000D03*
X157000000Y-85000000D03*
%TO.N,+24V*%
X157750000Y-89000000D03*
%TO.N,GND*%
X159250000Y-95750000D03*
%TO.N,+3V3*%
X148255000Y-95520000D03*
%TO.N,GND*%
X148255000Y-96480000D03*
%TO.N,+3V3*%
X153510000Y-99490000D03*
%TO.N,GND*%
X153510000Y-98510000D03*
%TO.N,/CAN+*%
X162750000Y-98500000D03*
%TO.N,/CAN-*%
X162745000Y-99505000D03*
%TO.N,+24V*%
X136000000Y-125162500D03*
X121750000Y-101500000D03*
X121750000Y-105000000D03*
D17*
%TO.N,+3V3*%
X154500000Y-81000000D03*
X156250000Y-80500000D03*
X157750000Y-80500000D03*
X159250000Y-80500000D03*
X159250000Y-79000000D03*
X157750000Y-79000000D03*
X156250000Y-79000000D03*
%TO.N,/NRST*%
X144250000Y-96250000D03*
X144250000Y-93250000D03*
%TD*%
D19*
%TO.N,+3V3*%
X133000000Y-92000000D02*
X133000000Y-96500000D01*
X133000000Y-86000000D02*
X133000000Y-92000000D01*
X133000000Y-92000000D02*
X139230000Y-92000000D01*
X154460000Y-79000000D02*
X144750000Y-79000000D01*
X145000000Y-78750000D02*
X144750000Y-79000000D01*
X144750000Y-79000000D02*
X140000000Y-79000000D01*
X145000000Y-74250000D02*
X145000000Y-78750000D01*
X133000000Y-96500000D02*
X133000000Y-100000000D01*
X133250000Y-96250000D02*
X136755000Y-96250000D01*
X133000000Y-96500000D02*
X133250000Y-96250000D01*
X133000000Y-100000000D02*
X133000000Y-103000000D01*
X133039511Y-100039511D02*
X136755000Y-100039511D01*
X133000000Y-100000000D02*
X133039511Y-100039511D01*
X133000000Y-103000000D02*
X133000000Y-106500000D01*
X133000000Y-103000000D02*
X129250000Y-103000000D01*
X140000000Y-79000000D02*
X133000000Y-86000000D01*
X133000000Y-106500000D02*
X129250000Y-106500000D01*
X150250000Y-95500000D02*
X150250000Y-99750000D01*
X150250000Y-83500000D02*
X150250000Y-95500000D01*
X150250000Y-95500000D02*
X150230489Y-95480489D01*
X150230489Y-95480489D02*
X148255000Y-95480489D01*
X150250000Y-99750000D02*
X150250000Y-104750000D01*
X150250000Y-99750000D02*
X150490489Y-99509511D01*
X150490489Y-99509511D02*
X153510000Y-99509511D01*
X150250000Y-104750000D02*
X145524511Y-104750000D01*
%TO.N,+24V*%
X170500000Y-80250000D02*
X170500000Y-91000000D01*
X170500000Y-91000000D02*
X159750000Y-91000000D01*
X159750000Y-91000000D02*
X157750000Y-89000000D01*
X119250000Y-105250000D02*
X119250000Y-101250000D01*
D20*
X119500000Y-101500000D02*
X119250000Y-101250000D01*
D19*
X119250000Y-101250000D02*
X119250000Y-93680000D01*
D20*
X121750000Y-101500000D02*
X119500000Y-101500000D01*
D19*
X119250000Y-106250000D02*
X119250000Y-105250000D01*
D20*
X121750000Y-105000000D02*
X119500000Y-105000000D01*
X119500000Y-105000000D02*
X119250000Y-105250000D01*
D19*
X136000000Y-125162500D02*
X136000000Y-117750000D01*
X136000000Y-117750000D02*
X145000000Y-108750000D01*
X145000000Y-108750000D02*
X121750000Y-108750000D01*
X121750000Y-108750000D02*
X119250000Y-106250000D01*
X119250000Y-93680000D02*
X116950000Y-91380000D01*
X170500000Y-91000000D02*
X170500000Y-93147660D01*
X170500000Y-93147660D02*
X172034340Y-94682000D01*
X172034340Y-94682000D02*
X173095000Y-94682000D01*
X145000000Y-108750000D02*
X171413000Y-108750000D01*
X171413000Y-108750000D02*
X171645489Y-108982489D01*
X171645489Y-108982489D02*
X171645489Y-109000408D01*
X171645489Y-109000408D02*
X173077081Y-110432000D01*
X173077081Y-110432000D02*
X173095000Y-110432000D01*
X173095000Y-94682000D02*
X178250000Y-99837000D01*
X178250000Y-99837000D02*
X178250000Y-108500000D01*
X178250000Y-108500000D02*
X175500000Y-111250000D01*
X175500000Y-111250000D02*
X173913000Y-111250000D01*
X173913000Y-111250000D02*
X173095000Y-110432000D01*
%TO.N,+3V3*%
X154500000Y-81000000D02*
X153750000Y-81750000D01*
X153750000Y-81750000D02*
X152000000Y-81750000D01*
X152000000Y-81750000D02*
X150250000Y-83500000D01*
D20*
%TO.N,/NRST*%
X144250000Y-96250000D02*
X144250000Y-93250000D01*
D21*
%TO.N,/CAN-*%
X162745000Y-99505000D02*
X162745000Y-101455000D01*
X162745000Y-101455000D02*
X162750000Y-101460000D01*
%TO.N,/CAN+*%
X162745000Y-98495000D02*
X162745000Y-96545000D01*
X162745000Y-96545000D02*
X162750000Y-96540000D01*
%TO.N,/CAN-*%
X173095000Y-104336000D02*
X173095000Y-103163200D01*
X173095000Y-103163200D02*
X172656800Y-102725000D01*
X168843200Y-105475000D02*
X167156800Y-105475000D01*
X171593200Y-102725000D02*
X168843200Y-105475000D01*
X172656800Y-102725000D02*
X171593200Y-102725000D01*
X167156800Y-105475000D02*
X164775000Y-103093200D01*
X164775000Y-103093200D02*
X164775000Y-100093200D01*
X164775000Y-100093200D02*
X164186800Y-99505000D01*
X164186800Y-99505000D02*
X162745000Y-99505000D01*
%TO.N,/CAN+*%
X174875000Y-103320000D02*
X173888200Y-103320000D01*
X173888200Y-103320000D02*
X172843200Y-102275000D01*
X172843200Y-102275000D02*
X171406800Y-102275000D01*
X171406800Y-102275000D02*
X168656800Y-105025000D01*
X168656800Y-105025000D02*
X167343200Y-105025000D01*
X167343200Y-105025000D02*
X165225000Y-102906800D01*
X162750000Y-98500000D02*
X162745000Y-98495000D01*
X165225000Y-102906800D02*
X165225000Y-99906800D01*
X165225000Y-99906800D02*
X163818200Y-98500000D01*
X163818200Y-98500000D02*
X162750000Y-98500000D01*
%TD*%
%TA.AperFunction,Conductor*%
%TO.N,+3V3*%
G36*
X160442121Y-77770002D02*
G01*
X160488614Y-77823658D01*
X160500000Y-77876000D01*
X160500000Y-83124000D01*
X160479998Y-83192121D01*
X160426342Y-83238614D01*
X160374000Y-83250000D01*
X152626000Y-83250000D01*
X152557879Y-83229998D01*
X152511386Y-83176342D01*
X152500000Y-83124000D01*
X152500000Y-77876000D01*
X152520002Y-77807879D01*
X152573658Y-77761386D01*
X152626000Y-77750000D01*
X160374000Y-77750000D01*
X160442121Y-77770002D01*
G37*
%TD.AperFunction*%
%TD*%
M02*
