M48
; DRILL file {KiCad (6.0.1-0)} date 2022 December 13, Tuesday 14:32:30
; FORMAT={-:-/ absolute / inch / decimal}
; #@! TF.CreationDate,2022-12-13T14:32:30+01:00
; #@! TF.GenerationSoftware,Kicad,Pcbnew,(6.0.1-0)
; #@! TF.FileFunction,Plated,1,4,PTH
FMAT,2
INCH
; #@! TA.AperFunction,Plated,PTH,ViaDrill
T1C0.0118
; #@! TA.AperFunction,Plated,PTH,ViaDrill
T2C0.0157
; #@! TA.AperFunction,Plated,PTH,ComponentDrill
T3C0.0236
; #@! TA.AperFunction,Plated,PTH,ComponentDrill
T4C0.0315
; #@! TA.AperFunction,Plated,PTH,ComponentDrill
T5C0.0350
; #@! TA.AperFunction,Plated,PTH,ComponentDrill
T6C0.0394
; #@! TA.AperFunction,Plated,PTH,ComponentDrill
T7C0.0618
; #@! TA.AperFunction,Plated,PTH,ComponentDrill
T8C0.1693
%
G90
G05
T1
X4.7933Y-3.9961
X4.7933Y-4.1339
X4.8917Y-4.0555
X4.8917Y-4.1933
X5.0098Y-3.602
X5.0098Y-3.7398
X5.0098Y-3.8776
X5.0886Y-4.0551
X5.0886Y-4.1929
X5.3543Y-4.9277
X5.3839Y-3.8287
X5.3841Y-3.7894
X5.3841Y-3.8992
X5.3841Y-3.937
X5.4815Y-3.622
X5.5118Y-2.9232
X5.5419Y-3.6226
X5.5906Y-4.685
X5.6102Y-2.9232
X5.6299Y-3.6122
X5.6594Y-2.9232
X5.69Y-4.124
X5.7087Y-2.9232
X5.7278Y-4.124
X5.8368Y-3.7606
X5.8368Y-3.7984
X6.0437Y-3.8783
X6.0437Y-3.9169
X6.063Y-3.252
X6.1811Y-3.2283
X6.1811Y-3.3465
X6.1811Y-3.3858
X6.2106Y-3.4252
X6.2106Y-3.5039
X6.2303Y-3.3465
X6.2303Y-3.3858
X6.2697Y-3.7697
X6.2795Y-3.2283
X6.2795Y-3.3465
X6.2795Y-3.3858
X6.2795Y-3.4252
X6.4073Y-3.9175
X6.4075Y-3.878
X6.7126Y-3.1594
T2
X4.5669Y-3.2283
X4.5669Y-3.3071
X4.5669Y-3.3858
X4.5669Y-3.4646
X4.5669Y-4.3307
X4.5669Y-4.4094
X4.5669Y-4.4882
X4.5669Y-4.5669
X4.6457Y-3.2283
X4.6457Y-3.3071
X4.6457Y-3.3858
X4.6457Y-3.4646
X4.6457Y-4.3307
X4.6457Y-4.4094
X4.6457Y-4.4882
X4.6457Y-4.5669
X4.7244Y-3.2283
X4.7244Y-3.3071
X4.7244Y-3.3858
X4.7244Y-3.4646
X4.7244Y-3.5433
X4.7244Y-4.3307
X4.7244Y-4.4094
X4.7244Y-4.4882
X4.7244Y-4.5669
X4.8031Y-3.1496
X4.8031Y-3.2283
X4.8031Y-3.3071
X4.8031Y-3.3858
X4.8031Y-3.4646
X4.8031Y-4.4094
X4.8031Y-4.4882
X4.8031Y-4.5669
X4.8031Y-4.6457
X4.8819Y-2.9134
X4.8819Y-2.9921
X4.8819Y-3.0709
X4.8819Y-3.1496
X4.8819Y-3.2283
X4.8819Y-3.3071
X4.8819Y-3.3858
X4.8819Y-3.4646
X4.8819Y-3.5433
X4.8819Y-3.7008
X4.8819Y-4.4094
X4.8819Y-4.4882
X4.8819Y-4.5669
X4.8819Y-4.6457
X4.8819Y-4.7244
X4.8819Y-4.8031
X4.8819Y-4.8819
X4.9606Y-2.9134
X4.9606Y-2.9921
X4.9606Y-3.0709
X4.9606Y-3.1496
X4.9606Y-3.2283
X4.9606Y-3.3071
X4.9606Y-3.3858
X4.9606Y-3.4646
X4.9606Y-4.4094
X4.9606Y-4.4882
X4.9606Y-4.5669
X4.9606Y-4.6457
X4.9606Y-4.7244
X4.9606Y-4.8031
X4.9606Y-4.8819
X5.0394Y-2.9134
X5.0394Y-2.9921
X5.0394Y-3.0709
X5.0394Y-3.1496
X5.0394Y-3.2283
X5.0394Y-3.3071
X5.0394Y-3.3858
X5.0394Y-3.4646
X5.0394Y-4.4094
X5.0394Y-4.4882
X5.0394Y-4.5669
X5.0394Y-4.6457
X5.0394Y-4.7244
X5.0394Y-4.8031
X5.0394Y-4.8819
X5.1181Y-2.9134
X5.1181Y-2.9921
X5.1181Y-3.0709
X5.1181Y-3.1496
X5.1181Y-3.2283
X5.1181Y-3.3071
X5.1181Y-3.3858
X5.1181Y-3.4646
X5.1181Y-3.5433
X5.1181Y-4.4094
X5.1181Y-4.4882
X5.1181Y-4.5669
X5.1181Y-4.6457
X5.1181Y-4.7244
X5.1181Y-4.8031
X5.1181Y-4.8819
X5.1969Y-2.9134
X5.1969Y-2.9921
X5.1969Y-3.0709
X5.1969Y-3.1496
X5.1969Y-3.2283
X5.1969Y-3.3071
X5.1969Y-4.4094
X5.1969Y-4.4882
X5.1969Y-4.5669
X5.1969Y-4.6457
X5.1969Y-4.7244
X5.1969Y-4.8031
X5.1969Y-4.8819
X5.2756Y-2.9134
X5.2756Y-2.9921
X5.2756Y-3.0709
X5.2756Y-3.1496
X5.2756Y-3.2283
X5.2756Y-4.4094
X5.2756Y-4.4882
X5.2756Y-4.5669
X5.2756Y-4.6457
X5.2756Y-4.7244
X5.2756Y-4.8031
X5.2756Y-4.8819
X5.3543Y-2.9134
X5.3543Y-2.9921
X5.3543Y-3.0709
X5.3543Y-3.1496
X5.3543Y-3.3858
X5.3543Y-3.4646
X5.3543Y-3.5433
X5.3543Y-3.7008
X5.3543Y-4.4094
X5.3543Y-4.4882
X5.4331Y-2.9134
X5.4331Y-2.9921
X5.4331Y-3.0709
X5.4331Y-3.3071
X5.4331Y-3.3858
X5.4331Y-3.4646
X5.4331Y-3.5433
X5.4331Y-3.7008
X5.4331Y-4.4094
X5.4331Y-4.7244
X5.5118Y-3.2283
X5.5118Y-3.3071
X5.5118Y-3.3858
X5.5118Y-3.4646
X5.5118Y-3.5433
X5.5118Y-3.8583
X5.5118Y-4.6457
X5.5118Y-4.7244
X5.5906Y-3.5433
X5.6693Y-3.937
X5.6693Y-4.4882
X5.6693Y-4.5669
X5.6791Y-3.6713
X5.6791Y-3.7894
X5.748Y-3.2283
X5.748Y-3.3071
X5.748Y-4.4094
X5.748Y-4.4882
X5.748Y-4.5669
X5.748Y-4.6457
X5.748Y-4.7244
X5.8268Y-2.9134
X5.8268Y-2.9921
X5.8268Y-3.2283
X5.8268Y-3.3071
X5.8268Y-3.3858
X5.8268Y-3.622
X5.8268Y-3.7008
X5.8268Y-4.4094
X5.8268Y-4.4882
X5.8268Y-4.5669
X5.8268Y-4.6457
X5.8268Y-4.7244
X5.8268Y-4.8031
X5.8268Y-4.8819
X5.9055Y-2.9134
X5.9055Y-2.9921
X5.9055Y-4.4094
X5.9055Y-4.4882
X5.9055Y-4.5669
X5.9055Y-4.6457
X5.9055Y-4.7244
X5.9055Y-4.8031
X5.9055Y-4.8819
X5.9843Y-2.9134
X5.9843Y-2.9921
X5.9843Y-3.622
X5.9843Y-3.7008
X5.9843Y-3.7795
X5.9843Y-4.0157
X5.9843Y-4.0945
X5.9843Y-4.4094
X5.9843Y-4.4882
X5.9843Y-4.5669
X5.9843Y-4.6457
X5.9843Y-4.7244
X5.9843Y-4.8031
X5.9843Y-4.8819
X6.063Y-2.9134
X6.063Y-3.622
X6.063Y-3.7008
X6.063Y-4.0945
X6.063Y-4.4094
X6.063Y-4.4882
X6.063Y-4.5669
X6.063Y-4.6457
X6.063Y-4.7244
X6.063Y-4.8031
X6.063Y-4.8819
X6.0827Y-3.189
X6.1417Y-2.9134
X6.1417Y-3.622
X6.1417Y-3.7008
X6.1417Y-4.0945
X6.1417Y-4.4094
X6.1417Y-4.4882
X6.1417Y-4.5669
X6.1417Y-4.6457
X6.1417Y-4.7244
X6.1417Y-4.8031
X6.1417Y-4.8819
X6.1516Y-3.1102
X6.1516Y-3.1693
X6.2106Y-3.1102
X6.2106Y-3.1693
X6.2205Y-2.9134
X6.2205Y-2.9921
X6.2205Y-4.4094
X6.2205Y-4.4882
X6.2205Y-4.5669
X6.2205Y-4.6457
X6.2205Y-4.7244
X6.2205Y-4.8031
X6.2205Y-4.8819
X6.2697Y-3.1102
X6.2697Y-3.1693
X6.2992Y-2.9134
X6.2992Y-2.9921
X6.2992Y-4.0945
X6.2992Y-4.4094
X6.2992Y-4.4882
X6.2992Y-4.5669
X6.2992Y-4.6457
X6.2992Y-4.7244
X6.2992Y-4.8031
X6.2992Y-4.8819
X6.378Y-2.9134
X6.378Y-2.9921
X6.378Y-3.0709
X6.378Y-3.1496
X6.378Y-3.2283
X6.378Y-3.3071
X6.378Y-3.3858
X6.378Y-3.4646
X6.378Y-4.4094
X6.378Y-4.4882
X6.378Y-4.5669
X6.378Y-4.6457
X6.378Y-4.7244
X6.378Y-4.8031
X6.378Y-4.8819
X6.4567Y-2.9134
X6.4567Y-2.9921
X6.4567Y-3.0709
X6.4567Y-3.1496
X6.4567Y-3.2283
X6.4567Y-3.3071
X6.4567Y-3.3858
X6.4567Y-3.4646
X6.4567Y-4.4094
X6.4567Y-4.4882
X6.4567Y-4.5669
X6.4567Y-4.6457
X6.4567Y-4.7244
X6.4567Y-4.8031
X6.5354Y-2.9134
X6.5354Y-2.9921
X6.5354Y-3.0709
X6.5354Y-3.1496
X6.5354Y-3.2283
X6.5354Y-3.3071
X6.5354Y-3.3858
X6.5354Y-4.4094
X6.5354Y-4.4882
X6.5354Y-4.5669
X6.5354Y-4.7244
X6.6142Y-2.9134
X6.6142Y-2.9921
X6.6142Y-3.0709
X6.6142Y-3.1496
X6.6142Y-3.2283
X6.6142Y-3.7008
X6.6142Y-4.8819
X6.6929Y-2.9134
X6.6929Y-2.9921
X6.6929Y-3.0709
X6.6929Y-3.7795
X6.6929Y-3.937
X6.6929Y-4.4094
X6.6929Y-4.8031
X6.6929Y-4.8819
X6.7717Y-2.9134
X6.7717Y-2.9921
X6.7717Y-3.0709
X6.7717Y-3.937
X6.7717Y-4.6457
X6.7717Y-4.7244
X6.7717Y-4.8031
X6.7717Y-4.8819
X6.8504Y-3.937
X6.8504Y-4.6457
X7.0079Y-3.4646
X7.0079Y-3.5433
X7.0079Y-4.5669
X7.0866Y-3.7795
X7.0866Y-3.8583
X7.0866Y-3.937
X7.0866Y-4.0157
X7.0866Y-4.0945
X7.0866Y-4.1732
X7.0866Y-4.252
X7.0866Y-4.3307
X7.0866Y-4.4094
X7.0866Y-4.4882
X7.0866Y-4.5669
T3
X4.5187Y-2.9921
X4.5187Y-4.8031
X4.5559Y-2.9023
X4.5559Y-3.0819
X4.5559Y-4.7134
X4.5559Y-4.8929
X4.6457Y-2.8652
X4.6457Y-3.1191
X4.6457Y-4.6762
X4.6457Y-4.9301
X4.7354Y-2.9023
X4.7354Y-3.0819
X4.7354Y-4.7134
X4.7354Y-4.8929
X4.7726Y-2.9921
X4.7726Y-4.8031
X6.8809Y-2.9921
X6.8809Y-4.8031
X6.9181Y-2.9023
X6.9181Y-3.0819
X6.9181Y-4.7134
X6.9181Y-4.8929
X7.0079Y-2.8652
X7.0079Y-3.1191
X7.0079Y-4.6762
X7.0079Y-4.9301
X7.0977Y-2.9023
X7.0977Y-3.0819
X7.0977Y-4.7134
X7.0977Y-4.8929
X7.1348Y-2.9921
X7.1348Y-4.8031
T4
X6.0811Y-3.0102
X6.0811Y-3.1102
X6.4075Y-3.7008
X6.4075Y-3.8008
X6.4075Y-3.9945
X6.4075Y-4.0945
T5
X6.625Y-3.3177
X6.625Y-3.4079
X6.625Y-3.7677
X6.625Y-3.8579
X6.625Y-3.9378
X6.625Y-4.028
X6.625Y-4.3878
X6.625Y-4.478
X6.8148Y-3.4876
X6.8148Y-3.5676
X6.8148Y-3.6476
X6.8148Y-3.7276
X6.8148Y-4.1077
X6.8148Y-4.1877
X6.8148Y-4.2677
X6.8148Y-4.3477
X6.8848Y-3.4476
X6.8848Y-3.5276
X6.8848Y-3.6076
X6.8848Y-3.6876
X6.8848Y-4.0677
X6.8848Y-4.1477
X6.8848Y-4.2277
X6.8848Y-4.3077
T6
X4.6043Y-3.5976
X4.6043Y-3.6976
X4.6043Y-3.7976
X4.6043Y-3.8976
X4.6043Y-3.9976
X4.6043Y-4.0976
X4.6043Y-4.1976
X5.4602Y-4.8543
X5.5602Y-4.8543
X5.6602Y-4.8543
X5.7602Y-4.8543
T7
X6.8498Y-3.2677
X6.8498Y-4.5276
T8
X4.6457Y-2.9921
X4.6457Y-4.8031
X7.0079Y-2.9921
X7.0079Y-4.8031
T0
M30
