%TF.GenerationSoftware,KiCad,Pcbnew,(6.0.1-0)*%
%TF.CreationDate,2022-12-13T14:32:30+01:00*%
%TF.ProjectId,CAN_Steppermodul,43414e5f-5374-4657-9070-65726d6f6475,rev?*%
%TF.SameCoordinates,Original*%
%TF.FileFunction,Copper,L3,Inr*%
%TF.FilePolarity,Positive*%
%FSLAX46Y46*%
G04 Gerber Fmt 4.6, Leading zero omitted, Abs format (unit mm)*
G04 Created by KiCad (PCBNEW (6.0.1-0)) date 2022-12-13 14:32:30*
%MOMM*%
%LPD*%
G01*
G04 APERTURE LIST*
%TA.AperFunction,ComponentPad*%
%ADD10C,8.600000*%
%TD*%
%TA.AperFunction,ComponentPad*%
%ADD11C,0.900000*%
%TD*%
%TA.AperFunction,ComponentPad*%
%ADD12C,1.400000*%
%TD*%
%TA.AperFunction,ComponentPad*%
%ADD13C,2.300000*%
%TD*%
%TA.AperFunction,ComponentPad*%
%ADD14C,1.500000*%
%TD*%
%TA.AperFunction,ComponentPad*%
%ADD15R,1.500000X1.500000*%
%TD*%
%TA.AperFunction,ComponentPad*%
%ADD16C,1.508000*%
%TD*%
%TA.AperFunction,ViaPad*%
%ADD17C,0.800000*%
%TD*%
%TA.AperFunction,ViaPad*%
%ADD18C,0.600000*%
%TD*%
G04 APERTURE END LIST*
D10*
%TO.N,GND*%
%TO.C,H4*%
X178000000Y-76000000D03*
D11*
X178000000Y-79225000D03*
X175719581Y-78280419D03*
X180280419Y-73719581D03*
X180280419Y-78280419D03*
X174775000Y-76000000D03*
X175719581Y-73719581D03*
X178000000Y-72775000D03*
X181225000Y-76000000D03*
%TD*%
D10*
%TO.N,GND*%
%TO.C,H3*%
X118000000Y-76000000D03*
D11*
X118000000Y-79225000D03*
X115719581Y-78280419D03*
X120280419Y-73719581D03*
X120280419Y-78280419D03*
X114775000Y-76000000D03*
X115719581Y-73719581D03*
X118000000Y-72775000D03*
X121225000Y-76000000D03*
%TD*%
D10*
%TO.N,GND*%
%TO.C,H2*%
X118000000Y-122000000D03*
D11*
X118000000Y-125225000D03*
X115719581Y-124280419D03*
X120280419Y-119719581D03*
X120280419Y-124280419D03*
X114775000Y-122000000D03*
X115719581Y-119719581D03*
X118000000Y-118775000D03*
X121225000Y-122000000D03*
%TD*%
D10*
%TO.N,GND*%
%TO.C,H1*%
X178000000Y-122000000D03*
D11*
X178000000Y-125225000D03*
X175719581Y-124280419D03*
X180280419Y-119719581D03*
X180280419Y-124280419D03*
X174775000Y-122000000D03*
X175719581Y-119719581D03*
X178000000Y-118775000D03*
X181225000Y-122000000D03*
%TD*%
D12*
%TO.N,GND*%
%TO.C,TP3*%
X162750000Y-104000000D03*
%TO.N,/CAN-*%
X162750000Y-101460000D03*
%TD*%
%TO.N,GND*%
%TO.C,TP2*%
X162750000Y-94000000D03*
%TO.N,/CAN+*%
X162750000Y-96540000D03*
%TD*%
%TO.N,GND*%
%TO.C,TP1*%
X154460000Y-76460000D03*
%TO.N,+3V3*%
X154460000Y-79000000D03*
%TD*%
D13*
%TO.N,GND*%
%TO.C,J4*%
X173985000Y-83000000D03*
X173985000Y-115000000D03*
D14*
%TO.N,/LED4*%
X168275000Y-113740000D03*
%TO.N,GND*%
X168275000Y-111450000D03*
%TO.N,/LED3*%
X168275000Y-102310000D03*
%TO.N,GND*%
X168275000Y-100020000D03*
%TO.N,+24V*%
X173095000Y-110432000D03*
%TO.N,GND*%
X174875000Y-109416000D03*
X173095000Y-108400000D03*
%TO.N,unconnected-(J4-Pad17)*%
X174875000Y-107384000D03*
%TO.N,unconnected-(J4-Pad16)*%
X173095000Y-106368000D03*
%TO.N,GND*%
X174875000Y-105352000D03*
%TO.N,/CAN-*%
X173095000Y-104336000D03*
%TO.N,/CAN+*%
X174875000Y-103320000D03*
%TO.N,/LED2*%
X168275000Y-97990000D03*
%TO.N,GND*%
X168275000Y-95700000D03*
%TO.N,/LED1*%
X168275000Y-86560000D03*
%TO.N,GND*%
X168275000Y-84270000D03*
%TO.N,+24V*%
X173095000Y-94682000D03*
%TO.N,GND*%
X174875000Y-93666000D03*
X173095000Y-92650000D03*
%TO.N,unconnected-(J4-Pad5)*%
X174875000Y-91634000D03*
%TO.N,unconnected-(J4-Pad4)*%
X173095000Y-90618000D03*
%TO.N,GND*%
X174875000Y-89602000D03*
%TO.N,/CAN-*%
X173095000Y-88586000D03*
D15*
%TO.N,/CAN+*%
X174875000Y-87570000D03*
%TD*%
D16*
%TO.N,GND*%
%TO.C,J3*%
X146310000Y-123300000D03*
%TO.N,Net-(C11-Pad1)*%
X143770000Y-123300000D03*
%TO.N,GND*%
X141230000Y-123300000D03*
%TO.N,Net-(J3-Pad1)*%
X138690000Y-123300000D03*
%TD*%
%TO.N,GND*%
%TO.C,J2*%
X116950000Y-106620000D03*
%TO.N,/ALM+*%
X116950000Y-104080000D03*
%TO.N,/POS+*%
X116950000Y-101540000D03*
%TO.N,/ENA-*%
X116950000Y-99000000D03*
%TO.N,/DIR-*%
X116950000Y-96460000D03*
%TO.N,/PUL-*%
X116950000Y-93920000D03*
%TO.N,+24V*%
X116950000Y-91380000D03*
%TD*%
D17*
%TO.N,GND*%
X180000000Y-116000000D03*
X180000000Y-114000000D03*
X180000000Y-112000000D03*
X180000000Y-110000000D03*
X180000000Y-108000000D03*
X180000000Y-106000000D03*
X180000000Y-104000000D03*
X180000000Y-102000000D03*
X180000000Y-100000000D03*
X180000000Y-98000000D03*
X180000000Y-96000000D03*
X178000000Y-116000000D03*
X178000000Y-90000000D03*
X178000000Y-88000000D03*
X174000000Y-118000000D03*
X174000000Y-100000000D03*
X172000000Y-124000000D03*
X172000000Y-122000000D03*
X172000000Y-120000000D03*
X172000000Y-118000000D03*
X172000000Y-100000000D03*
X172000000Y-78000000D03*
X172000000Y-76000000D03*
X172000000Y-74000000D03*
X170000000Y-124000000D03*
X170000000Y-122000000D03*
X170000000Y-112000000D03*
X170000000Y-100000000D03*
X170000000Y-96000000D03*
X170000000Y-78000000D03*
X170000000Y-76000000D03*
X170000000Y-74000000D03*
X168000000Y-124000000D03*
X168000000Y-94000000D03*
X168000000Y-82000000D03*
X168000000Y-80000000D03*
X168000000Y-78000000D03*
X168000000Y-76000000D03*
X168000000Y-74000000D03*
X166000000Y-120000000D03*
X166000000Y-116000000D03*
X166000000Y-114000000D03*
X166000000Y-112000000D03*
X166000000Y-86000000D03*
X166000000Y-84000000D03*
X166000000Y-82000000D03*
X166000000Y-80000000D03*
X166000000Y-78000000D03*
X166000000Y-76000000D03*
X166000000Y-74000000D03*
X164000000Y-122000000D03*
X164000000Y-120000000D03*
X164000000Y-118000000D03*
X164000000Y-116000000D03*
X164000000Y-114000000D03*
X164000000Y-112000000D03*
X164000000Y-88000000D03*
X164000000Y-86000000D03*
X164000000Y-84000000D03*
X164000000Y-82000000D03*
X164000000Y-80000000D03*
X164000000Y-78000000D03*
X164000000Y-76000000D03*
X164000000Y-74000000D03*
X162000000Y-124000000D03*
X162000000Y-122000000D03*
X162000000Y-120000000D03*
X162000000Y-118000000D03*
X162000000Y-116000000D03*
X162000000Y-114000000D03*
X162000000Y-112000000D03*
X162000000Y-88000000D03*
X162000000Y-86000000D03*
X162000000Y-84000000D03*
X162000000Y-82000000D03*
X162000000Y-80000000D03*
X162000000Y-78000000D03*
X162000000Y-76000000D03*
X162000000Y-74000000D03*
X160000000Y-124000000D03*
X160000000Y-122000000D03*
X160000000Y-120000000D03*
X160000000Y-118000000D03*
X160000000Y-116000000D03*
X160000000Y-114000000D03*
X160000000Y-112000000D03*
X160000000Y-104000000D03*
X160000000Y-76000000D03*
X160000000Y-74000000D03*
X158000000Y-124000000D03*
X158000000Y-122000000D03*
X158000000Y-120000000D03*
X158000000Y-118000000D03*
X158000000Y-116000000D03*
X158000000Y-114000000D03*
X158000000Y-112000000D03*
X158000000Y-76000000D03*
X158000000Y-74000000D03*
X156000000Y-124000000D03*
X156000000Y-122000000D03*
X156000000Y-120000000D03*
X156000000Y-118000000D03*
X156000000Y-116000000D03*
X156000000Y-114000000D03*
X156000000Y-112000000D03*
X156000000Y-104000000D03*
X156000000Y-94000000D03*
X156000000Y-92000000D03*
X156000000Y-74000000D03*
X154000000Y-124000000D03*
X154000000Y-122000000D03*
X154000000Y-120000000D03*
X154000000Y-118000000D03*
X154000000Y-116000000D03*
X154000000Y-114000000D03*
X154000000Y-112000000D03*
X154000000Y-104000000D03*
X154000000Y-94000000D03*
X154000000Y-92000000D03*
X154000000Y-74000000D03*
X152000000Y-124000000D03*
X152000000Y-122000000D03*
X152000000Y-120000000D03*
X152000000Y-118000000D03*
X152000000Y-116000000D03*
X152000000Y-114000000D03*
X152000000Y-112000000D03*
X152000000Y-104000000D03*
X152000000Y-102000000D03*
X152000000Y-96000000D03*
X152000000Y-94000000D03*
X152000000Y-92000000D03*
X152000000Y-76000000D03*
X152000000Y-74000000D03*
X150000000Y-124000000D03*
X150000000Y-122000000D03*
X150000000Y-120000000D03*
X150000000Y-118000000D03*
X150000000Y-116000000D03*
X150000000Y-114000000D03*
X150000000Y-112000000D03*
X150000000Y-76000000D03*
X150000000Y-74000000D03*
X148000000Y-124000000D03*
X148000000Y-122000000D03*
X148000000Y-120000000D03*
X148000000Y-118000000D03*
X148000000Y-116000000D03*
X148000000Y-114000000D03*
X148000000Y-112000000D03*
X148000000Y-94000000D03*
X148000000Y-92000000D03*
X148000000Y-86000000D03*
X148000000Y-84000000D03*
X148000000Y-82000000D03*
X148000000Y-76000000D03*
X148000000Y-74000000D03*
X146000000Y-120000000D03*
X146000000Y-118000000D03*
X146000000Y-116000000D03*
X146000000Y-114000000D03*
X146000000Y-112000000D03*
X146000000Y-84000000D03*
X146000000Y-82000000D03*
X144000000Y-116000000D03*
X144000000Y-114000000D03*
X144000000Y-100000000D03*
X142000000Y-90000000D03*
X140000000Y-120000000D03*
X140000000Y-118000000D03*
X140000000Y-98000000D03*
X140000000Y-90000000D03*
X140000000Y-88000000D03*
X140000000Y-86000000D03*
X140000000Y-84000000D03*
X140000000Y-82000000D03*
X138000000Y-120000000D03*
X138000000Y-112000000D03*
X138000000Y-94000000D03*
X138000000Y-90000000D03*
X138000000Y-88000000D03*
X138000000Y-86000000D03*
X138000000Y-84000000D03*
X138000000Y-78000000D03*
X138000000Y-76000000D03*
X138000000Y-74000000D03*
X136000000Y-114000000D03*
X136000000Y-112000000D03*
X136000000Y-94000000D03*
X136000000Y-90000000D03*
X136000000Y-88000000D03*
X136000000Y-86000000D03*
X136000000Y-80000000D03*
X136000000Y-78000000D03*
X136000000Y-76000000D03*
X136000000Y-74000000D03*
X134000000Y-124000000D03*
X134000000Y-122000000D03*
X134000000Y-120000000D03*
X134000000Y-118000000D03*
X134000000Y-116000000D03*
X134000000Y-114000000D03*
X134000000Y-112000000D03*
X134000000Y-82000000D03*
X134000000Y-80000000D03*
X134000000Y-78000000D03*
X134000000Y-76000000D03*
X134000000Y-74000000D03*
X132000000Y-124000000D03*
X132000000Y-122000000D03*
X132000000Y-120000000D03*
X132000000Y-118000000D03*
X132000000Y-116000000D03*
X132000000Y-114000000D03*
X132000000Y-112000000D03*
X132000000Y-84000000D03*
X132000000Y-82000000D03*
X132000000Y-80000000D03*
X132000000Y-78000000D03*
X132000000Y-76000000D03*
X132000000Y-74000000D03*
X130000000Y-124000000D03*
X130000000Y-122000000D03*
X130000000Y-120000000D03*
X130000000Y-118000000D03*
X130000000Y-116000000D03*
X130000000Y-114000000D03*
X130000000Y-112000000D03*
X130000000Y-90000000D03*
X130000000Y-88000000D03*
X130000000Y-86000000D03*
X130000000Y-84000000D03*
X130000000Y-82000000D03*
X130000000Y-80000000D03*
X130000000Y-78000000D03*
X130000000Y-76000000D03*
X130000000Y-74000000D03*
X128000000Y-124000000D03*
X128000000Y-122000000D03*
X128000000Y-120000000D03*
X128000000Y-118000000D03*
X128000000Y-116000000D03*
X128000000Y-114000000D03*
X128000000Y-112000000D03*
X128000000Y-88000000D03*
X128000000Y-86000000D03*
X128000000Y-84000000D03*
X128000000Y-82000000D03*
X128000000Y-80000000D03*
X128000000Y-78000000D03*
X128000000Y-76000000D03*
X128000000Y-74000000D03*
X126000000Y-124000000D03*
X126000000Y-122000000D03*
X126000000Y-120000000D03*
X126000000Y-118000000D03*
X126000000Y-116000000D03*
X126000000Y-114000000D03*
X126000000Y-112000000D03*
X126000000Y-88000000D03*
X126000000Y-86000000D03*
X126000000Y-84000000D03*
X126000000Y-82000000D03*
X126000000Y-80000000D03*
X126000000Y-78000000D03*
X126000000Y-76000000D03*
X126000000Y-74000000D03*
X124000000Y-124000000D03*
X124000000Y-122000000D03*
X124000000Y-120000000D03*
X124000000Y-118000000D03*
X124000000Y-116000000D03*
X124000000Y-114000000D03*
X124000000Y-112000000D03*
X124000000Y-94000000D03*
X124000000Y-90000000D03*
X124000000Y-88000000D03*
X124000000Y-86000000D03*
X124000000Y-84000000D03*
X124000000Y-82000000D03*
X124000000Y-80000000D03*
X124000000Y-78000000D03*
X124000000Y-76000000D03*
X124000000Y-74000000D03*
X122000000Y-118000000D03*
X122000000Y-116000000D03*
X122000000Y-114000000D03*
X122000000Y-112000000D03*
X122000000Y-88000000D03*
X122000000Y-86000000D03*
X122000000Y-84000000D03*
X122000000Y-82000000D03*
X122000000Y-80000000D03*
X120000000Y-116000000D03*
X120000000Y-114000000D03*
X120000000Y-112000000D03*
X120000000Y-110000000D03*
X120000000Y-90000000D03*
X120000000Y-88000000D03*
X120000000Y-86000000D03*
X120000000Y-84000000D03*
X120000000Y-82000000D03*
X118000000Y-116000000D03*
X118000000Y-114000000D03*
X118000000Y-112000000D03*
X118000000Y-110000000D03*
X118000000Y-88000000D03*
X118000000Y-86000000D03*
X118000000Y-84000000D03*
X118000000Y-82000000D03*
X116000000Y-116000000D03*
X116000000Y-114000000D03*
X116000000Y-112000000D03*
X116000000Y-110000000D03*
X116000000Y-88000000D03*
X116000000Y-86000000D03*
X116000000Y-84000000D03*
X116000000Y-82000000D03*
D18*
X142000000Y-119000000D03*
X124250000Y-106510000D03*
X124250000Y-103010000D03*
X127250000Y-98490000D03*
X127250000Y-94990000D03*
X127250000Y-91490000D03*
X140000000Y-74250000D03*
X142500000Y-74250000D03*
X143750000Y-74250000D03*
%TO.N,+3V3*%
X145000000Y-74250000D03*
X136755000Y-100000000D03*
%TO.N,GND*%
X136755000Y-99040000D03*
X136750000Y-97250000D03*
%TO.N,+3V3*%
X136755000Y-96250000D03*
X129250000Y-103000000D03*
X129250000Y-106500000D03*
%TO.N,GND*%
X144525000Y-104750000D03*
%TO.N,+3V3*%
X145485000Y-104750000D03*
X154000000Y-82600000D03*
X159500000Y-82000000D03*
X157000000Y-82000000D03*
X139230000Y-92000000D03*
%TO.N,GND*%
X140765000Y-92015000D03*
X143000000Y-91750000D03*
%TO.N,+24V*%
X170500000Y-80250000D03*
%TO.N,GND*%
X159500000Y-87000000D03*
X159500000Y-86000000D03*
X158250000Y-86000000D03*
X157000000Y-86000000D03*
X157750000Y-87000000D03*
X159500000Y-85000000D03*
X158250000Y-85000000D03*
X157000000Y-85000000D03*
%TO.N,+24V*%
X157750000Y-89000000D03*
%TO.N,GND*%
X159250000Y-95750000D03*
%TO.N,+3V3*%
X148255000Y-95520000D03*
%TO.N,GND*%
X148255000Y-96480000D03*
%TO.N,+3V3*%
X153510000Y-99490000D03*
%TO.N,GND*%
X153510000Y-98510000D03*
%TO.N,/CAN+*%
X162750000Y-98500000D03*
%TO.N,/CAN-*%
X162745000Y-99505000D03*
%TO.N,+24V*%
X136000000Y-125162500D03*
X121750000Y-101500000D03*
X121750000Y-105000000D03*
D17*
%TO.N,+3V3*%
X154500000Y-81000000D03*
X156250000Y-80500000D03*
X157750000Y-80500000D03*
X159250000Y-80500000D03*
X159250000Y-79000000D03*
X157750000Y-79000000D03*
X156250000Y-79000000D03*
%TO.N,/NRST*%
X144250000Y-96250000D03*
X144250000Y-93250000D03*
%TD*%
%TA.AperFunction,Conductor*%
%TO.N,GND*%
G36*
X175763038Y-71528002D02*
G01*
X175809531Y-71581658D01*
X175819635Y-71651932D01*
X175790141Y-71716512D01*
X175757631Y-71743284D01*
X175423581Y-71934984D01*
X175418848Y-71937987D01*
X175072420Y-72180109D01*
X175067979Y-72183517D01*
X174796476Y-72411739D01*
X174788031Y-72424456D01*
X174794139Y-72434929D01*
X175193493Y-72834283D01*
X175719580Y-73360371D01*
X176604878Y-74245668D01*
X180280419Y-77921209D01*
X181165717Y-78806506D01*
X181562145Y-79202934D01*
X181575903Y-79210446D01*
X181585263Y-79203989D01*
X181754244Y-79011303D01*
X181757744Y-79006935D01*
X182007073Y-78665645D01*
X182010168Y-78660987D01*
X182228160Y-78298903D01*
X182230841Y-78293964D01*
X182252704Y-78249039D01*
X182300498Y-78196539D01*
X182369088Y-78178213D01*
X182436698Y-78199878D01*
X182481862Y-78254658D01*
X182492000Y-78304175D01*
X182492000Y-119701350D01*
X182471998Y-119769471D01*
X182418342Y-119815964D01*
X182348068Y-119826068D01*
X182283488Y-119796574D01*
X182254800Y-119760601D01*
X182143931Y-119552526D01*
X182141085Y-119547713D01*
X181909974Y-119193865D01*
X181906692Y-119189297D01*
X181645030Y-118857380D01*
X181641382Y-118853155D01*
X181588103Y-118796715D01*
X181574389Y-118788705D01*
X181573517Y-118788742D01*
X181565438Y-118793772D01*
X181165717Y-119193493D01*
X180280419Y-120078790D01*
X179754332Y-120604878D01*
X176604879Y-123754331D01*
X175719581Y-124639628D01*
X175193494Y-125165716D01*
X174796736Y-125562474D01*
X174789122Y-125576418D01*
X174789171Y-125577110D01*
X174794617Y-125585274D01*
X174872268Y-125657812D01*
X174876507Y-125661433D01*
X175209802Y-125921363D01*
X175214359Y-125924602D01*
X175569448Y-126153880D01*
X175574250Y-126156686D01*
X175760147Y-126254491D01*
X175811120Y-126303911D01*
X175827283Y-126373043D01*
X175803504Y-126439939D01*
X175747334Y-126483360D01*
X175701480Y-126492000D01*
X120299061Y-126492000D01*
X120230940Y-126471998D01*
X120184447Y-126418342D01*
X120174343Y-126348068D01*
X120203837Y-126283488D01*
X120239229Y-126255112D01*
X120469131Y-126131063D01*
X120473935Y-126128188D01*
X120826563Y-125895231D01*
X120831126Y-125891916D01*
X121161658Y-125628529D01*
X121165873Y-125624852D01*
X121203823Y-125588649D01*
X121211763Y-125574890D01*
X121211713Y-125573843D01*
X121206822Y-125566032D01*
X120806507Y-125165717D01*
X119921210Y-124280419D01*
X119395122Y-123754332D01*
X117641922Y-122001132D01*
X118364408Y-122001132D01*
X118364539Y-122002965D01*
X118368790Y-122009580D01*
X119754331Y-123395121D01*
X120257610Y-123898401D01*
X120280418Y-123921209D01*
X121165716Y-124806506D01*
X121562142Y-125202932D01*
X121575903Y-125210446D01*
X121585263Y-125203989D01*
X121631610Y-125151140D01*
X135186463Y-125151140D01*
X135204163Y-125331660D01*
X135261418Y-125503773D01*
X135265065Y-125509795D01*
X135265066Y-125509797D01*
X135304488Y-125574890D01*
X135355380Y-125658924D01*
X135360269Y-125663987D01*
X135360270Y-125663988D01*
X135381027Y-125685482D01*
X135481382Y-125789402D01*
X135633159Y-125888722D01*
X135639763Y-125891178D01*
X135639765Y-125891179D01*
X135796558Y-125949490D01*
X135796560Y-125949490D01*
X135803168Y-125951948D01*
X135886995Y-125963133D01*
X135975980Y-125975007D01*
X135975984Y-125975007D01*
X135982961Y-125975938D01*
X135989972Y-125975300D01*
X135989976Y-125975300D01*
X136132459Y-125962332D01*
X136163600Y-125959498D01*
X136170302Y-125957320D01*
X136170304Y-125957320D01*
X136329409Y-125905624D01*
X136329412Y-125905623D01*
X136336108Y-125903447D01*
X136491912Y-125810569D01*
X136623266Y-125685482D01*
X136723643Y-125534402D01*
X136765423Y-125424417D01*
X136785555Y-125371420D01*
X136785556Y-125371418D01*
X136788055Y-125364838D01*
X136789035Y-125357866D01*
X136812748Y-125189139D01*
X136812748Y-125189136D01*
X136813299Y-125185217D01*
X136813616Y-125162500D01*
X136793397Y-124982245D01*
X136791080Y-124975591D01*
X136736064Y-124817606D01*
X136736062Y-124817603D01*
X136733745Y-124810948D01*
X136666188Y-124702833D01*
X136641359Y-124663098D01*
X136637626Y-124657124D01*
X136557568Y-124576505D01*
X136514778Y-124533415D01*
X136514774Y-124533412D01*
X136509815Y-124528418D01*
X136498697Y-124521362D01*
X136446282Y-124488099D01*
X136356666Y-124431227D01*
X136327463Y-124420828D01*
X136192425Y-124372743D01*
X136192420Y-124372742D01*
X136185790Y-124370381D01*
X136178802Y-124369548D01*
X136178799Y-124369547D01*
X136040315Y-124353034D01*
X136005680Y-124348904D01*
X135998677Y-124349640D01*
X135998676Y-124349640D01*
X135832288Y-124367128D01*
X135832286Y-124367129D01*
X135825288Y-124367864D01*
X135653579Y-124426318D01*
X135647575Y-124430012D01*
X135505095Y-124517666D01*
X135505092Y-124517668D01*
X135499088Y-124521362D01*
X135494053Y-124526293D01*
X135494050Y-124526295D01*
X135378319Y-124639628D01*
X135369493Y-124648271D01*
X135271235Y-124800738D01*
X135268826Y-124807358D01*
X135268824Y-124807361D01*
X135236707Y-124895601D01*
X135209197Y-124971185D01*
X135186463Y-125151140D01*
X121631610Y-125151140D01*
X121754244Y-125011303D01*
X121757744Y-125006935D01*
X122007073Y-124665645D01*
X122010168Y-124660987D01*
X122228160Y-124298903D01*
X122230841Y-124293964D01*
X122415779Y-123913946D01*
X122418014Y-123908780D01*
X122568442Y-123513815D01*
X122570201Y-123508496D01*
X122629003Y-123300000D01*
X137422677Y-123300000D01*
X137441930Y-123520068D01*
X137499106Y-123733450D01*
X137501428Y-123738431D01*
X137501429Y-123738432D01*
X137586660Y-123921209D01*
X137592466Y-123933661D01*
X137719174Y-124114620D01*
X137875380Y-124270826D01*
X137879888Y-124273983D01*
X137879891Y-124273985D01*
X138051208Y-124393942D01*
X138056338Y-124397534D01*
X138061320Y-124399857D01*
X138061325Y-124399860D01*
X138250556Y-124488099D01*
X138256550Y-124490894D01*
X138261858Y-124492316D01*
X138261860Y-124492317D01*
X138327252Y-124509839D01*
X138469932Y-124548070D01*
X138690000Y-124567323D01*
X138910068Y-124548070D01*
X139052748Y-124509839D01*
X139118140Y-124492317D01*
X139118142Y-124492316D01*
X139123450Y-124490894D01*
X139129444Y-124488099D01*
X139318675Y-124399860D01*
X139318680Y-124399857D01*
X139323662Y-124397534D01*
X139328792Y-124393942D01*
X139387215Y-124353034D01*
X140541521Y-124353034D01*
X140550817Y-124365049D01*
X140592081Y-124393942D01*
X140601576Y-124399425D01*
X140791740Y-124488099D01*
X140802032Y-124491845D01*
X141004704Y-124546151D01*
X141015499Y-124548054D01*
X141224525Y-124566342D01*
X141235475Y-124566342D01*
X141444501Y-124548054D01*
X141455296Y-124546151D01*
X141657968Y-124491845D01*
X141668260Y-124488099D01*
X141858424Y-124399425D01*
X141867919Y-124393942D01*
X141910021Y-124364462D01*
X141918396Y-124353985D01*
X141911328Y-124340538D01*
X141242812Y-123672022D01*
X141228868Y-123664408D01*
X141227035Y-123664539D01*
X141220420Y-123668790D01*
X140547951Y-124341259D01*
X140541521Y-124353034D01*
X139387215Y-124353034D01*
X139500109Y-124273985D01*
X139500112Y-124273983D01*
X139504620Y-124270826D01*
X139660826Y-124114620D01*
X139787534Y-123933661D01*
X139793341Y-123921209D01*
X139846081Y-123808107D01*
X139892998Y-123754822D01*
X139961276Y-123735361D01*
X140029236Y-123755903D01*
X140074471Y-123808107D01*
X140130576Y-123928425D01*
X140136055Y-123937915D01*
X140165539Y-123980022D01*
X140176015Y-123988396D01*
X140189463Y-123981327D01*
X140857978Y-123312812D01*
X140864356Y-123301132D01*
X141594408Y-123301132D01*
X141594539Y-123302965D01*
X141598790Y-123309580D01*
X142271259Y-123982049D01*
X142283033Y-123988479D01*
X142295049Y-123979183D01*
X142323945Y-123937915D01*
X142329424Y-123928425D01*
X142385529Y-123808107D01*
X142432446Y-123754822D01*
X142500724Y-123735361D01*
X142568684Y-123755903D01*
X142613919Y-123808107D01*
X142666660Y-123921209D01*
X142672466Y-123933661D01*
X142799174Y-124114620D01*
X142955380Y-124270826D01*
X142959888Y-124273983D01*
X142959891Y-124273985D01*
X143131208Y-124393942D01*
X143136338Y-124397534D01*
X143141320Y-124399857D01*
X143141325Y-124399860D01*
X143330556Y-124488099D01*
X143336550Y-124490894D01*
X143341858Y-124492316D01*
X143341860Y-124492317D01*
X143407252Y-124509839D01*
X143549932Y-124548070D01*
X143770000Y-124567323D01*
X143990068Y-124548070D01*
X144132748Y-124509839D01*
X144198140Y-124492317D01*
X144198142Y-124492316D01*
X144203450Y-124490894D01*
X144209444Y-124488099D01*
X144398675Y-124399860D01*
X144398680Y-124399857D01*
X144403662Y-124397534D01*
X144408792Y-124393942D01*
X144467215Y-124353034D01*
X145621521Y-124353034D01*
X145630817Y-124365049D01*
X145672081Y-124393942D01*
X145681576Y-124399425D01*
X145871740Y-124488099D01*
X145882032Y-124491845D01*
X146084704Y-124546151D01*
X146095499Y-124548054D01*
X146304525Y-124566342D01*
X146315475Y-124566342D01*
X146524501Y-124548054D01*
X146535296Y-124546151D01*
X146737968Y-124491845D01*
X146748260Y-124488099D01*
X146938424Y-124399425D01*
X146947919Y-124393942D01*
X146990021Y-124364462D01*
X146998396Y-124353985D01*
X146991328Y-124340538D01*
X146322812Y-123672022D01*
X146308868Y-123664408D01*
X146307035Y-123664539D01*
X146300420Y-123668790D01*
X145627951Y-124341259D01*
X145621521Y-124353034D01*
X144467215Y-124353034D01*
X144580109Y-124273985D01*
X144580112Y-124273983D01*
X144584620Y-124270826D01*
X144740826Y-124114620D01*
X144867534Y-123933661D01*
X144873341Y-123921209D01*
X144926081Y-123808107D01*
X144972998Y-123754822D01*
X145041276Y-123735361D01*
X145109236Y-123755903D01*
X145154471Y-123808107D01*
X145210576Y-123928425D01*
X145216055Y-123937915D01*
X145245539Y-123980022D01*
X145256015Y-123988396D01*
X145269463Y-123981327D01*
X145937978Y-123312812D01*
X145944356Y-123301132D01*
X146674408Y-123301132D01*
X146674539Y-123302965D01*
X146678790Y-123309580D01*
X147351259Y-123982049D01*
X147363033Y-123988479D01*
X147375049Y-123979183D01*
X147403945Y-123937915D01*
X147409423Y-123928425D01*
X147498099Y-123738260D01*
X147501845Y-123727968D01*
X147556151Y-123525296D01*
X147558054Y-123514501D01*
X147576342Y-123305475D01*
X147576342Y-123294525D01*
X147558054Y-123085499D01*
X147556151Y-123074704D01*
X147501845Y-122872032D01*
X147498099Y-122861740D01*
X147409423Y-122671575D01*
X147403945Y-122662085D01*
X147374461Y-122619978D01*
X147363985Y-122611604D01*
X147350537Y-122618673D01*
X146682022Y-123287188D01*
X146674408Y-123301132D01*
X145944356Y-123301132D01*
X145945592Y-123298868D01*
X145945461Y-123297035D01*
X145941210Y-123290420D01*
X145268741Y-122617951D01*
X145256967Y-122611521D01*
X145244951Y-122620817D01*
X145216055Y-122662085D01*
X145210576Y-122671575D01*
X145154471Y-122791893D01*
X145107554Y-122845178D01*
X145039276Y-122864639D01*
X144971316Y-122844097D01*
X144926081Y-122791893D01*
X144869857Y-122671320D01*
X144869855Y-122671317D01*
X144867534Y-122666339D01*
X144740826Y-122485380D01*
X144584620Y-122329174D01*
X144580112Y-122326017D01*
X144580109Y-122326015D01*
X144465857Y-122246015D01*
X145621604Y-122246015D01*
X145628673Y-122259463D01*
X146297188Y-122927978D01*
X146311132Y-122935592D01*
X146312965Y-122935461D01*
X146319580Y-122931210D01*
X146992049Y-122258741D01*
X146998479Y-122246966D01*
X146989183Y-122234951D01*
X146947919Y-122206058D01*
X146938424Y-122200575D01*
X146748260Y-122111901D01*
X146737968Y-122108155D01*
X146535296Y-122053849D01*
X146524501Y-122051946D01*
X146315475Y-122033658D01*
X146304525Y-122033658D01*
X146095499Y-122051946D01*
X146084704Y-122053849D01*
X145882032Y-122108155D01*
X145871740Y-122111901D01*
X145681575Y-122200577D01*
X145672085Y-122206055D01*
X145629978Y-122235539D01*
X145621604Y-122246015D01*
X144465857Y-122246015D01*
X144408171Y-122205623D01*
X144408168Y-122205621D01*
X144403662Y-122202466D01*
X144398680Y-122200143D01*
X144398675Y-122200140D01*
X144208432Y-122111429D01*
X144208431Y-122111429D01*
X144203450Y-122109106D01*
X144198142Y-122107684D01*
X144198140Y-122107683D01*
X144132748Y-122090161D01*
X143990068Y-122051930D01*
X143770000Y-122032677D01*
X143549932Y-122051930D01*
X143407252Y-122090161D01*
X143341860Y-122107683D01*
X143341858Y-122107684D01*
X143336550Y-122109106D01*
X143331569Y-122111428D01*
X143331568Y-122111429D01*
X143141320Y-122200143D01*
X143141317Y-122200145D01*
X143136339Y-122202466D01*
X142955380Y-122329174D01*
X142799174Y-122485380D01*
X142672466Y-122666339D01*
X142670145Y-122671317D01*
X142670143Y-122671320D01*
X142613919Y-122791893D01*
X142567002Y-122845178D01*
X142498724Y-122864639D01*
X142430764Y-122844097D01*
X142385529Y-122791893D01*
X142329424Y-122671575D01*
X142323945Y-122662085D01*
X142294461Y-122619978D01*
X142283985Y-122611604D01*
X142270537Y-122618673D01*
X141602022Y-123287188D01*
X141594408Y-123301132D01*
X140864356Y-123301132D01*
X140865592Y-123298868D01*
X140865461Y-123297035D01*
X140861210Y-123290420D01*
X140188741Y-122617951D01*
X140176967Y-122611521D01*
X140164951Y-122620817D01*
X140136055Y-122662085D01*
X140130576Y-122671575D01*
X140074471Y-122791893D01*
X140027554Y-122845178D01*
X139959276Y-122864639D01*
X139891316Y-122844097D01*
X139846081Y-122791893D01*
X139789857Y-122671320D01*
X139789855Y-122671317D01*
X139787534Y-122666339D01*
X139660826Y-122485380D01*
X139504620Y-122329174D01*
X139500112Y-122326017D01*
X139500109Y-122326015D01*
X139385857Y-122246015D01*
X140541604Y-122246015D01*
X140548673Y-122259463D01*
X141217188Y-122927978D01*
X141231132Y-122935592D01*
X141232965Y-122935461D01*
X141239580Y-122931210D01*
X141912049Y-122258741D01*
X141918479Y-122246966D01*
X141909183Y-122234951D01*
X141867919Y-122206058D01*
X141858424Y-122200575D01*
X141668260Y-122111901D01*
X141657968Y-122108155D01*
X141455296Y-122053849D01*
X141444501Y-122051946D01*
X141235475Y-122033658D01*
X141224525Y-122033658D01*
X141015499Y-122051946D01*
X141004704Y-122053849D01*
X140802032Y-122108155D01*
X140791740Y-122111901D01*
X140601575Y-122200577D01*
X140592085Y-122206055D01*
X140549978Y-122235539D01*
X140541604Y-122246015D01*
X139385857Y-122246015D01*
X139328171Y-122205623D01*
X139328168Y-122205621D01*
X139323662Y-122202466D01*
X139318680Y-122200143D01*
X139318675Y-122200140D01*
X139128432Y-122111429D01*
X139128431Y-122111429D01*
X139123450Y-122109106D01*
X139118142Y-122107684D01*
X139118140Y-122107683D01*
X139052748Y-122090161D01*
X138910068Y-122051930D01*
X138690000Y-122032677D01*
X138469932Y-122051930D01*
X138327252Y-122090161D01*
X138261860Y-122107683D01*
X138261858Y-122107684D01*
X138256550Y-122109106D01*
X138251569Y-122111428D01*
X138251568Y-122111429D01*
X138061320Y-122200143D01*
X138061317Y-122200145D01*
X138056339Y-122202466D01*
X137875380Y-122329174D01*
X137719174Y-122485380D01*
X137592466Y-122666339D01*
X137499106Y-122866550D01*
X137441930Y-123079932D01*
X137422677Y-123300000D01*
X122629003Y-123300000D01*
X122684920Y-123101730D01*
X122686204Y-123096259D01*
X122764315Y-122680883D01*
X122765102Y-122675346D01*
X122806035Y-122254102D01*
X122806308Y-122249665D01*
X122812788Y-122002233D01*
X122812746Y-121997762D01*
X122807360Y-121876825D01*
X173188855Y-121876825D01*
X173196600Y-122299410D01*
X173196950Y-122304976D01*
X173242231Y-122725208D01*
X173243078Y-122730746D01*
X173325535Y-123145286D01*
X173326864Y-123150698D01*
X173445852Y-123556289D01*
X173447658Y-123561564D01*
X173602219Y-123954948D01*
X173604501Y-123960072D01*
X173793416Y-124338150D01*
X173796140Y-124343043D01*
X174017917Y-124702833D01*
X174021068Y-124707469D01*
X174273955Y-125046127D01*
X174277488Y-125050444D01*
X174413222Y-125201988D01*
X174426717Y-125210351D01*
X174436128Y-125204662D01*
X174834283Y-124806507D01*
X175719581Y-123921210D01*
X175742389Y-123898402D01*
X176245668Y-123395122D01*
X177627978Y-122012812D01*
X177635592Y-121998868D01*
X177635461Y-121997035D01*
X177631210Y-121990420D01*
X176245669Y-120604879D01*
X175360372Y-119719581D01*
X174834284Y-119193494D01*
X174435561Y-118794771D01*
X174422253Y-118787504D01*
X174412214Y-118794626D01*
X174168223Y-119087994D01*
X174164828Y-119092467D01*
X173924528Y-119440152D01*
X173921549Y-119444902D01*
X173713106Y-119812575D01*
X173710562Y-119817568D01*
X173535629Y-120202312D01*
X173533538Y-120207511D01*
X173393498Y-120606290D01*
X173391877Y-120611659D01*
X173287840Y-121021303D01*
X173286706Y-121026776D01*
X173219496Y-121444054D01*
X173218851Y-121449632D01*
X173189002Y-121871204D01*
X173188855Y-121876825D01*
X122807360Y-121876825D01*
X122793917Y-121574973D01*
X122793419Y-121569386D01*
X122737155Y-121150499D01*
X122736162Y-121144976D01*
X122642883Y-120732748D01*
X122641410Y-120727361D01*
X122511847Y-120325025D01*
X122509910Y-120319815D01*
X122345098Y-119930599D01*
X122342683Y-119925536D01*
X122143936Y-119552535D01*
X122141085Y-119547713D01*
X121909974Y-119193865D01*
X121906692Y-119189297D01*
X121645030Y-118857380D01*
X121641382Y-118853155D01*
X121588103Y-118796715D01*
X121574389Y-118788705D01*
X121573517Y-118788742D01*
X121565438Y-118793772D01*
X121165717Y-119193493D01*
X120280419Y-120078790D01*
X119754332Y-120604878D01*
X118372022Y-121987188D01*
X118364408Y-122001132D01*
X117641922Y-122001132D01*
X116245669Y-120604879D01*
X115360372Y-119719581D01*
X114834284Y-119193494D01*
X114435561Y-118794771D01*
X114422253Y-118787504D01*
X114412214Y-118794626D01*
X114168223Y-119087994D01*
X114164828Y-119092467D01*
X113924528Y-119440152D01*
X113921549Y-119444902D01*
X113743611Y-119758767D01*
X113692614Y-119808162D01*
X113623009Y-119822146D01*
X113556892Y-119796277D01*
X113515257Y-119738771D01*
X113508000Y-119696626D01*
X113508000Y-118424456D01*
X114788031Y-118424456D01*
X114794139Y-118434929D01*
X115193493Y-118834283D01*
X115719580Y-119360371D01*
X116604878Y-120245668D01*
X117987188Y-121627978D01*
X118001132Y-121635592D01*
X118002965Y-121635461D01*
X118009580Y-121631210D01*
X119395121Y-120245669D01*
X120280419Y-119360372D01*
X120806506Y-118834284D01*
X121202754Y-118438036D01*
X121210169Y-118424456D01*
X174788031Y-118424456D01*
X174794139Y-118434929D01*
X175193493Y-118834283D01*
X175719580Y-119360371D01*
X176604878Y-120245668D01*
X177987188Y-121627978D01*
X178001132Y-121635592D01*
X178002965Y-121635461D01*
X178009580Y-121631210D01*
X179395121Y-120245669D01*
X180280419Y-119360372D01*
X180806506Y-118834284D01*
X181202754Y-118438036D01*
X181210316Y-118424187D01*
X181203987Y-118414962D01*
X181030928Y-118261582D01*
X181026561Y-118258046D01*
X180686600Y-118006948D01*
X180681947Y-118003821D01*
X180320995Y-117783926D01*
X180316094Y-117781232D01*
X179937027Y-117594297D01*
X179931904Y-117592048D01*
X179537707Y-117439545D01*
X179532417Y-117437765D01*
X179126218Y-117320904D01*
X179120794Y-117319602D01*
X178705822Y-117239316D01*
X178700293Y-117238500D01*
X178279828Y-117195420D01*
X178274247Y-117195098D01*
X177851635Y-117189566D01*
X177846024Y-117189742D01*
X177424593Y-117221800D01*
X177419036Y-117222472D01*
X177002128Y-117291864D01*
X176996631Y-117293032D01*
X176587547Y-117399209D01*
X176582181Y-117400861D01*
X176184153Y-117542983D01*
X176178965Y-117545100D01*
X175795133Y-117722050D01*
X175790164Y-117724614D01*
X175423581Y-117934984D01*
X175418848Y-117937987D01*
X175072420Y-118180109D01*
X175067979Y-118183517D01*
X174796476Y-118411739D01*
X174788031Y-118424456D01*
X121210169Y-118424456D01*
X121210316Y-118424187D01*
X121203987Y-118414962D01*
X121030928Y-118261582D01*
X121026561Y-118258046D01*
X120686600Y-118006948D01*
X120681947Y-118003821D01*
X120320995Y-117783926D01*
X120316094Y-117781232D01*
X119937027Y-117594297D01*
X119931904Y-117592048D01*
X119537707Y-117439545D01*
X119532417Y-117437765D01*
X119126218Y-117320904D01*
X119120794Y-117319602D01*
X118705822Y-117239316D01*
X118700293Y-117238500D01*
X118279828Y-117195420D01*
X118274247Y-117195098D01*
X117851635Y-117189566D01*
X117846024Y-117189742D01*
X117424593Y-117221800D01*
X117419036Y-117222472D01*
X117002128Y-117291864D01*
X116996631Y-117293032D01*
X116587547Y-117399209D01*
X116582181Y-117400861D01*
X116184153Y-117542983D01*
X116178965Y-117545100D01*
X115795133Y-117722050D01*
X115790164Y-117724614D01*
X115423581Y-117934984D01*
X115418848Y-117937987D01*
X115072420Y-118180109D01*
X115067979Y-118183517D01*
X114796476Y-118411739D01*
X114788031Y-118424456D01*
X113508000Y-118424456D01*
X113508000Y-116342204D01*
X173008151Y-116342204D01*
X173012720Y-116348735D01*
X173225736Y-116479271D01*
X173234530Y-116483752D01*
X173466492Y-116579834D01*
X173475877Y-116582883D01*
X173720017Y-116641496D01*
X173729764Y-116643039D01*
X173980070Y-116662739D01*
X173989930Y-116662739D01*
X174240236Y-116643039D01*
X174249983Y-116641496D01*
X174494123Y-116582883D01*
X174503508Y-116579834D01*
X174735470Y-116483752D01*
X174744264Y-116479271D01*
X174955875Y-116349596D01*
X174961922Y-116340330D01*
X174955915Y-116330125D01*
X173997812Y-115372022D01*
X173983868Y-115364408D01*
X173982035Y-115364539D01*
X173975420Y-115368790D01*
X173015544Y-116328666D01*
X173008151Y-116342204D01*
X113508000Y-116342204D01*
X113508000Y-115004930D01*
X172322261Y-115004930D01*
X172341961Y-115255236D01*
X172343504Y-115264983D01*
X172402117Y-115509123D01*
X172405166Y-115518508D01*
X172501248Y-115750470D01*
X172505729Y-115759264D01*
X172635404Y-115970875D01*
X172644670Y-115976922D01*
X172654875Y-115970915D01*
X173612978Y-115012812D01*
X173619356Y-115001132D01*
X174349408Y-115001132D01*
X174349539Y-115002965D01*
X174353790Y-115009580D01*
X175313666Y-115969456D01*
X175327204Y-115976849D01*
X175333735Y-115972280D01*
X175464271Y-115759264D01*
X175468752Y-115750470D01*
X175564834Y-115518508D01*
X175567883Y-115509123D01*
X175626496Y-115264983D01*
X175628039Y-115255236D01*
X175647739Y-115004930D01*
X175647739Y-114995070D01*
X175630893Y-114781022D01*
X175645489Y-114711542D01*
X175695332Y-114660982D01*
X175764596Y-114645396D01*
X175831292Y-114669731D01*
X175843238Y-114679739D01*
X176051878Y-114877731D01*
X176288113Y-115047483D01*
X176545200Y-115183603D01*
X176549223Y-115185075D01*
X176549227Y-115185077D01*
X176573709Y-115194036D01*
X176818382Y-115283574D01*
X177102604Y-115345544D01*
X177131650Y-115347830D01*
X177328297Y-115363307D01*
X177328304Y-115363307D01*
X177330753Y-115363500D01*
X177488121Y-115363500D01*
X177490257Y-115363354D01*
X177490268Y-115363354D01*
X177700949Y-115348991D01*
X177700955Y-115348990D01*
X177705226Y-115348699D01*
X177709421Y-115347830D01*
X177709423Y-115347830D01*
X177847654Y-115319204D01*
X177990081Y-115289709D01*
X178264295Y-115192605D01*
X178522793Y-115059184D01*
X178526294Y-115056723D01*
X178526298Y-115056721D01*
X178641792Y-114975550D01*
X178760792Y-114891915D01*
X178880127Y-114781022D01*
X178970745Y-114696815D01*
X178970748Y-114696812D01*
X178973888Y-114693894D01*
X178987316Y-114677489D01*
X179140056Y-114490877D01*
X179158139Y-114468784D01*
X179310133Y-114220752D01*
X179318869Y-114200852D01*
X179393628Y-114030544D01*
X179427059Y-113954386D01*
X179433073Y-113933276D01*
X179486569Y-113745475D01*
X179506754Y-113674616D01*
X179508882Y-113659670D01*
X179547137Y-113390870D01*
X179547742Y-113386619D01*
X179549265Y-113095723D01*
X179511295Y-112807313D01*
X179434535Y-112526724D01*
X179320404Y-112259148D01*
X179171015Y-112009538D01*
X179156337Y-111991216D01*
X179081093Y-111897297D01*
X178989133Y-111782511D01*
X178778122Y-111582269D01*
X178541887Y-111412517D01*
X178284800Y-111276397D01*
X178280777Y-111274925D01*
X178280773Y-111274923D01*
X178015649Y-111177901D01*
X178015647Y-111177900D01*
X178011618Y-111176426D01*
X177727396Y-111114456D01*
X177683598Y-111111009D01*
X177501703Y-111096693D01*
X177501696Y-111096693D01*
X177499247Y-111096500D01*
X177341879Y-111096500D01*
X177339743Y-111096646D01*
X177339732Y-111096646D01*
X177129051Y-111111009D01*
X177129045Y-111111010D01*
X177124774Y-111111301D01*
X177120579Y-111112170D01*
X177120577Y-111112170D01*
X177105130Y-111115369D01*
X176839919Y-111170291D01*
X176565705Y-111267395D01*
X176561896Y-111269361D01*
X176316825Y-111395852D01*
X176307207Y-111400816D01*
X176303706Y-111403277D01*
X176303702Y-111403279D01*
X176218997Y-111462811D01*
X176069208Y-111568085D01*
X175856112Y-111766106D01*
X175853398Y-111769422D01*
X175853395Y-111769425D01*
X175757254Y-111886887D01*
X175671861Y-111991216D01*
X175519867Y-112239248D01*
X175518148Y-112243165D01*
X175518146Y-112243168D01*
X175509397Y-112263100D01*
X175402941Y-112505614D01*
X175401765Y-112509742D01*
X175401764Y-112509745D01*
X175381516Y-112580825D01*
X175323246Y-112785384D01*
X175322642Y-112789626D01*
X175322641Y-112789632D01*
X175320125Y-112807313D01*
X175282258Y-113073381D01*
X175280735Y-113364277D01*
X175281294Y-113368521D01*
X175281294Y-113368525D01*
X175288093Y-113420166D01*
X175318705Y-113652687D01*
X175319838Y-113656827D01*
X175319838Y-113656829D01*
X175381469Y-113882115D01*
X175380151Y-113953100D01*
X175340665Y-114012103D01*
X175323849Y-114023950D01*
X175315125Y-114029085D01*
X174357022Y-114987188D01*
X174349408Y-115001132D01*
X173619356Y-115001132D01*
X173620592Y-114998868D01*
X173620461Y-114997035D01*
X173616210Y-114990420D01*
X172656334Y-114030544D01*
X172642796Y-114023151D01*
X172636265Y-114027720D01*
X172505729Y-114240736D01*
X172501248Y-114249530D01*
X172405166Y-114481492D01*
X172402117Y-114490877D01*
X172343504Y-114735017D01*
X172341961Y-114744764D01*
X172322261Y-114995070D01*
X172322261Y-115004930D01*
X113508000Y-115004930D01*
X113508000Y-113740000D01*
X167011693Y-113740000D01*
X167030885Y-113959371D01*
X167087880Y-114172076D01*
X167108750Y-114216832D01*
X167178618Y-114366666D01*
X167178621Y-114366671D01*
X167180944Y-114371653D01*
X167184100Y-114376160D01*
X167184101Y-114376162D01*
X167264426Y-114490877D01*
X167307251Y-114552038D01*
X167462962Y-114707749D01*
X167467471Y-114710906D01*
X167467473Y-114710908D01*
X167542241Y-114763261D01*
X167643346Y-114834056D01*
X167842924Y-114927120D01*
X168055629Y-114984115D01*
X168275000Y-115003307D01*
X168494371Y-114984115D01*
X168707076Y-114927120D01*
X168906654Y-114834056D01*
X169007759Y-114763261D01*
X169082527Y-114710908D01*
X169082529Y-114710906D01*
X169087038Y-114707749D01*
X169242749Y-114552038D01*
X169285575Y-114490877D01*
X169365899Y-114376162D01*
X169365900Y-114376160D01*
X169369056Y-114371653D01*
X169371379Y-114366671D01*
X169371382Y-114366666D01*
X169441250Y-114216832D01*
X169462120Y-114172076D01*
X169519115Y-113959371D01*
X169538307Y-113740000D01*
X169531279Y-113659670D01*
X173008078Y-113659670D01*
X173014085Y-113669875D01*
X173972188Y-114627978D01*
X173986132Y-114635592D01*
X173987965Y-114635461D01*
X173994580Y-114631210D01*
X174954456Y-113671334D01*
X174961849Y-113657796D01*
X174957280Y-113651265D01*
X174744264Y-113520729D01*
X174735470Y-113516248D01*
X174503508Y-113420166D01*
X174494123Y-113417117D01*
X174249983Y-113358504D01*
X174240236Y-113356961D01*
X173989930Y-113337261D01*
X173980070Y-113337261D01*
X173729764Y-113356961D01*
X173720017Y-113358504D01*
X173475877Y-113417117D01*
X173466492Y-113420166D01*
X173234530Y-113516248D01*
X173225736Y-113520729D01*
X173014125Y-113650404D01*
X173008078Y-113659670D01*
X169531279Y-113659670D01*
X169519115Y-113520629D01*
X169462120Y-113307924D01*
X169418585Y-113214562D01*
X169371382Y-113113334D01*
X169371379Y-113113329D01*
X169369056Y-113108347D01*
X169242749Y-112927962D01*
X169087038Y-112772251D01*
X168976947Y-112695164D01*
X168932620Y-112639708D01*
X168925311Y-112569089D01*
X168950796Y-112513282D01*
X168960523Y-112501112D01*
X168953457Y-112487668D01*
X168287811Y-111822021D01*
X168273868Y-111814408D01*
X168272034Y-111814539D01*
X168265420Y-111818790D01*
X167595820Y-112488391D01*
X167589393Y-112500161D01*
X167600646Y-112514707D01*
X167626509Y-112580825D01*
X167612521Y-112650430D01*
X167573259Y-112695020D01*
X167467478Y-112769088D01*
X167467472Y-112769093D01*
X167462962Y-112772251D01*
X167307251Y-112927962D01*
X167180944Y-113108347D01*
X167178621Y-113113329D01*
X167178618Y-113113334D01*
X167131415Y-113214562D01*
X167087880Y-113307924D01*
X167030885Y-113520629D01*
X167011693Y-113740000D01*
X113508000Y-113740000D01*
X113508000Y-111455475D01*
X167012674Y-111455475D01*
X167030901Y-111663804D01*
X167032804Y-111674599D01*
X167086928Y-111876595D01*
X167090674Y-111886887D01*
X167179054Y-112076417D01*
X167184534Y-112085907D01*
X167213411Y-112127149D01*
X167223887Y-112135523D01*
X167237334Y-112128455D01*
X167902979Y-111462811D01*
X167909356Y-111451132D01*
X168639408Y-111451132D01*
X168639539Y-111452966D01*
X168643790Y-111459580D01*
X169313391Y-112129180D01*
X169325161Y-112135607D01*
X169337176Y-112126311D01*
X169365466Y-112085907D01*
X169370946Y-112076417D01*
X169459326Y-111886887D01*
X169463072Y-111876595D01*
X169517196Y-111674599D01*
X169519099Y-111663804D01*
X169537326Y-111455475D01*
X169537326Y-111444525D01*
X169519099Y-111236196D01*
X169517196Y-111225401D01*
X169463072Y-111023405D01*
X169459326Y-111013113D01*
X169370946Y-110823583D01*
X169365466Y-110814093D01*
X169336589Y-110772851D01*
X169326113Y-110764477D01*
X169312666Y-110771545D01*
X168647021Y-111437189D01*
X168639408Y-111451132D01*
X167909356Y-111451132D01*
X167910592Y-111448868D01*
X167910461Y-111447034D01*
X167906210Y-111440420D01*
X167236609Y-110770820D01*
X167224839Y-110764393D01*
X167212824Y-110773689D01*
X167184534Y-110814093D01*
X167179054Y-110823583D01*
X167090674Y-111013113D01*
X167086928Y-111023405D01*
X167032804Y-111225401D01*
X167030901Y-111236196D01*
X167012674Y-111444525D01*
X167012674Y-111455475D01*
X113508000Y-111455475D01*
X113508000Y-110398887D01*
X167589477Y-110398887D01*
X167596545Y-110412334D01*
X168262189Y-111077979D01*
X168276132Y-111085592D01*
X168277966Y-111085461D01*
X168284580Y-111081210D01*
X168933789Y-110432000D01*
X171831693Y-110432000D01*
X171850885Y-110651371D01*
X171907880Y-110864076D01*
X171910205Y-110869061D01*
X171998618Y-111058666D01*
X171998621Y-111058671D01*
X172000944Y-111063653D01*
X172004100Y-111068160D01*
X172004101Y-111068162D01*
X172079909Y-111176426D01*
X172127251Y-111244038D01*
X172282962Y-111399749D01*
X172287471Y-111402906D01*
X172287473Y-111402908D01*
X172353111Y-111448868D01*
X172463346Y-111526056D01*
X172662924Y-111619120D01*
X172875629Y-111676115D01*
X173095000Y-111695307D01*
X173314371Y-111676115D01*
X173527076Y-111619120D01*
X173726654Y-111526056D01*
X173836889Y-111448868D01*
X173902527Y-111402908D01*
X173902529Y-111402906D01*
X173907038Y-111399749D01*
X174062749Y-111244038D01*
X174110092Y-111176426D01*
X174185899Y-111068162D01*
X174185900Y-111068160D01*
X174189056Y-111063653D01*
X174191379Y-111058671D01*
X174191382Y-111058666D01*
X174279795Y-110869061D01*
X174282120Y-110864076D01*
X174283543Y-110858764D01*
X174283547Y-110858754D01*
X174325651Y-110701624D01*
X174362602Y-110641002D01*
X174426463Y-110609980D01*
X174479968Y-110612529D01*
X174650401Y-110658196D01*
X174661196Y-110660099D01*
X174869525Y-110678326D01*
X174880475Y-110678326D01*
X175088804Y-110660099D01*
X175099599Y-110658196D01*
X175301595Y-110604072D01*
X175311887Y-110600326D01*
X175501416Y-110511947D01*
X175510912Y-110506464D01*
X175552148Y-110477590D01*
X175560523Y-110467113D01*
X175553455Y-110453667D01*
X174604884Y-109505095D01*
X174570859Y-109442783D01*
X174572694Y-109417132D01*
X175239408Y-109417132D01*
X175239539Y-109418966D01*
X175243790Y-109425580D01*
X175913391Y-110095180D01*
X175925161Y-110101607D01*
X175937176Y-110092311D01*
X175965466Y-110051907D01*
X175970946Y-110042417D01*
X176059326Y-109852887D01*
X176063072Y-109842595D01*
X176117196Y-109640599D01*
X176119099Y-109629804D01*
X176137326Y-109421475D01*
X176137326Y-109410525D01*
X176119099Y-109202196D01*
X176117196Y-109191401D01*
X176063072Y-108989405D01*
X176059326Y-108979113D01*
X175970946Y-108789583D01*
X175965466Y-108780093D01*
X175936589Y-108738851D01*
X175926113Y-108730477D01*
X175912666Y-108737545D01*
X175247021Y-109403189D01*
X175239408Y-109417132D01*
X174572694Y-109417132D01*
X174575924Y-109371967D01*
X174604885Y-109326905D01*
X174875000Y-109056790D01*
X175391784Y-108540005D01*
X175427630Y-108514905D01*
X175482981Y-108489095D01*
X175506654Y-108478056D01*
X175511152Y-108474907D01*
X175511158Y-108474903D01*
X175682527Y-108354908D01*
X175682529Y-108354906D01*
X175687038Y-108351749D01*
X175842749Y-108196038D01*
X175849641Y-108186196D01*
X175965899Y-108020162D01*
X175965900Y-108020160D01*
X175969056Y-108015653D01*
X175971379Y-108010671D01*
X175971382Y-108010666D01*
X176018585Y-107909438D01*
X176062120Y-107816076D01*
X176119115Y-107603371D01*
X176138307Y-107384000D01*
X176119115Y-107164629D01*
X176062120Y-106951924D01*
X176010523Y-106841273D01*
X175971382Y-106757334D01*
X175971379Y-106757329D01*
X175969056Y-106752347D01*
X175938648Y-106708920D01*
X175845908Y-106576473D01*
X175845906Y-106576470D01*
X175842749Y-106571962D01*
X175687038Y-106416251D01*
X175656266Y-106394704D01*
X175511158Y-106293097D01*
X175511152Y-106293093D01*
X175506654Y-106289944D01*
X175427631Y-106253095D01*
X175391786Y-106227996D01*
X174604885Y-105441095D01*
X174570859Y-105378783D01*
X174572694Y-105353132D01*
X175239408Y-105353132D01*
X175239539Y-105354966D01*
X175243790Y-105361580D01*
X175913391Y-106031180D01*
X175925161Y-106037607D01*
X175937176Y-106028311D01*
X175965466Y-105987907D01*
X175970946Y-105978417D01*
X176059326Y-105788887D01*
X176063072Y-105778595D01*
X176117196Y-105576599D01*
X176119099Y-105565804D01*
X176137326Y-105357475D01*
X176137326Y-105346525D01*
X176119099Y-105138196D01*
X176117196Y-105127401D01*
X176063072Y-104925405D01*
X176059326Y-104915113D01*
X175970946Y-104725583D01*
X175965466Y-104716093D01*
X175936589Y-104674851D01*
X175926113Y-104666477D01*
X175912666Y-104673545D01*
X175247021Y-105339189D01*
X175239408Y-105353132D01*
X174572694Y-105353132D01*
X174575924Y-105307968D01*
X174604885Y-105262905D01*
X174875000Y-104992790D01*
X175391784Y-104476005D01*
X175427630Y-104450905D01*
X175501670Y-104416380D01*
X175501669Y-104416380D01*
X175506654Y-104414056D01*
X175511152Y-104410907D01*
X175511158Y-104410903D01*
X175682527Y-104290908D01*
X175682529Y-104290906D01*
X175687038Y-104287749D01*
X175842749Y-104132038D01*
X175849704Y-104122106D01*
X175965899Y-103956162D01*
X175965900Y-103956160D01*
X175969056Y-103951653D01*
X175971379Y-103946671D01*
X175971382Y-103946666D01*
X176018585Y-103845438D01*
X176062120Y-103752076D01*
X176119115Y-103539371D01*
X176138307Y-103320000D01*
X176119115Y-103100629D01*
X176062120Y-102887924D01*
X176011729Y-102779860D01*
X175971382Y-102693334D01*
X175971379Y-102693329D01*
X175969056Y-102688347D01*
X175958391Y-102673116D01*
X175845908Y-102512473D01*
X175845906Y-102512470D01*
X175842749Y-102507962D01*
X175687038Y-102352251D01*
X175630697Y-102312800D01*
X175598678Y-102290380D01*
X175506654Y-102225944D01*
X175307076Y-102132880D01*
X175094371Y-102075885D01*
X174875000Y-102056693D01*
X174655629Y-102075885D01*
X174442924Y-102132880D01*
X174355469Y-102173661D01*
X174248334Y-102223618D01*
X174248329Y-102223621D01*
X174243347Y-102225944D01*
X174238840Y-102229100D01*
X174238838Y-102229101D01*
X174067473Y-102349092D01*
X174067470Y-102349094D01*
X174062962Y-102352251D01*
X173907251Y-102507962D01*
X173904094Y-102512470D01*
X173904092Y-102512473D01*
X173791609Y-102673116D01*
X173780944Y-102688347D01*
X173778621Y-102693329D01*
X173778618Y-102693334D01*
X173738271Y-102779860D01*
X173687880Y-102887924D01*
X173663171Y-102980140D01*
X173644480Y-103049893D01*
X173607528Y-103110515D01*
X173543667Y-103141537D01*
X173490162Y-103138988D01*
X173319684Y-103093308D01*
X173319677Y-103093307D01*
X173314371Y-103091885D01*
X173095000Y-103072693D01*
X172875629Y-103091885D01*
X172662924Y-103148880D01*
X172569562Y-103192415D01*
X172468334Y-103239618D01*
X172468329Y-103239621D01*
X172463347Y-103241944D01*
X172458840Y-103245100D01*
X172458838Y-103245101D01*
X172287473Y-103365092D01*
X172287470Y-103365094D01*
X172282962Y-103368251D01*
X172127251Y-103523962D01*
X172124094Y-103528470D01*
X172124092Y-103528473D01*
X172049087Y-103635592D01*
X172000944Y-103704347D01*
X171998621Y-103709329D01*
X171998618Y-103709334D01*
X171976363Y-103757061D01*
X171907880Y-103903924D01*
X171850885Y-104116629D01*
X171831693Y-104336000D01*
X171850885Y-104555371D01*
X171907880Y-104768076D01*
X171928871Y-104813091D01*
X171998618Y-104962666D01*
X171998621Y-104962671D01*
X172000944Y-104967653D01*
X172004100Y-104972160D01*
X172004101Y-104972162D01*
X172122258Y-105140907D01*
X172127251Y-105148038D01*
X172242118Y-105262905D01*
X172276144Y-105325217D01*
X172271079Y-105396032D01*
X172242118Y-105441095D01*
X172127251Y-105555962D01*
X172124094Y-105560470D01*
X172124092Y-105560473D01*
X172006313Y-105728679D01*
X172000944Y-105736347D01*
X171998621Y-105741329D01*
X171998618Y-105741334D01*
X171972662Y-105796998D01*
X171907880Y-105935924D01*
X171850885Y-106148629D01*
X171831693Y-106368000D01*
X171850885Y-106587371D01*
X171907880Y-106800076D01*
X171938301Y-106865314D01*
X171998618Y-106994666D01*
X171998621Y-106994671D01*
X172000944Y-106999653D01*
X172004100Y-107004160D01*
X172004101Y-107004162D01*
X172120297Y-107170106D01*
X172127251Y-107180038D01*
X172282962Y-107335749D01*
X172287471Y-107338906D01*
X172287473Y-107338908D01*
X172458842Y-107458903D01*
X172458848Y-107458907D01*
X172463346Y-107462056D01*
X172542369Y-107498905D01*
X172578214Y-107524004D01*
X173365115Y-108310905D01*
X173399141Y-108373217D01*
X173394076Y-108444032D01*
X173365115Y-108489095D01*
X173095000Y-108759210D01*
X172578217Y-109275994D01*
X172542372Y-109301094D01*
X172468334Y-109335618D01*
X172468329Y-109335621D01*
X172463347Y-109337944D01*
X172458840Y-109341100D01*
X172458838Y-109341101D01*
X172287473Y-109461092D01*
X172287470Y-109461094D01*
X172282962Y-109464251D01*
X172127251Y-109619962D01*
X172124094Y-109624470D01*
X172124092Y-109624473D01*
X172004101Y-109795838D01*
X172000944Y-109800347D01*
X171998621Y-109805329D01*
X171998618Y-109805334D01*
X171981243Y-109842595D01*
X171907880Y-109999924D01*
X171850885Y-110212629D01*
X171831693Y-110432000D01*
X168933789Y-110432000D01*
X168954180Y-110411609D01*
X168960607Y-110399839D01*
X168951313Y-110387825D01*
X168910912Y-110359536D01*
X168901416Y-110354053D01*
X168711887Y-110265674D01*
X168701595Y-110261928D01*
X168499599Y-110207804D01*
X168488804Y-110205901D01*
X168280475Y-110187674D01*
X168269525Y-110187674D01*
X168061196Y-110205901D01*
X168050401Y-110207804D01*
X167848405Y-110261928D01*
X167838113Y-110265674D01*
X167648583Y-110354054D01*
X167639093Y-110359534D01*
X167597851Y-110388411D01*
X167589477Y-110398887D01*
X113508000Y-110398887D01*
X113508000Y-108405475D01*
X171832674Y-108405475D01*
X171850901Y-108613804D01*
X171852804Y-108624599D01*
X171906928Y-108826595D01*
X171910674Y-108836887D01*
X171999054Y-109026417D01*
X172004534Y-109035907D01*
X172033411Y-109077149D01*
X172043887Y-109085523D01*
X172057334Y-109078455D01*
X172722979Y-108412811D01*
X172730592Y-108398868D01*
X172730461Y-108397034D01*
X172726210Y-108390420D01*
X172056609Y-107720820D01*
X172044839Y-107714393D01*
X172032824Y-107723689D01*
X172004534Y-107764093D01*
X171999054Y-107773583D01*
X171910674Y-107963113D01*
X171906928Y-107973405D01*
X171852804Y-108175401D01*
X171850901Y-108186196D01*
X171832674Y-108394525D01*
X171832674Y-108405475D01*
X113508000Y-108405475D01*
X113508000Y-107673034D01*
X116261521Y-107673034D01*
X116270817Y-107685049D01*
X116312081Y-107713942D01*
X116321576Y-107719425D01*
X116511740Y-107808099D01*
X116522032Y-107811845D01*
X116724704Y-107866151D01*
X116735499Y-107868054D01*
X116944525Y-107886342D01*
X116955475Y-107886342D01*
X117164501Y-107868054D01*
X117175296Y-107866151D01*
X117377968Y-107811845D01*
X117388260Y-107808099D01*
X117578424Y-107719425D01*
X117587919Y-107713942D01*
X117630021Y-107684462D01*
X117638396Y-107673985D01*
X117631328Y-107660538D01*
X116962812Y-106992022D01*
X116948868Y-106984408D01*
X116947035Y-106984539D01*
X116940420Y-106988790D01*
X116267951Y-107661259D01*
X116261521Y-107673034D01*
X113508000Y-107673034D01*
X113508000Y-106625475D01*
X115683658Y-106625475D01*
X115701946Y-106834501D01*
X115703849Y-106845296D01*
X115758155Y-107047968D01*
X115761901Y-107058260D01*
X115850577Y-107248425D01*
X115856055Y-107257915D01*
X115885539Y-107300022D01*
X115896015Y-107308396D01*
X115909463Y-107301327D01*
X116577978Y-106632812D01*
X116584356Y-106621132D01*
X117314408Y-106621132D01*
X117314539Y-106622965D01*
X117318790Y-106629580D01*
X117991259Y-107302049D01*
X118003033Y-107308479D01*
X118015049Y-107299183D01*
X118043945Y-107257915D01*
X118049423Y-107248425D01*
X118138099Y-107058260D01*
X118141845Y-107047968D01*
X118196151Y-106845296D01*
X118198054Y-106834501D01*
X118216342Y-106625475D01*
X118216342Y-106614525D01*
X118205328Y-106488640D01*
X128436463Y-106488640D01*
X128454163Y-106669160D01*
X128511418Y-106841273D01*
X128515065Y-106847295D01*
X128515066Y-106847297D01*
X128600757Y-106988790D01*
X128605380Y-106996424D01*
X128610269Y-107001487D01*
X128610270Y-107001488D01*
X128625357Y-107017111D01*
X128731382Y-107126902D01*
X128883159Y-107226222D01*
X128889763Y-107228678D01*
X128889765Y-107228679D01*
X129046558Y-107286990D01*
X129046560Y-107286990D01*
X129053168Y-107289448D01*
X129126127Y-107299183D01*
X129225980Y-107312507D01*
X129225984Y-107312507D01*
X129232961Y-107313438D01*
X129239972Y-107312800D01*
X129239976Y-107312800D01*
X129382459Y-107299832D01*
X129413600Y-107296998D01*
X129420302Y-107294820D01*
X129420304Y-107294820D01*
X129579409Y-107243124D01*
X129579412Y-107243123D01*
X129586108Y-107240947D01*
X129704945Y-107170106D01*
X129735860Y-107151677D01*
X129735862Y-107151676D01*
X129741912Y-107148069D01*
X129873266Y-107022982D01*
X129973643Y-106871902D01*
X130038055Y-106702338D01*
X130039035Y-106695366D01*
X130062748Y-106526639D01*
X130062748Y-106526636D01*
X130063299Y-106522717D01*
X130063616Y-106500000D01*
X130043397Y-106319745D01*
X130041080Y-106313091D01*
X129986064Y-106155106D01*
X129986062Y-106155103D01*
X129983745Y-106148448D01*
X129887626Y-105994624D01*
X129871532Y-105978417D01*
X129764778Y-105870915D01*
X129764774Y-105870912D01*
X129759815Y-105865918D01*
X129748697Y-105858862D01*
X129647782Y-105794820D01*
X129606666Y-105768727D01*
X129577463Y-105758328D01*
X129442425Y-105710243D01*
X129442420Y-105710242D01*
X129435790Y-105707881D01*
X129428802Y-105707048D01*
X129428799Y-105707047D01*
X129305698Y-105692368D01*
X129255680Y-105686404D01*
X129248677Y-105687140D01*
X129248676Y-105687140D01*
X129082288Y-105704628D01*
X129082286Y-105704629D01*
X129075288Y-105705364D01*
X128903579Y-105763818D01*
X128865914Y-105786990D01*
X128755095Y-105855166D01*
X128755092Y-105855168D01*
X128749088Y-105858862D01*
X128744053Y-105863793D01*
X128744050Y-105863795D01*
X128624525Y-105980843D01*
X128619493Y-105985771D01*
X128521235Y-106138238D01*
X128518826Y-106144858D01*
X128518824Y-106144861D01*
X128461606Y-106302066D01*
X128459197Y-106308685D01*
X128436463Y-106488640D01*
X118205328Y-106488640D01*
X118198054Y-106405499D01*
X118196151Y-106394704D01*
X118141845Y-106192032D01*
X118138099Y-106181740D01*
X118049423Y-105991575D01*
X118043945Y-105982085D01*
X118014461Y-105939978D01*
X118003985Y-105931604D01*
X117990537Y-105938673D01*
X117322022Y-106607188D01*
X117314408Y-106621132D01*
X116584356Y-106621132D01*
X116585592Y-106618868D01*
X116585461Y-106617035D01*
X116581210Y-106610420D01*
X115908741Y-105937951D01*
X115896967Y-105931521D01*
X115884951Y-105940817D01*
X115856055Y-105982085D01*
X115850577Y-105991575D01*
X115761901Y-106181740D01*
X115758155Y-106192032D01*
X115703849Y-106394704D01*
X115701946Y-106405499D01*
X115683658Y-106614525D01*
X115683658Y-106625475D01*
X113508000Y-106625475D01*
X113508000Y-104080000D01*
X115682677Y-104080000D01*
X115701930Y-104300068D01*
X115731628Y-104410903D01*
X115754062Y-104494624D01*
X115759106Y-104513450D01*
X115761428Y-104518431D01*
X115761429Y-104518432D01*
X115834369Y-104674851D01*
X115852466Y-104713661D01*
X115979174Y-104894620D01*
X116135380Y-105050826D01*
X116139888Y-105053983D01*
X116139891Y-105053985D01*
X116311829Y-105174377D01*
X116316338Y-105177534D01*
X116321320Y-105179857D01*
X116321325Y-105179860D01*
X116441893Y-105236081D01*
X116495178Y-105282998D01*
X116514639Y-105351275D01*
X116494097Y-105419235D01*
X116441893Y-105464471D01*
X116321575Y-105520576D01*
X116312085Y-105526055D01*
X116269978Y-105555539D01*
X116261604Y-105566015D01*
X116268673Y-105579463D01*
X116937188Y-106247978D01*
X116951132Y-106255592D01*
X116952965Y-106255461D01*
X116959580Y-106251210D01*
X117632049Y-105578741D01*
X117638479Y-105566966D01*
X117629183Y-105554951D01*
X117587919Y-105526058D01*
X117578424Y-105520575D01*
X117458107Y-105464471D01*
X117404822Y-105417554D01*
X117385361Y-105349277D01*
X117405903Y-105281317D01*
X117458107Y-105236081D01*
X117578675Y-105179860D01*
X117578680Y-105179857D01*
X117583662Y-105177534D01*
X117588171Y-105174377D01*
X117760109Y-105053985D01*
X117760112Y-105053983D01*
X117764620Y-105050826D01*
X117826806Y-104988640D01*
X120936463Y-104988640D01*
X120954163Y-105169160D01*
X121011418Y-105341273D01*
X121015065Y-105347295D01*
X121015066Y-105347297D01*
X121099879Y-105487340D01*
X121105380Y-105496424D01*
X121110269Y-105501487D01*
X121110270Y-105501488D01*
X121167232Y-105560473D01*
X121231382Y-105626902D01*
X121237278Y-105630760D01*
X121358741Y-105710243D01*
X121383159Y-105726222D01*
X121389763Y-105728678D01*
X121389765Y-105728679D01*
X121546558Y-105786990D01*
X121546560Y-105786990D01*
X121553168Y-105789448D01*
X121636995Y-105800633D01*
X121725980Y-105812507D01*
X121725984Y-105812507D01*
X121732961Y-105813438D01*
X121739972Y-105812800D01*
X121739976Y-105812800D01*
X121882459Y-105799832D01*
X121913600Y-105796998D01*
X121920302Y-105794820D01*
X121920304Y-105794820D01*
X122079409Y-105743124D01*
X122079412Y-105743123D01*
X122086108Y-105740947D01*
X122241912Y-105648069D01*
X122373266Y-105522982D01*
X122473643Y-105371902D01*
X122515423Y-105261917D01*
X122535555Y-105208920D01*
X122535556Y-105208918D01*
X122538055Y-105202338D01*
X122541541Y-105177534D01*
X122562748Y-105026639D01*
X122562748Y-105026636D01*
X122563299Y-105022717D01*
X122563616Y-105000000D01*
X122543397Y-104819745D01*
X122541080Y-104813091D01*
X122515154Y-104738640D01*
X144671463Y-104738640D01*
X144689163Y-104919160D01*
X144746418Y-105091273D01*
X144750065Y-105097295D01*
X144750066Y-105097297D01*
X144813681Y-105202338D01*
X144840380Y-105246424D01*
X144845269Y-105251487D01*
X144845270Y-105251488D01*
X144866027Y-105272982D01*
X144966382Y-105376902D01*
X144972278Y-105380760D01*
X145100202Y-105464471D01*
X145118159Y-105476222D01*
X145124763Y-105478678D01*
X145124765Y-105478679D01*
X145281558Y-105536990D01*
X145281560Y-105536990D01*
X145288168Y-105539448D01*
X145371995Y-105550633D01*
X145460980Y-105562507D01*
X145460984Y-105562507D01*
X145467961Y-105563438D01*
X145474972Y-105562800D01*
X145474976Y-105562800D01*
X145617459Y-105549832D01*
X145648600Y-105546998D01*
X145655302Y-105544820D01*
X145655304Y-105544820D01*
X145814409Y-105493124D01*
X145814412Y-105493123D01*
X145821108Y-105490947D01*
X145976912Y-105398069D01*
X146108266Y-105272982D01*
X146208643Y-105121902D01*
X146249533Y-105014261D01*
X162100294Y-105014261D01*
X162109590Y-105026276D01*
X162139189Y-105047001D01*
X162148677Y-105052479D01*
X162330277Y-105137159D01*
X162340571Y-105140907D01*
X162534122Y-105192769D01*
X162544909Y-105194671D01*
X162744525Y-105212135D01*
X162755475Y-105212135D01*
X162955091Y-105194671D01*
X162965878Y-105192769D01*
X163159429Y-105140907D01*
X163169723Y-105137159D01*
X163351323Y-105052479D01*
X163360811Y-105047001D01*
X163391248Y-105025689D01*
X163399623Y-105015212D01*
X163392554Y-105001764D01*
X162762812Y-104372022D01*
X162748868Y-104364408D01*
X162747035Y-104364539D01*
X162740420Y-104368790D01*
X162106724Y-105002486D01*
X162100294Y-105014261D01*
X146249533Y-105014261D01*
X146261922Y-104981646D01*
X146270555Y-104958920D01*
X146270556Y-104958918D01*
X146273055Y-104952338D01*
X146274035Y-104945366D01*
X146297748Y-104776639D01*
X146297748Y-104776636D01*
X146298299Y-104772717D01*
X146298616Y-104750000D01*
X146278397Y-104569745D01*
X146275241Y-104560681D01*
X146221064Y-104405106D01*
X146221062Y-104405103D01*
X146218745Y-104398448D01*
X146147138Y-104283852D01*
X146126359Y-104250598D01*
X146122626Y-104244624D01*
X146086139Y-104207881D01*
X145999778Y-104120915D01*
X145999774Y-104120912D01*
X145994815Y-104115918D01*
X145987569Y-104111319D01*
X145929590Y-104074525D01*
X145841666Y-104018727D01*
X145804450Y-104005475D01*
X161537865Y-104005475D01*
X161555329Y-104205091D01*
X161557231Y-104215878D01*
X161609093Y-104409429D01*
X161612841Y-104419723D01*
X161697521Y-104601323D01*
X161702999Y-104610811D01*
X161724311Y-104641248D01*
X161734788Y-104649623D01*
X161748236Y-104642554D01*
X162377978Y-104012812D01*
X162384356Y-104001132D01*
X163114408Y-104001132D01*
X163114539Y-104002965D01*
X163118790Y-104009580D01*
X163752486Y-104643276D01*
X163764261Y-104649706D01*
X163776276Y-104640410D01*
X163797001Y-104610811D01*
X163802479Y-104601323D01*
X163887159Y-104419723D01*
X163890907Y-104409429D01*
X163942769Y-104215878D01*
X163944671Y-104205091D01*
X163962135Y-104005475D01*
X163962135Y-103994525D01*
X163944671Y-103794909D01*
X163942769Y-103784122D01*
X163890907Y-103590571D01*
X163887159Y-103580277D01*
X163802479Y-103398677D01*
X163797001Y-103389189D01*
X163775689Y-103358752D01*
X163765212Y-103350377D01*
X163751764Y-103357446D01*
X163122022Y-103987188D01*
X163114408Y-104001132D01*
X162384356Y-104001132D01*
X162385592Y-103998868D01*
X162385461Y-103997035D01*
X162381210Y-103990420D01*
X161747514Y-103356724D01*
X161735739Y-103350294D01*
X161723724Y-103359590D01*
X161702999Y-103389189D01*
X161697521Y-103398677D01*
X161612841Y-103580277D01*
X161609093Y-103590571D01*
X161557231Y-103784122D01*
X161555329Y-103794909D01*
X161537865Y-103994525D01*
X161537865Y-104005475D01*
X145804450Y-104005475D01*
X145797401Y-104002965D01*
X145677425Y-103960243D01*
X145677420Y-103960242D01*
X145670790Y-103957881D01*
X145663802Y-103957048D01*
X145663799Y-103957047D01*
X145540698Y-103942368D01*
X145490680Y-103936404D01*
X145483677Y-103937140D01*
X145483676Y-103937140D01*
X145317288Y-103954628D01*
X145317286Y-103954629D01*
X145310288Y-103955364D01*
X145138579Y-104013818D01*
X145132575Y-104017512D01*
X144990095Y-104105166D01*
X144990092Y-104105168D01*
X144984088Y-104108862D01*
X144979053Y-104113793D01*
X144979050Y-104113795D01*
X144882973Y-104207881D01*
X144854493Y-104235771D01*
X144756235Y-104388238D01*
X144753826Y-104394858D01*
X144753824Y-104394861D01*
X144719332Y-104489627D01*
X144694197Y-104558685D01*
X144671463Y-104738640D01*
X122515154Y-104738640D01*
X122486064Y-104655106D01*
X122486062Y-104655103D01*
X122483745Y-104648448D01*
X122387626Y-104494624D01*
X122373941Y-104480843D01*
X122264778Y-104370915D01*
X122264774Y-104370912D01*
X122259815Y-104365918D01*
X122248697Y-104358862D01*
X122200538Y-104328300D01*
X122106666Y-104268727D01*
X122038977Y-104244624D01*
X121942425Y-104210243D01*
X121942420Y-104210242D01*
X121935790Y-104207881D01*
X121928802Y-104207048D01*
X121928799Y-104207047D01*
X121805698Y-104192368D01*
X121755680Y-104186404D01*
X121748677Y-104187140D01*
X121748676Y-104187140D01*
X121582288Y-104204628D01*
X121582286Y-104204629D01*
X121575288Y-104205364D01*
X121403579Y-104263818D01*
X121364680Y-104287749D01*
X121255095Y-104355166D01*
X121255092Y-104355168D01*
X121249088Y-104358862D01*
X121244053Y-104363793D01*
X121244050Y-104363795D01*
X121124525Y-104480843D01*
X121119493Y-104485771D01*
X121021235Y-104638238D01*
X121018826Y-104644858D01*
X121018824Y-104644861D01*
X120972288Y-104772717D01*
X120959197Y-104808685D01*
X120936463Y-104988640D01*
X117826806Y-104988640D01*
X117920826Y-104894620D01*
X118047534Y-104713661D01*
X118065632Y-104674851D01*
X118138571Y-104518432D01*
X118138572Y-104518431D01*
X118140894Y-104513450D01*
X118145939Y-104494624D01*
X118168372Y-104410903D01*
X118198070Y-104300068D01*
X118217323Y-104080000D01*
X118198070Y-103859932D01*
X118140894Y-103646550D01*
X118114791Y-103590571D01*
X118049857Y-103451320D01*
X118049855Y-103451317D01*
X118047534Y-103446339D01*
X117920826Y-103265380D01*
X117764620Y-103109174D01*
X117760112Y-103106017D01*
X117760109Y-103106015D01*
X117592480Y-102988640D01*
X128436463Y-102988640D01*
X128454163Y-103169160D01*
X128511418Y-103341273D01*
X128515065Y-103347295D01*
X128515066Y-103347297D01*
X128575048Y-103446339D01*
X128605380Y-103496424D01*
X128610269Y-103501487D01*
X128610270Y-103501488D01*
X128659718Y-103552692D01*
X128731382Y-103626902D01*
X128883159Y-103726222D01*
X128889763Y-103728678D01*
X128889765Y-103728679D01*
X129046558Y-103786990D01*
X129046560Y-103786990D01*
X129053168Y-103789448D01*
X129136995Y-103800633D01*
X129225980Y-103812507D01*
X129225984Y-103812507D01*
X129232961Y-103813438D01*
X129239972Y-103812800D01*
X129239976Y-103812800D01*
X129382459Y-103799832D01*
X129413600Y-103796998D01*
X129420302Y-103794820D01*
X129420304Y-103794820D01*
X129579409Y-103743124D01*
X129579412Y-103743123D01*
X129586108Y-103740947D01*
X129741912Y-103648069D01*
X129873266Y-103522982D01*
X129973643Y-103371902D01*
X130038055Y-103202338D01*
X130039035Y-103195366D01*
X130062748Y-103026639D01*
X130062748Y-103026636D01*
X130063299Y-103022717D01*
X130063616Y-103000000D01*
X130043397Y-102819745D01*
X130039656Y-102809001D01*
X129986064Y-102655106D01*
X129986062Y-102655103D01*
X129983745Y-102648448D01*
X129887626Y-102494624D01*
X129873941Y-102480843D01*
X129764778Y-102370915D01*
X129764774Y-102370912D01*
X129759815Y-102365918D01*
X129748697Y-102358862D01*
X129671702Y-102310000D01*
X129606666Y-102268727D01*
X129577463Y-102258328D01*
X129442425Y-102210243D01*
X129442420Y-102210242D01*
X129435790Y-102207881D01*
X129428802Y-102207048D01*
X129428799Y-102207047D01*
X129305698Y-102192368D01*
X129255680Y-102186404D01*
X129248677Y-102187140D01*
X129248676Y-102187140D01*
X129082288Y-102204628D01*
X129082286Y-102204629D01*
X129075288Y-102205364D01*
X128903579Y-102263818D01*
X128897575Y-102267512D01*
X128755095Y-102355166D01*
X128755092Y-102355168D01*
X128749088Y-102358862D01*
X128744053Y-102363793D01*
X128744050Y-102363795D01*
X128624525Y-102480843D01*
X128619493Y-102485771D01*
X128521235Y-102638238D01*
X128518826Y-102644858D01*
X128518824Y-102644861D01*
X128466700Y-102788070D01*
X128459197Y-102808685D01*
X128436463Y-102988640D01*
X117592480Y-102988640D01*
X117588171Y-102985623D01*
X117588168Y-102985621D01*
X117583662Y-102982466D01*
X117578680Y-102980143D01*
X117578675Y-102980140D01*
X117458699Y-102924195D01*
X117405414Y-102877278D01*
X117385953Y-102809001D01*
X117406495Y-102741041D01*
X117458699Y-102695805D01*
X117578675Y-102639860D01*
X117578680Y-102639857D01*
X117583662Y-102637534D01*
X117600260Y-102625912D01*
X117760109Y-102513985D01*
X117760112Y-102513983D01*
X117764620Y-102510826D01*
X117920826Y-102354620D01*
X118047534Y-102173661D01*
X118057786Y-102151677D01*
X118138571Y-101978432D01*
X118138572Y-101978431D01*
X118140894Y-101973450D01*
X118198070Y-101760068D01*
X118217323Y-101540000D01*
X118212830Y-101488640D01*
X120936463Y-101488640D01*
X120954163Y-101669160D01*
X121011418Y-101841273D01*
X121015065Y-101847295D01*
X121015066Y-101847297D01*
X121094484Y-101978432D01*
X121105380Y-101996424D01*
X121231382Y-102126902D01*
X121256305Y-102143211D01*
X121358741Y-102210243D01*
X121383159Y-102226222D01*
X121389763Y-102228678D01*
X121389765Y-102228679D01*
X121546558Y-102286990D01*
X121546560Y-102286990D01*
X121553168Y-102289448D01*
X121636995Y-102300633D01*
X121725980Y-102312507D01*
X121725984Y-102312507D01*
X121732961Y-102313438D01*
X121739972Y-102312800D01*
X121739976Y-102312800D01*
X121882459Y-102299832D01*
X121913600Y-102296998D01*
X121920302Y-102294820D01*
X121920304Y-102294820D01*
X122079409Y-102243124D01*
X122079412Y-102243123D01*
X122086108Y-102240947D01*
X122241912Y-102148069D01*
X122373266Y-102022982D01*
X122473643Y-101871902D01*
X122516125Y-101760068D01*
X122535555Y-101708920D01*
X122535556Y-101708918D01*
X122538055Y-101702338D01*
X122541761Y-101675970D01*
X122562748Y-101526639D01*
X122562748Y-101526636D01*
X122563299Y-101522717D01*
X122563616Y-101500000D01*
X122559129Y-101460000D01*
X161536884Y-101460000D01*
X161555314Y-101670655D01*
X161610044Y-101874910D01*
X161699411Y-102066558D01*
X161820699Y-102239776D01*
X161970224Y-102389301D01*
X162143442Y-102510589D01*
X162148420Y-102512910D01*
X162148423Y-102512912D01*
X162195107Y-102534681D01*
X162335090Y-102599956D01*
X162340397Y-102601378D01*
X162340408Y-102601382D01*
X162367171Y-102608553D01*
X162427793Y-102645504D01*
X162458815Y-102709365D01*
X162450386Y-102779860D01*
X162405182Y-102834606D01*
X162367170Y-102851966D01*
X162340574Y-102859092D01*
X162330277Y-102862841D01*
X162148677Y-102947521D01*
X162139189Y-102952999D01*
X162108752Y-102974311D01*
X162100377Y-102984788D01*
X162107446Y-102998236D01*
X162737188Y-103627978D01*
X162751132Y-103635592D01*
X162752965Y-103635461D01*
X162759580Y-103631210D01*
X163393276Y-102997514D01*
X163399706Y-102985739D01*
X163390410Y-102973724D01*
X163360811Y-102952999D01*
X163351323Y-102947521D01*
X163169723Y-102862841D01*
X163159426Y-102859092D01*
X163132830Y-102851966D01*
X163072207Y-102815014D01*
X163041186Y-102751154D01*
X163049614Y-102680659D01*
X163094817Y-102625912D01*
X163132829Y-102608553D01*
X163159592Y-102601382D01*
X163159603Y-102601378D01*
X163164910Y-102599956D01*
X163304893Y-102534681D01*
X163351577Y-102512912D01*
X163351580Y-102512910D01*
X163356558Y-102510589D01*
X163529776Y-102389301D01*
X163609077Y-102310000D01*
X167011693Y-102310000D01*
X167030885Y-102529371D01*
X167087880Y-102742076D01*
X167122200Y-102815675D01*
X167178618Y-102936666D01*
X167178621Y-102936671D01*
X167180944Y-102941653D01*
X167184100Y-102946160D01*
X167184101Y-102946162D01*
X167300971Y-103113069D01*
X167307251Y-103122038D01*
X167462962Y-103277749D01*
X167643346Y-103404056D01*
X167842924Y-103497120D01*
X168055629Y-103554115D01*
X168275000Y-103573307D01*
X168494371Y-103554115D01*
X168707076Y-103497120D01*
X168906654Y-103404056D01*
X169087038Y-103277749D01*
X169242749Y-103122038D01*
X169249030Y-103113069D01*
X169365899Y-102946162D01*
X169365900Y-102946160D01*
X169369056Y-102941653D01*
X169371379Y-102936671D01*
X169371382Y-102936666D01*
X169427800Y-102815675D01*
X169462120Y-102742076D01*
X169519115Y-102529371D01*
X169538307Y-102310000D01*
X169519115Y-102090629D01*
X169462120Y-101877924D01*
X169418585Y-101784562D01*
X169371382Y-101683334D01*
X169371379Y-101683329D01*
X169369056Y-101678347D01*
X169359833Y-101665175D01*
X169245908Y-101502473D01*
X169245906Y-101502470D01*
X169242749Y-101497962D01*
X169087038Y-101342251D01*
X169055164Y-101319932D01*
X168976948Y-101265165D01*
X168932620Y-101209708D01*
X168925311Y-101139089D01*
X168950796Y-101083282D01*
X168960523Y-101071112D01*
X168953457Y-101057668D01*
X168287811Y-100392021D01*
X168273868Y-100384408D01*
X168272034Y-100384539D01*
X168265420Y-100388790D01*
X167595820Y-101058391D01*
X167589393Y-101070161D01*
X167600646Y-101084707D01*
X167626509Y-101150825D01*
X167612521Y-101220430D01*
X167573259Y-101265020D01*
X167467478Y-101339088D01*
X167467472Y-101339093D01*
X167462962Y-101342251D01*
X167307251Y-101497962D01*
X167304094Y-101502470D01*
X167304092Y-101502473D01*
X167190167Y-101665175D01*
X167180944Y-101678347D01*
X167178621Y-101683329D01*
X167178618Y-101683334D01*
X167131415Y-101784562D01*
X167087880Y-101877924D01*
X167030885Y-102090629D01*
X167011693Y-102310000D01*
X163609077Y-102310000D01*
X163679301Y-102239776D01*
X163800589Y-102066558D01*
X163889956Y-101874910D01*
X163944686Y-101670655D01*
X163963116Y-101460000D01*
X163944686Y-101249345D01*
X163905089Y-101101568D01*
X163891379Y-101050400D01*
X163891378Y-101050398D01*
X163889956Y-101045090D01*
X163827578Y-100911320D01*
X163802912Y-100858423D01*
X163802910Y-100858420D01*
X163800589Y-100853442D01*
X163679301Y-100680224D01*
X163529776Y-100530699D01*
X163356558Y-100409411D01*
X163351580Y-100407090D01*
X163351577Y-100407088D01*
X163261743Y-100365198D01*
X163208458Y-100318281D01*
X163188997Y-100250003D01*
X163209539Y-100182043D01*
X163236096Y-100153555D01*
X163236912Y-100153069D01*
X163242006Y-100148218D01*
X163242010Y-100148215D01*
X163313681Y-100079962D01*
X163368266Y-100027982D01*
X163369932Y-100025475D01*
X167012674Y-100025475D01*
X167030901Y-100233804D01*
X167032804Y-100244599D01*
X167086928Y-100446595D01*
X167090674Y-100456887D01*
X167179054Y-100646417D01*
X167184534Y-100655907D01*
X167213411Y-100697149D01*
X167223887Y-100705523D01*
X167237334Y-100698455D01*
X167902979Y-100032811D01*
X167909356Y-100021132D01*
X168639408Y-100021132D01*
X168639539Y-100022966D01*
X168643790Y-100029580D01*
X169313391Y-100699180D01*
X169325161Y-100705607D01*
X169337176Y-100696311D01*
X169365466Y-100655907D01*
X169370946Y-100646417D01*
X169459326Y-100456887D01*
X169463072Y-100446595D01*
X169517196Y-100244599D01*
X169519099Y-100233804D01*
X169537326Y-100025475D01*
X169537326Y-100014525D01*
X169519099Y-99806196D01*
X169517196Y-99795401D01*
X169463072Y-99593405D01*
X169459326Y-99583113D01*
X169370946Y-99393583D01*
X169365466Y-99384093D01*
X169336589Y-99342851D01*
X169326113Y-99334477D01*
X169312666Y-99341545D01*
X168647021Y-100007189D01*
X168639408Y-100021132D01*
X167909356Y-100021132D01*
X167910592Y-100018868D01*
X167910461Y-100017034D01*
X167906210Y-100010420D01*
X167236609Y-99340820D01*
X167224839Y-99334393D01*
X167212824Y-99343689D01*
X167184534Y-99384093D01*
X167179054Y-99393583D01*
X167090674Y-99583113D01*
X167086928Y-99593405D01*
X167032804Y-99795401D01*
X167030901Y-99806196D01*
X167012674Y-100014525D01*
X167012674Y-100025475D01*
X163369932Y-100025475D01*
X163468643Y-99876902D01*
X163533055Y-99707338D01*
X163536143Y-99685366D01*
X163557748Y-99531639D01*
X163557748Y-99531636D01*
X163558299Y-99527717D01*
X163558616Y-99505000D01*
X163538397Y-99324745D01*
X163535611Y-99316744D01*
X163481064Y-99160106D01*
X163481062Y-99160103D01*
X163478745Y-99153448D01*
X163428640Y-99073262D01*
X163409505Y-99004893D01*
X163430547Y-98936767D01*
X163469742Y-98877773D01*
X163473643Y-98871902D01*
X163538055Y-98702338D01*
X163548761Y-98626162D01*
X163562748Y-98526639D01*
X163562748Y-98526636D01*
X163563299Y-98522717D01*
X163563616Y-98500000D01*
X163543397Y-98319745D01*
X163504961Y-98209371D01*
X163486064Y-98155106D01*
X163486062Y-98155103D01*
X163483745Y-98148448D01*
X163387626Y-97994624D01*
X163383034Y-97990000D01*
X167011693Y-97990000D01*
X167030885Y-98209371D01*
X167087880Y-98422076D01*
X167126064Y-98503962D01*
X167178618Y-98616666D01*
X167178621Y-98616671D01*
X167180944Y-98621653D01*
X167184100Y-98626160D01*
X167184101Y-98626162D01*
X167295609Y-98785411D01*
X167307251Y-98802038D01*
X167462962Y-98957749D01*
X167467471Y-98960906D01*
X167467473Y-98960908D01*
X167530290Y-99004893D01*
X167643346Y-99084056D01*
X167648328Y-99086379D01*
X167648333Y-99086382D01*
X167726118Y-99122653D01*
X167761964Y-99147753D01*
X168262189Y-99647979D01*
X168276132Y-99655592D01*
X168277966Y-99655461D01*
X168284580Y-99651210D01*
X168788036Y-99147753D01*
X168823882Y-99122653D01*
X168901667Y-99086382D01*
X168901672Y-99086379D01*
X168906654Y-99084056D01*
X169019710Y-99004893D01*
X169082527Y-98960908D01*
X169082529Y-98960906D01*
X169087038Y-98957749D01*
X169242749Y-98802038D01*
X169254392Y-98785411D01*
X169365899Y-98626162D01*
X169365900Y-98626160D01*
X169369056Y-98621653D01*
X169371379Y-98616671D01*
X169371382Y-98616666D01*
X169423936Y-98503962D01*
X169462120Y-98422076D01*
X169519115Y-98209371D01*
X169538307Y-97990000D01*
X169519115Y-97770629D01*
X169462120Y-97557924D01*
X169418585Y-97464562D01*
X169371382Y-97363334D01*
X169371379Y-97363329D01*
X169369056Y-97358347D01*
X169344776Y-97323671D01*
X169245908Y-97182473D01*
X169245906Y-97182470D01*
X169242749Y-97177962D01*
X169087038Y-97022251D01*
X168976947Y-96945164D01*
X168932620Y-96889708D01*
X168925311Y-96819089D01*
X168950796Y-96763282D01*
X168960523Y-96751112D01*
X168953457Y-96737668D01*
X168287811Y-96072021D01*
X168273868Y-96064408D01*
X168272034Y-96064539D01*
X168265420Y-96068790D01*
X167595820Y-96738391D01*
X167589393Y-96750161D01*
X167600646Y-96764707D01*
X167626509Y-96830825D01*
X167612521Y-96900430D01*
X167573259Y-96945020D01*
X167467478Y-97019088D01*
X167467472Y-97019093D01*
X167462962Y-97022251D01*
X167307251Y-97177962D01*
X167304094Y-97182470D01*
X167304092Y-97182473D01*
X167205224Y-97323671D01*
X167180944Y-97358347D01*
X167178621Y-97363329D01*
X167178618Y-97363334D01*
X167131415Y-97464562D01*
X167087880Y-97557924D01*
X167030885Y-97770629D01*
X167011693Y-97990000D01*
X163383034Y-97990000D01*
X163373941Y-97980843D01*
X163264778Y-97870915D01*
X163264774Y-97870912D01*
X163259815Y-97865918D01*
X163245020Y-97856529D01*
X163198222Y-97803141D01*
X163187716Y-97732926D01*
X163216839Y-97668178D01*
X163259284Y-97635949D01*
X163351577Y-97592912D01*
X163351580Y-97592910D01*
X163356558Y-97590589D01*
X163529776Y-97469301D01*
X163679301Y-97319776D01*
X163800589Y-97146558D01*
X163825256Y-97093661D01*
X163887633Y-96959892D01*
X163887634Y-96959891D01*
X163889956Y-96954910D01*
X163896935Y-96928866D01*
X163943262Y-96755970D01*
X163943262Y-96755968D01*
X163944686Y-96750655D01*
X163963116Y-96540000D01*
X163944686Y-96329345D01*
X163938696Y-96306990D01*
X163891379Y-96130400D01*
X163891378Y-96130398D01*
X163889956Y-96125090D01*
X163867412Y-96076744D01*
X163802912Y-95938423D01*
X163802910Y-95938420D01*
X163800589Y-95933442D01*
X163679301Y-95760224D01*
X163624552Y-95705475D01*
X167012674Y-95705475D01*
X167030901Y-95913804D01*
X167032804Y-95924599D01*
X167086928Y-96126595D01*
X167090674Y-96136887D01*
X167179054Y-96326417D01*
X167184534Y-96335907D01*
X167213411Y-96377149D01*
X167223887Y-96385523D01*
X167237334Y-96378455D01*
X167902979Y-95712811D01*
X167909356Y-95701132D01*
X168639408Y-95701132D01*
X168639539Y-95702966D01*
X168643790Y-95709580D01*
X169313391Y-96379180D01*
X169325161Y-96385607D01*
X169337176Y-96376311D01*
X169365466Y-96335907D01*
X169370946Y-96326417D01*
X169459326Y-96136887D01*
X169463072Y-96126595D01*
X169517196Y-95924599D01*
X169519099Y-95913804D01*
X169537326Y-95705475D01*
X169537326Y-95694525D01*
X169519099Y-95486196D01*
X169517196Y-95475401D01*
X169463072Y-95273405D01*
X169459326Y-95263113D01*
X169370946Y-95073583D01*
X169365466Y-95064093D01*
X169336589Y-95022851D01*
X169326113Y-95014477D01*
X169312666Y-95021545D01*
X168647021Y-95687189D01*
X168639408Y-95701132D01*
X167909356Y-95701132D01*
X167910592Y-95698868D01*
X167910461Y-95697034D01*
X167906210Y-95690420D01*
X167236609Y-95020820D01*
X167224839Y-95014393D01*
X167212824Y-95023689D01*
X167184534Y-95064093D01*
X167179054Y-95073583D01*
X167090674Y-95263113D01*
X167086928Y-95273405D01*
X167032804Y-95475401D01*
X167030901Y-95486196D01*
X167012674Y-95694525D01*
X167012674Y-95705475D01*
X163624552Y-95705475D01*
X163529776Y-95610699D01*
X163356558Y-95489411D01*
X163351580Y-95487090D01*
X163351577Y-95487088D01*
X163169892Y-95402367D01*
X163169891Y-95402366D01*
X163164910Y-95400044D01*
X163159603Y-95398622D01*
X163159592Y-95398618D01*
X163132829Y-95391447D01*
X163072207Y-95354496D01*
X163041185Y-95290635D01*
X163049614Y-95220140D01*
X163094818Y-95165394D01*
X163132830Y-95148034D01*
X163159426Y-95140908D01*
X163169723Y-95137159D01*
X163351323Y-95052479D01*
X163360811Y-95047001D01*
X163391248Y-95025689D01*
X163399623Y-95015212D01*
X163392554Y-95001764D01*
X162762812Y-94372022D01*
X162748868Y-94364408D01*
X162747035Y-94364539D01*
X162740420Y-94368790D01*
X162106724Y-95002486D01*
X162100294Y-95014261D01*
X162109590Y-95026276D01*
X162139189Y-95047001D01*
X162148677Y-95052479D01*
X162330277Y-95137159D01*
X162340574Y-95140908D01*
X162367170Y-95148034D01*
X162427793Y-95184986D01*
X162458814Y-95248846D01*
X162450386Y-95319341D01*
X162405183Y-95374088D01*
X162367171Y-95391447D01*
X162340408Y-95398618D01*
X162340397Y-95398622D01*
X162335090Y-95400044D01*
X162330109Y-95402366D01*
X162330108Y-95402367D01*
X162148423Y-95487088D01*
X162148420Y-95487090D01*
X162143442Y-95489411D01*
X161970224Y-95610699D01*
X161820699Y-95760224D01*
X161699411Y-95933442D01*
X161697090Y-95938420D01*
X161697088Y-95938423D01*
X161632588Y-96076744D01*
X161610044Y-96125090D01*
X161608622Y-96130398D01*
X161608621Y-96130400D01*
X161561304Y-96306990D01*
X161555314Y-96329345D01*
X161536884Y-96540000D01*
X161555314Y-96750655D01*
X161556738Y-96755968D01*
X161556738Y-96755970D01*
X161603066Y-96928866D01*
X161610044Y-96954910D01*
X161612366Y-96959891D01*
X161612367Y-96959892D01*
X161674745Y-97093661D01*
X161699411Y-97146558D01*
X161820699Y-97319776D01*
X161970224Y-97469301D01*
X162143442Y-97590589D01*
X162148420Y-97592910D01*
X162148423Y-97592912D01*
X162239509Y-97635386D01*
X162292794Y-97682304D01*
X162312255Y-97750581D01*
X162291713Y-97818541D01*
X162259720Y-97849661D01*
X162260638Y-97850836D01*
X162255094Y-97855167D01*
X162249088Y-97858862D01*
X162244053Y-97863793D01*
X162244050Y-97863795D01*
X162206936Y-97900140D01*
X162119493Y-97985771D01*
X162021235Y-98138238D01*
X162018826Y-98144858D01*
X162018824Y-98144861D01*
X161993412Y-98214681D01*
X161959197Y-98308685D01*
X161936463Y-98488640D01*
X161954163Y-98669160D01*
X162011418Y-98841273D01*
X162067246Y-98933457D01*
X162085424Y-99002083D01*
X162065380Y-99066980D01*
X162016235Y-99143238D01*
X162013826Y-99149858D01*
X162013824Y-99149861D01*
X161958053Y-99303091D01*
X161954197Y-99313685D01*
X161931463Y-99493640D01*
X161949163Y-99674160D01*
X162006418Y-99846273D01*
X162010065Y-99852295D01*
X162010066Y-99852297D01*
X162094363Y-99991488D01*
X162100380Y-100001424D01*
X162105269Y-100006487D01*
X162105270Y-100006488D01*
X162121183Y-100022966D01*
X162226382Y-100131902D01*
X162250072Y-100147404D01*
X162296119Y-100201438D01*
X162305644Y-100271793D01*
X162275620Y-100336128D01*
X162234328Y-100367030D01*
X162148423Y-100407088D01*
X162148420Y-100407090D01*
X162143442Y-100409411D01*
X161970224Y-100530699D01*
X161820699Y-100680224D01*
X161699411Y-100853442D01*
X161697090Y-100858420D01*
X161697088Y-100858423D01*
X161672422Y-100911320D01*
X161610044Y-101045090D01*
X161608622Y-101050398D01*
X161608621Y-101050400D01*
X161594911Y-101101568D01*
X161555314Y-101249345D01*
X161536884Y-101460000D01*
X122559129Y-101460000D01*
X122543397Y-101319745D01*
X122541080Y-101313091D01*
X122486064Y-101155106D01*
X122486062Y-101155103D01*
X122483745Y-101148448D01*
X122473662Y-101132312D01*
X122391359Y-101000598D01*
X122387626Y-100994624D01*
X122373941Y-100980843D01*
X122264778Y-100870915D01*
X122264774Y-100870912D01*
X122259815Y-100865918D01*
X122248697Y-100858862D01*
X122147782Y-100794820D01*
X122106666Y-100768727D01*
X122077463Y-100758328D01*
X121942425Y-100710243D01*
X121942420Y-100710242D01*
X121935790Y-100707881D01*
X121928802Y-100707048D01*
X121928799Y-100707047D01*
X121805698Y-100692368D01*
X121755680Y-100686404D01*
X121748677Y-100687140D01*
X121748676Y-100687140D01*
X121582288Y-100704628D01*
X121582286Y-100704629D01*
X121575288Y-100705364D01*
X121403579Y-100763818D01*
X121397575Y-100767512D01*
X121255095Y-100855166D01*
X121255092Y-100855168D01*
X121249088Y-100858862D01*
X121244053Y-100863793D01*
X121244050Y-100863795D01*
X121124525Y-100980843D01*
X121119493Y-100985771D01*
X121021235Y-101138238D01*
X121018826Y-101144858D01*
X121018824Y-101144861D01*
X120975090Y-101265020D01*
X120959197Y-101308685D01*
X120936463Y-101488640D01*
X118212830Y-101488640D01*
X118198070Y-101319932D01*
X118152121Y-101148448D01*
X118142317Y-101111860D01*
X118142316Y-101111858D01*
X118140894Y-101106550D01*
X118138571Y-101101568D01*
X118049857Y-100911320D01*
X118049855Y-100911317D01*
X118047534Y-100906339D01*
X117920826Y-100725380D01*
X117764620Y-100569174D01*
X117760112Y-100566017D01*
X117760109Y-100566015D01*
X117588171Y-100445623D01*
X117588168Y-100445621D01*
X117583662Y-100442466D01*
X117578680Y-100440143D01*
X117578675Y-100440140D01*
X117458699Y-100384195D01*
X117405414Y-100337278D01*
X117385953Y-100269001D01*
X117406495Y-100201041D01*
X117458699Y-100155805D01*
X117578675Y-100099860D01*
X117578680Y-100099857D01*
X117583662Y-100097534D01*
X117588171Y-100094377D01*
X117739179Y-99988640D01*
X135941463Y-99988640D01*
X135959163Y-100169160D01*
X136016418Y-100341273D01*
X136020065Y-100347295D01*
X136020066Y-100347297D01*
X136086436Y-100456887D01*
X136110380Y-100496424D01*
X136115269Y-100501487D01*
X136115270Y-100501488D01*
X136177584Y-100566015D01*
X136236382Y-100626902D01*
X136242278Y-100630760D01*
X136363741Y-100710243D01*
X136388159Y-100726222D01*
X136394763Y-100728678D01*
X136394765Y-100728679D01*
X136551558Y-100786990D01*
X136551560Y-100786990D01*
X136558168Y-100789448D01*
X136641995Y-100800633D01*
X136730980Y-100812507D01*
X136730984Y-100812507D01*
X136737961Y-100813438D01*
X136744972Y-100812800D01*
X136744976Y-100812800D01*
X136887459Y-100799832D01*
X136918600Y-100796998D01*
X136925302Y-100794820D01*
X136925304Y-100794820D01*
X137084409Y-100743124D01*
X137084412Y-100743123D01*
X137091108Y-100740947D01*
X137192972Y-100680224D01*
X137240860Y-100651677D01*
X137240862Y-100651676D01*
X137246912Y-100648069D01*
X137378266Y-100522982D01*
X137478643Y-100371902D01*
X137531102Y-100233804D01*
X137540555Y-100208920D01*
X137540556Y-100208918D01*
X137543055Y-100202338D01*
X137545907Y-100182043D01*
X137567748Y-100026639D01*
X137567748Y-100026636D01*
X137568299Y-100022717D01*
X137568517Y-100007111D01*
X137568561Y-100003962D01*
X137568561Y-100003957D01*
X137568616Y-100000000D01*
X137548397Y-99819745D01*
X137545041Y-99810108D01*
X137491064Y-99655106D01*
X137491062Y-99655103D01*
X137488745Y-99648448D01*
X137392626Y-99494624D01*
X137387664Y-99489627D01*
X137376753Y-99478640D01*
X152696463Y-99478640D01*
X152714163Y-99659160D01*
X152771418Y-99831273D01*
X152775065Y-99837295D01*
X152775066Y-99837297D01*
X152857847Y-99973985D01*
X152865380Y-99986424D01*
X152870269Y-99991487D01*
X152870270Y-99991488D01*
X152910176Y-100032811D01*
X152991382Y-100116902D01*
X153039233Y-100148215D01*
X153120567Y-100201438D01*
X153143159Y-100216222D01*
X153149763Y-100218678D01*
X153149765Y-100218679D01*
X153306558Y-100276990D01*
X153306560Y-100276990D01*
X153313168Y-100279448D01*
X153396995Y-100290633D01*
X153485980Y-100302507D01*
X153485984Y-100302507D01*
X153492961Y-100303438D01*
X153499972Y-100302800D01*
X153499976Y-100302800D01*
X153642459Y-100289832D01*
X153673600Y-100286998D01*
X153680302Y-100284820D01*
X153680304Y-100284820D01*
X153839409Y-100233124D01*
X153839412Y-100233123D01*
X153846108Y-100230947D01*
X153942513Y-100173478D01*
X153995860Y-100141677D01*
X153995862Y-100141676D01*
X154001912Y-100138069D01*
X154133266Y-100012982D01*
X154233643Y-99861902D01*
X154292357Y-99707338D01*
X154295555Y-99698920D01*
X154295556Y-99698918D01*
X154298055Y-99692338D01*
X154299035Y-99685366D01*
X154322748Y-99516639D01*
X154322748Y-99516636D01*
X154323299Y-99512717D01*
X154323468Y-99500598D01*
X154323561Y-99493962D01*
X154323561Y-99493957D01*
X154323616Y-99490000D01*
X154303397Y-99309745D01*
X154301080Y-99303091D01*
X154246064Y-99145106D01*
X154246062Y-99145103D01*
X154243745Y-99138448D01*
X154159984Y-99004401D01*
X154151359Y-98990598D01*
X154147626Y-98984624D01*
X154096811Y-98933453D01*
X154024778Y-98860915D01*
X154024774Y-98860912D01*
X154019815Y-98855918D01*
X154008697Y-98848862D01*
X153908713Y-98785411D01*
X153866666Y-98758727D01*
X153837463Y-98748328D01*
X153702425Y-98700243D01*
X153702420Y-98700242D01*
X153695790Y-98697881D01*
X153688802Y-98697048D01*
X153688799Y-98697047D01*
X153565698Y-98682368D01*
X153515680Y-98676404D01*
X153508677Y-98677140D01*
X153508676Y-98677140D01*
X153342288Y-98694628D01*
X153342286Y-98694629D01*
X153335288Y-98695364D01*
X153163579Y-98753818D01*
X153157575Y-98757512D01*
X153015095Y-98845166D01*
X153015092Y-98845168D01*
X153009088Y-98848862D01*
X153004053Y-98853793D01*
X153004050Y-98853795D01*
X152884525Y-98970843D01*
X152879493Y-98975771D01*
X152781235Y-99128238D01*
X152778826Y-99134858D01*
X152778824Y-99134861D01*
X152730962Y-99266362D01*
X152719197Y-99298685D01*
X152696463Y-99478640D01*
X137376753Y-99478640D01*
X137269778Y-99370915D01*
X137269774Y-99370912D01*
X137264815Y-99365918D01*
X137253697Y-99358862D01*
X137205538Y-99328300D01*
X137111666Y-99268727D01*
X137082463Y-99258328D01*
X136947425Y-99210243D01*
X136947420Y-99210242D01*
X136940790Y-99207881D01*
X136933802Y-99207048D01*
X136933799Y-99207047D01*
X136810698Y-99192368D01*
X136760680Y-99186404D01*
X136753677Y-99187140D01*
X136753676Y-99187140D01*
X136587288Y-99204628D01*
X136587286Y-99204629D01*
X136580288Y-99205364D01*
X136408579Y-99263818D01*
X136402575Y-99267512D01*
X136260095Y-99355166D01*
X136260092Y-99355168D01*
X136254088Y-99358862D01*
X136249053Y-99363793D01*
X136249050Y-99363795D01*
X136177921Y-99433450D01*
X136124493Y-99485771D01*
X136026235Y-99638238D01*
X136023826Y-99644858D01*
X136023824Y-99644861D01*
X135998689Y-99713920D01*
X135964197Y-99808685D01*
X135941463Y-99988640D01*
X117739179Y-99988640D01*
X117760109Y-99973985D01*
X117760112Y-99973983D01*
X117764620Y-99970826D01*
X117920826Y-99814620D01*
X118047534Y-99633661D01*
X118102103Y-99516639D01*
X118138571Y-99438432D01*
X118138572Y-99438431D01*
X118140894Y-99433450D01*
X118151577Y-99393583D01*
X118171112Y-99320675D01*
X118198070Y-99220068D01*
X118217323Y-99000000D01*
X118198070Y-98779932D01*
X118140894Y-98566550D01*
X118122283Y-98526639D01*
X118049857Y-98371320D01*
X118049855Y-98371317D01*
X118047534Y-98366339D01*
X117920826Y-98185380D01*
X117764620Y-98029174D01*
X117760112Y-98026017D01*
X117760109Y-98026015D01*
X117588171Y-97905623D01*
X117588168Y-97905621D01*
X117583662Y-97902466D01*
X117578680Y-97900143D01*
X117578675Y-97900140D01*
X117458699Y-97844195D01*
X117405414Y-97797278D01*
X117385953Y-97729001D01*
X117406495Y-97661041D01*
X117458699Y-97615805D01*
X117578675Y-97559860D01*
X117578680Y-97559857D01*
X117583662Y-97557534D01*
X117588171Y-97554377D01*
X117760109Y-97433985D01*
X117760112Y-97433983D01*
X117764620Y-97430826D01*
X117920826Y-97274620D01*
X118047534Y-97093661D01*
X118061628Y-97063438D01*
X118138571Y-96898432D01*
X118138572Y-96898431D01*
X118140894Y-96893450D01*
X118198070Y-96680068D01*
X118217323Y-96460000D01*
X118198070Y-96239932D01*
X118197724Y-96238640D01*
X135941463Y-96238640D01*
X135959163Y-96419160D01*
X136016418Y-96591273D01*
X136020065Y-96597295D01*
X136020066Y-96597297D01*
X136098431Y-96726693D01*
X136110380Y-96746424D01*
X136115269Y-96751487D01*
X136115270Y-96751488D01*
X136164899Y-96802880D01*
X136236382Y-96876902D01*
X136388159Y-96976222D01*
X136394763Y-96978678D01*
X136394765Y-96978679D01*
X136551558Y-97036990D01*
X136551560Y-97036990D01*
X136558168Y-97039448D01*
X136641995Y-97050633D01*
X136730980Y-97062507D01*
X136730984Y-97062507D01*
X136737961Y-97063438D01*
X136744972Y-97062800D01*
X136744976Y-97062800D01*
X136887459Y-97049832D01*
X136918600Y-97046998D01*
X136925302Y-97044820D01*
X136925304Y-97044820D01*
X137084409Y-96993124D01*
X137084412Y-96993123D01*
X137091108Y-96990947D01*
X137246912Y-96898069D01*
X137378266Y-96772982D01*
X137478643Y-96621902D01*
X137543055Y-96452338D01*
X137544799Y-96439928D01*
X137567748Y-96276639D01*
X137567748Y-96276636D01*
X137568299Y-96272717D01*
X137568514Y-96257340D01*
X137568561Y-96253962D01*
X137568561Y-96253957D01*
X137568616Y-96250000D01*
X143336496Y-96250000D01*
X143337186Y-96256565D01*
X143353539Y-96412151D01*
X143356458Y-96439928D01*
X143415473Y-96621556D01*
X143510960Y-96786944D01*
X143515378Y-96791851D01*
X143515379Y-96791852D01*
X143587395Y-96871834D01*
X143638747Y-96928866D01*
X143719229Y-96987340D01*
X143772644Y-97026148D01*
X143793248Y-97041118D01*
X143799276Y-97043802D01*
X143799278Y-97043803D01*
X143961681Y-97116109D01*
X143967712Y-97118794D01*
X144061112Y-97138647D01*
X144148056Y-97157128D01*
X144148061Y-97157128D01*
X144154513Y-97158500D01*
X144345487Y-97158500D01*
X144351939Y-97157128D01*
X144351944Y-97157128D01*
X144438887Y-97138647D01*
X144532288Y-97118794D01*
X144538319Y-97116109D01*
X144700722Y-97043803D01*
X144700724Y-97043802D01*
X144706752Y-97041118D01*
X144727357Y-97026148D01*
X144780771Y-96987340D01*
X144861253Y-96928866D01*
X144912605Y-96871834D01*
X144984621Y-96791852D01*
X144984622Y-96791851D01*
X144989040Y-96786944D01*
X145084527Y-96621556D01*
X145143542Y-96439928D01*
X145146462Y-96412151D01*
X145162814Y-96256565D01*
X145163504Y-96250000D01*
X145152668Y-96146902D01*
X145144232Y-96066635D01*
X145144232Y-96066633D01*
X145143542Y-96060072D01*
X145084527Y-95878444D01*
X145079966Y-95870543D01*
X145023590Y-95772899D01*
X144989040Y-95713056D01*
X144968659Y-95690420D01*
X144865675Y-95576045D01*
X144865674Y-95576044D01*
X144861253Y-95571134D01*
X144775238Y-95508640D01*
X147441463Y-95508640D01*
X147459163Y-95689160D01*
X147516418Y-95861273D01*
X147520065Y-95867295D01*
X147520066Y-95867297D01*
X147560125Y-95933442D01*
X147610380Y-96016424D01*
X147615269Y-96021487D01*
X147615270Y-96021488D01*
X147661872Y-96069745D01*
X147736382Y-96146902D01*
X147742278Y-96150760D01*
X147870428Y-96234619D01*
X147888159Y-96246222D01*
X147894763Y-96248678D01*
X147894765Y-96248679D01*
X148051558Y-96306990D01*
X148051560Y-96306990D01*
X148058168Y-96309448D01*
X148141995Y-96320633D01*
X148230980Y-96332507D01*
X148230984Y-96332507D01*
X148237961Y-96333438D01*
X148244972Y-96332800D01*
X148244976Y-96332800D01*
X148387459Y-96319832D01*
X148418600Y-96316998D01*
X148425302Y-96314820D01*
X148425304Y-96314820D01*
X148584409Y-96263124D01*
X148584412Y-96263123D01*
X148591108Y-96260947D01*
X148746912Y-96168069D01*
X148878266Y-96042982D01*
X148978643Y-95891902D01*
X149022649Y-95776056D01*
X149040555Y-95728920D01*
X149040556Y-95728918D01*
X149043055Y-95722338D01*
X149044035Y-95715366D01*
X149067748Y-95546639D01*
X149067748Y-95546636D01*
X149068299Y-95542717D01*
X149068616Y-95520000D01*
X149048397Y-95339745D01*
X149045425Y-95331210D01*
X148991064Y-95175106D01*
X148991062Y-95175103D01*
X148988745Y-95168448D01*
X148969194Y-95137159D01*
X148896359Y-95020598D01*
X148892626Y-95014624D01*
X148883835Y-95005771D01*
X148769778Y-94890915D01*
X148769774Y-94890912D01*
X148764815Y-94885918D01*
X148753697Y-94878862D01*
X148705538Y-94848300D01*
X148611666Y-94788727D01*
X148521061Y-94756464D01*
X148447425Y-94730243D01*
X148447420Y-94730242D01*
X148440790Y-94727881D01*
X148433802Y-94727048D01*
X148433799Y-94727047D01*
X148310698Y-94712368D01*
X148260680Y-94706404D01*
X148253677Y-94707140D01*
X148253676Y-94707140D01*
X148087288Y-94724628D01*
X148087286Y-94724629D01*
X148080288Y-94725364D01*
X147908579Y-94783818D01*
X147902575Y-94787512D01*
X147760095Y-94875166D01*
X147760092Y-94875168D01*
X147754088Y-94878862D01*
X147749053Y-94883793D01*
X147749050Y-94883795D01*
X147703577Y-94928326D01*
X147624493Y-95005771D01*
X147526235Y-95158238D01*
X147523826Y-95164858D01*
X147523824Y-95164861D01*
X147503704Y-95220140D01*
X147464197Y-95328685D01*
X147441463Y-95508640D01*
X144775238Y-95508640D01*
X144744097Y-95486015D01*
X144712094Y-95462763D01*
X144712093Y-95462762D01*
X144706752Y-95458882D01*
X144700724Y-95456198D01*
X144700722Y-95456197D01*
X144538319Y-95383891D01*
X144538318Y-95383891D01*
X144532288Y-95381206D01*
X144433181Y-95360140D01*
X144351944Y-95342872D01*
X144351939Y-95342872D01*
X144345487Y-95341500D01*
X144154513Y-95341500D01*
X144148061Y-95342872D01*
X144148056Y-95342872D01*
X144066819Y-95360140D01*
X143967712Y-95381206D01*
X143961682Y-95383891D01*
X143961681Y-95383891D01*
X143799278Y-95456197D01*
X143799276Y-95456198D01*
X143793248Y-95458882D01*
X143787907Y-95462762D01*
X143787906Y-95462763D01*
X143755903Y-95486015D01*
X143638747Y-95571134D01*
X143634326Y-95576044D01*
X143634325Y-95576045D01*
X143531342Y-95690420D01*
X143510960Y-95713056D01*
X143476410Y-95772899D01*
X143420035Y-95870543D01*
X143415473Y-95878444D01*
X143356458Y-96060072D01*
X143355768Y-96066633D01*
X143355768Y-96066635D01*
X143347332Y-96146902D01*
X143336496Y-96250000D01*
X137568616Y-96250000D01*
X137548397Y-96069745D01*
X137545029Y-96060072D01*
X137491064Y-95905106D01*
X137491062Y-95905103D01*
X137488745Y-95898448D01*
X137480538Y-95885314D01*
X137396359Y-95750598D01*
X137392626Y-95744624D01*
X137366956Y-95718774D01*
X137269778Y-95620915D01*
X137269774Y-95620912D01*
X137264815Y-95615918D01*
X137256592Y-95610699D01*
X137143228Y-95538757D01*
X137111666Y-95518727D01*
X137053275Y-95497935D01*
X136947425Y-95460243D01*
X136947420Y-95460242D01*
X136940790Y-95457881D01*
X136933802Y-95457048D01*
X136933799Y-95457047D01*
X136810698Y-95442368D01*
X136760680Y-95436404D01*
X136753677Y-95437140D01*
X136753676Y-95437140D01*
X136587288Y-95454628D01*
X136587286Y-95454629D01*
X136580288Y-95455364D01*
X136408579Y-95513818D01*
X136361605Y-95542717D01*
X136260095Y-95605166D01*
X136260092Y-95605168D01*
X136254088Y-95608862D01*
X136249053Y-95613793D01*
X136249050Y-95613795D01*
X136138210Y-95722338D01*
X136124493Y-95735771D01*
X136026235Y-95888238D01*
X136023826Y-95894858D01*
X136023824Y-95894861D01*
X135972049Y-96037111D01*
X135964197Y-96058685D01*
X135941463Y-96238640D01*
X118197724Y-96238640D01*
X118140894Y-96026550D01*
X118103010Y-95945307D01*
X118049857Y-95831320D01*
X118049855Y-95831317D01*
X118047534Y-95826339D01*
X117920826Y-95645380D01*
X117764620Y-95489174D01*
X117760112Y-95486017D01*
X117760109Y-95486015D01*
X117588171Y-95365623D01*
X117588168Y-95365621D01*
X117583662Y-95362466D01*
X117578680Y-95360143D01*
X117578675Y-95360140D01*
X117458699Y-95304195D01*
X117405414Y-95257278D01*
X117385953Y-95189001D01*
X117406495Y-95121041D01*
X117458699Y-95075805D01*
X117578675Y-95019860D01*
X117578680Y-95019857D01*
X117583662Y-95017534D01*
X117588171Y-95014377D01*
X117760109Y-94893985D01*
X117760112Y-94893983D01*
X117764620Y-94890826D01*
X117920826Y-94734620D01*
X118047534Y-94553661D01*
X118066995Y-94511928D01*
X118138571Y-94358432D01*
X118138572Y-94358431D01*
X118140894Y-94353450D01*
X118198070Y-94140068D01*
X118217323Y-93920000D01*
X118198070Y-93699932D01*
X118140894Y-93486550D01*
X118138571Y-93481568D01*
X118049857Y-93291320D01*
X118049855Y-93291317D01*
X118047534Y-93286339D01*
X118022089Y-93250000D01*
X143336496Y-93250000D01*
X143337186Y-93256565D01*
X143339273Y-93276417D01*
X143356458Y-93439928D01*
X143415473Y-93621556D01*
X143510960Y-93786944D01*
X143638747Y-93928866D01*
X143793248Y-94041118D01*
X143799276Y-94043802D01*
X143799278Y-94043803D01*
X143931984Y-94102887D01*
X143967712Y-94118794D01*
X144061112Y-94138647D01*
X144148056Y-94157128D01*
X144148061Y-94157128D01*
X144154513Y-94158500D01*
X144345487Y-94158500D01*
X144351939Y-94157128D01*
X144351944Y-94157128D01*
X144438888Y-94138647D01*
X144532288Y-94118794D01*
X144568016Y-94102887D01*
X144700722Y-94043803D01*
X144700724Y-94043802D01*
X144706752Y-94041118D01*
X144755810Y-94005475D01*
X161537865Y-94005475D01*
X161555329Y-94205091D01*
X161557231Y-94215878D01*
X161609093Y-94409429D01*
X161612841Y-94419723D01*
X161697521Y-94601323D01*
X161702999Y-94610811D01*
X161724311Y-94641248D01*
X161734788Y-94649623D01*
X161748236Y-94642554D01*
X162377978Y-94012812D01*
X162384356Y-94001132D01*
X163114408Y-94001132D01*
X163114539Y-94002965D01*
X163118790Y-94009580D01*
X163752486Y-94643276D01*
X163764261Y-94649706D01*
X163765320Y-94648887D01*
X167589477Y-94648887D01*
X167596545Y-94662334D01*
X168262189Y-95327979D01*
X168276132Y-95335592D01*
X168277966Y-95335461D01*
X168284580Y-95331210D01*
X168933789Y-94682000D01*
X171831693Y-94682000D01*
X171850885Y-94901371D01*
X171907880Y-95114076D01*
X171931810Y-95165394D01*
X171998618Y-95308666D01*
X171998621Y-95308671D01*
X172000944Y-95313653D01*
X172004100Y-95318160D01*
X172004101Y-95318162D01*
X172122385Y-95487088D01*
X172127251Y-95494038D01*
X172282962Y-95649749D01*
X172287471Y-95652906D01*
X172287473Y-95652908D01*
X172353111Y-95698868D01*
X172463346Y-95776056D01*
X172662924Y-95869120D01*
X172875629Y-95926115D01*
X173095000Y-95945307D01*
X173314371Y-95926115D01*
X173527076Y-95869120D01*
X173726654Y-95776056D01*
X173836889Y-95698868D01*
X173902527Y-95652908D01*
X173902529Y-95652906D01*
X173907038Y-95649749D01*
X174062749Y-95494038D01*
X174067616Y-95487088D01*
X174185899Y-95318162D01*
X174185900Y-95318160D01*
X174189056Y-95313653D01*
X174191379Y-95308671D01*
X174191382Y-95308666D01*
X174258190Y-95165394D01*
X174282120Y-95114076D01*
X174283543Y-95108764D01*
X174283547Y-95108754D01*
X174325651Y-94951624D01*
X174362602Y-94891002D01*
X174426463Y-94859980D01*
X174479968Y-94862529D01*
X174650401Y-94908196D01*
X174661196Y-94910099D01*
X174869525Y-94928326D01*
X174880475Y-94928326D01*
X175088804Y-94910099D01*
X175099599Y-94908196D01*
X175301595Y-94854072D01*
X175311887Y-94850326D01*
X175501416Y-94761947D01*
X175510912Y-94756464D01*
X175552148Y-94727590D01*
X175560523Y-94717113D01*
X175553455Y-94703667D01*
X174604884Y-93755095D01*
X174570859Y-93692783D01*
X174572694Y-93667132D01*
X175239408Y-93667132D01*
X175239539Y-93668966D01*
X175243790Y-93675580D01*
X175913391Y-94345180D01*
X175925161Y-94351607D01*
X175937176Y-94342311D01*
X175965466Y-94301907D01*
X175970946Y-94292417D01*
X176059326Y-94102887D01*
X176063072Y-94092595D01*
X176117196Y-93890599D01*
X176119099Y-93879804D01*
X176137326Y-93671475D01*
X176137326Y-93660525D01*
X176119099Y-93452196D01*
X176117196Y-93441401D01*
X176063072Y-93239405D01*
X176059326Y-93229113D01*
X175970946Y-93039583D01*
X175965466Y-93030093D01*
X175936589Y-92988851D01*
X175926113Y-92980477D01*
X175912666Y-92987545D01*
X175247021Y-93653189D01*
X175239408Y-93667132D01*
X174572694Y-93667132D01*
X174575924Y-93621967D01*
X174604885Y-93576905D01*
X174875000Y-93306790D01*
X175391784Y-92790005D01*
X175427630Y-92764905D01*
X175482981Y-92739095D01*
X175506654Y-92728056D01*
X175511152Y-92724907D01*
X175511158Y-92724903D01*
X175682527Y-92604908D01*
X175682529Y-92604906D01*
X175687038Y-92601749D01*
X175842749Y-92446038D01*
X175849641Y-92436196D01*
X175965899Y-92270162D01*
X175965900Y-92270160D01*
X175969056Y-92265653D01*
X175971379Y-92260671D01*
X175971382Y-92260666D01*
X176059795Y-92071061D01*
X176062120Y-92066076D01*
X176119115Y-91853371D01*
X176138307Y-91634000D01*
X176119115Y-91414629D01*
X176062120Y-91201924D01*
X175993637Y-91055061D01*
X175971382Y-91007334D01*
X175971379Y-91007329D01*
X175969056Y-91002347D01*
X175853539Y-90837371D01*
X175845908Y-90826473D01*
X175845906Y-90826470D01*
X175842749Y-90821962D01*
X175687038Y-90666251D01*
X175682527Y-90663092D01*
X175511158Y-90543097D01*
X175511152Y-90543093D01*
X175506654Y-90539944D01*
X175427631Y-90503095D01*
X175391786Y-90477996D01*
X174604885Y-89691095D01*
X174570859Y-89628783D01*
X174575924Y-89557968D01*
X174604885Y-89512905D01*
X174785905Y-89331885D01*
X174848217Y-89297859D01*
X174919032Y-89302924D01*
X174964095Y-89331884D01*
X175913389Y-90281178D01*
X175925162Y-90287606D01*
X175937176Y-90278311D01*
X175965466Y-90237907D01*
X175970946Y-90228417D01*
X176059326Y-90038887D01*
X176063072Y-90028595D01*
X176117196Y-89826599D01*
X176119099Y-89815804D01*
X176137326Y-89607475D01*
X176137326Y-89596525D01*
X176119099Y-89388196D01*
X176117196Y-89377401D01*
X176063072Y-89175405D01*
X176059326Y-89165113D01*
X175970944Y-88975579D01*
X175965470Y-88966099D01*
X175913403Y-88891740D01*
X175890715Y-88824466D01*
X175908000Y-88755606D01*
X175941051Y-88718643D01*
X175981081Y-88688642D01*
X175988261Y-88683261D01*
X176075615Y-88566705D01*
X176126745Y-88430316D01*
X176133500Y-88368134D01*
X176133500Y-86771866D01*
X176130477Y-86744036D01*
X176129611Y-86736063D01*
X176142140Y-86666180D01*
X176190461Y-86614165D01*
X176259233Y-86596531D01*
X176313833Y-86611101D01*
X176417860Y-86666180D01*
X176545200Y-86733603D01*
X176549223Y-86735075D01*
X176549227Y-86735077D01*
X176659095Y-86775283D01*
X176818382Y-86833574D01*
X177102604Y-86895544D01*
X177131650Y-86897830D01*
X177328297Y-86913307D01*
X177328304Y-86913307D01*
X177330753Y-86913500D01*
X177488121Y-86913500D01*
X177490257Y-86913354D01*
X177490268Y-86913354D01*
X177700949Y-86898991D01*
X177700955Y-86898990D01*
X177705226Y-86898699D01*
X177709421Y-86897830D01*
X177709423Y-86897830D01*
X177847653Y-86869204D01*
X177990081Y-86839709D01*
X178264295Y-86742605D01*
X178344410Y-86701255D01*
X178518986Y-86611149D01*
X178518987Y-86611149D01*
X178522793Y-86609184D01*
X178526294Y-86606723D01*
X178526298Y-86606721D01*
X178641792Y-86525550D01*
X178760792Y-86441915D01*
X178973888Y-86243894D01*
X178987316Y-86227489D01*
X179155423Y-86022102D01*
X179158139Y-86018784D01*
X179310133Y-85770752D01*
X179318869Y-85750852D01*
X179389876Y-85589092D01*
X179427059Y-85504386D01*
X179433073Y-85483276D01*
X179464520Y-85372880D01*
X179506754Y-85224616D01*
X179509286Y-85206829D01*
X179547137Y-84940870D01*
X179547742Y-84936619D01*
X179549265Y-84645723D01*
X179548353Y-84638790D01*
X179511855Y-84361569D01*
X179511295Y-84357313D01*
X179434535Y-84076724D01*
X179320404Y-83809148D01*
X179171015Y-83559538D01*
X179156337Y-83541216D01*
X179053456Y-83412800D01*
X178989133Y-83332511D01*
X178778122Y-83132269D01*
X178541887Y-82962517D01*
X178284800Y-82826397D01*
X178280777Y-82824925D01*
X178280773Y-82824923D01*
X178015649Y-82727901D01*
X178015647Y-82727900D01*
X178011618Y-82726426D01*
X177727396Y-82664456D01*
X177683598Y-82661009D01*
X177501703Y-82646693D01*
X177501696Y-82646693D01*
X177499247Y-82646500D01*
X177341879Y-82646500D01*
X177339743Y-82646646D01*
X177339732Y-82646646D01*
X177129051Y-82661009D01*
X177129045Y-82661010D01*
X177124774Y-82661301D01*
X177120579Y-82662170D01*
X177120577Y-82662170D01*
X177105130Y-82665369D01*
X176839919Y-82720291D01*
X176565705Y-82817395D01*
X176307207Y-82950816D01*
X176303706Y-82953277D01*
X176303702Y-82953279D01*
X176218996Y-83012812D01*
X176069208Y-83118085D01*
X176066067Y-83121004D01*
X175929329Y-83248069D01*
X175856112Y-83316106D01*
X175853399Y-83319421D01*
X175853143Y-83319734D01*
X175853038Y-83319806D01*
X175850457Y-83322554D01*
X175849850Y-83321984D01*
X175794521Y-83359783D01*
X175723552Y-83361781D01*
X175662770Y-83325094D01*
X175631471Y-83261369D01*
X175630022Y-83230048D01*
X175647739Y-83004930D01*
X175647739Y-82995070D01*
X175628039Y-82744764D01*
X175626496Y-82735017D01*
X175567883Y-82490877D01*
X175564834Y-82481492D01*
X175468752Y-82249530D01*
X175464271Y-82240736D01*
X175334596Y-82029125D01*
X175325330Y-82023078D01*
X175315125Y-82029085D01*
X174357022Y-82987188D01*
X174349408Y-83001132D01*
X174349539Y-83002965D01*
X174353790Y-83009580D01*
X175313668Y-83969458D01*
X175323784Y-83974982D01*
X175373985Y-84025185D01*
X175389075Y-84094560D01*
X175384575Y-84120087D01*
X175323246Y-84335384D01*
X175322642Y-84339626D01*
X175322641Y-84339632D01*
X175320125Y-84357313D01*
X175282258Y-84623381D01*
X175282141Y-84645723D01*
X175280779Y-84905907D01*
X175280735Y-84914277D01*
X175281294Y-84918521D01*
X175281294Y-84918525D01*
X175285330Y-84949180D01*
X175318705Y-85202687D01*
X175395465Y-85483276D01*
X175509596Y-85750852D01*
X175658985Y-86000462D01*
X175744115Y-86106722D01*
X175771095Y-86172390D01*
X175758290Y-86242222D01*
X175709763Y-86294045D01*
X175645779Y-86311500D01*
X174076866Y-86311500D01*
X174014684Y-86318255D01*
X173878295Y-86369385D01*
X173761739Y-86456739D01*
X173674385Y-86573295D01*
X173623255Y-86709684D01*
X173616500Y-86771866D01*
X173616500Y-87258634D01*
X173596498Y-87326755D01*
X173542842Y-87373248D01*
X173472568Y-87383352D01*
X173457888Y-87380340D01*
X173319692Y-87343310D01*
X173319683Y-87343309D01*
X173314371Y-87341885D01*
X173095000Y-87322693D01*
X172875629Y-87341885D01*
X172662924Y-87398880D01*
X172573500Y-87440579D01*
X172468334Y-87489618D01*
X172468329Y-87489621D01*
X172463347Y-87491944D01*
X172458840Y-87495100D01*
X172458838Y-87495101D01*
X172287473Y-87615092D01*
X172287470Y-87615094D01*
X172282962Y-87618251D01*
X172127251Y-87773962D01*
X172124094Y-87778470D01*
X172124092Y-87778473D01*
X172092699Y-87823307D01*
X172000944Y-87954347D01*
X171998621Y-87959329D01*
X171998618Y-87959334D01*
X171951415Y-88060562D01*
X171907880Y-88153924D01*
X171850885Y-88366629D01*
X171831693Y-88586000D01*
X171850885Y-88805371D01*
X171907880Y-89018076D01*
X171910205Y-89023061D01*
X171998618Y-89212666D01*
X171998621Y-89212671D01*
X172000944Y-89217653D01*
X172004100Y-89222160D01*
X172004101Y-89222162D01*
X172120360Y-89388196D01*
X172127251Y-89398038D01*
X172242118Y-89512905D01*
X172276144Y-89575217D01*
X172271079Y-89646032D01*
X172242118Y-89691095D01*
X172127251Y-89805962D01*
X172124094Y-89810470D01*
X172124092Y-89810473D01*
X172004101Y-89981838D01*
X172000944Y-89986347D01*
X171998621Y-89991329D01*
X171998618Y-89991334D01*
X171981243Y-90028595D01*
X171907880Y-90185924D01*
X171850885Y-90398629D01*
X171831693Y-90618000D01*
X171850885Y-90837371D01*
X171907880Y-91050076D01*
X171910205Y-91055061D01*
X171998618Y-91244666D01*
X171998621Y-91244671D01*
X172000944Y-91249653D01*
X172004100Y-91254160D01*
X172004101Y-91254162D01*
X172120297Y-91420106D01*
X172127251Y-91430038D01*
X172282962Y-91585749D01*
X172287471Y-91588906D01*
X172287473Y-91588908D01*
X172458842Y-91708903D01*
X172458848Y-91708907D01*
X172463346Y-91712056D01*
X172542369Y-91748905D01*
X172578214Y-91774004D01*
X173365115Y-92560905D01*
X173399141Y-92623217D01*
X173394076Y-92694032D01*
X173365115Y-92739095D01*
X173095000Y-93009210D01*
X172578217Y-93525994D01*
X172542372Y-93551094D01*
X172468334Y-93585618D01*
X172468329Y-93585621D01*
X172463347Y-93587944D01*
X172458840Y-93591100D01*
X172458838Y-93591101D01*
X172287473Y-93711092D01*
X172287470Y-93711094D01*
X172282962Y-93714251D01*
X172127251Y-93869962D01*
X172124094Y-93874470D01*
X172124092Y-93874473D01*
X172007406Y-94041118D01*
X172000944Y-94050347D01*
X171998621Y-94055329D01*
X171998618Y-94055334D01*
X171956629Y-94145381D01*
X171907880Y-94249924D01*
X171850885Y-94462629D01*
X171831693Y-94682000D01*
X168933789Y-94682000D01*
X168954180Y-94661609D01*
X168960607Y-94649839D01*
X168951313Y-94637825D01*
X168910912Y-94609536D01*
X168901416Y-94604053D01*
X168711887Y-94515674D01*
X168701595Y-94511928D01*
X168499599Y-94457804D01*
X168488804Y-94455901D01*
X168280475Y-94437674D01*
X168269525Y-94437674D01*
X168061196Y-94455901D01*
X168050401Y-94457804D01*
X167848405Y-94511928D01*
X167838113Y-94515674D01*
X167648583Y-94604054D01*
X167639093Y-94609534D01*
X167597851Y-94638411D01*
X167589477Y-94648887D01*
X163765320Y-94648887D01*
X163776276Y-94640410D01*
X163797001Y-94610811D01*
X163802479Y-94601323D01*
X163887159Y-94419723D01*
X163890907Y-94409429D01*
X163942769Y-94215878D01*
X163944671Y-94205091D01*
X163962135Y-94005475D01*
X163962135Y-93994525D01*
X163944671Y-93794909D01*
X163942769Y-93784122D01*
X163890907Y-93590571D01*
X163887159Y-93580277D01*
X163802479Y-93398677D01*
X163797001Y-93389189D01*
X163775689Y-93358752D01*
X163765212Y-93350377D01*
X163751764Y-93357446D01*
X163122022Y-93987188D01*
X163114408Y-94001132D01*
X162384356Y-94001132D01*
X162385592Y-93998868D01*
X162385461Y-93997035D01*
X162381210Y-93990420D01*
X161747514Y-93356724D01*
X161735739Y-93350294D01*
X161723724Y-93359590D01*
X161702999Y-93389189D01*
X161697521Y-93398677D01*
X161612841Y-93580277D01*
X161609093Y-93590571D01*
X161557231Y-93784122D01*
X161555329Y-93794909D01*
X161537865Y-93994525D01*
X161537865Y-94005475D01*
X144755810Y-94005475D01*
X144861253Y-93928866D01*
X144989040Y-93786944D01*
X145084527Y-93621556D01*
X145143542Y-93439928D01*
X145160728Y-93276417D01*
X145162814Y-93256565D01*
X145163504Y-93250000D01*
X145147895Y-93101485D01*
X145144232Y-93066635D01*
X145144232Y-93066633D01*
X145143542Y-93060072D01*
X145119081Y-92984788D01*
X162100377Y-92984788D01*
X162107446Y-92998236D01*
X162737188Y-93627978D01*
X162751132Y-93635592D01*
X162752965Y-93635461D01*
X162759580Y-93631210D01*
X163393276Y-92997514D01*
X163399706Y-92985739D01*
X163390410Y-92973724D01*
X163360811Y-92952999D01*
X163351323Y-92947521D01*
X163169723Y-92862841D01*
X163159429Y-92859093D01*
X162965878Y-92807231D01*
X162955091Y-92805329D01*
X162755475Y-92787865D01*
X162744525Y-92787865D01*
X162544909Y-92805329D01*
X162534122Y-92807231D01*
X162340571Y-92859093D01*
X162330277Y-92862841D01*
X162148677Y-92947521D01*
X162139189Y-92952999D01*
X162108752Y-92974311D01*
X162100377Y-92984788D01*
X145119081Y-92984788D01*
X145084527Y-92878444D01*
X144989040Y-92713056D01*
X144937194Y-92655475D01*
X171832674Y-92655475D01*
X171850901Y-92863804D01*
X171852804Y-92874599D01*
X171906928Y-93076595D01*
X171910674Y-93086887D01*
X171999054Y-93276417D01*
X172004534Y-93285907D01*
X172033411Y-93327149D01*
X172043887Y-93335523D01*
X172057334Y-93328455D01*
X172722979Y-92662811D01*
X172730592Y-92648868D01*
X172730461Y-92647034D01*
X172726210Y-92640420D01*
X172056609Y-91970820D01*
X172044839Y-91964393D01*
X172032824Y-91973689D01*
X172004534Y-92014093D01*
X171999054Y-92023583D01*
X171910674Y-92213113D01*
X171906928Y-92223405D01*
X171852804Y-92425401D01*
X171850901Y-92436196D01*
X171832674Y-92644525D01*
X171832674Y-92655475D01*
X144937194Y-92655475D01*
X144927335Y-92644525D01*
X144865675Y-92576045D01*
X144865674Y-92576044D01*
X144861253Y-92571134D01*
X144706752Y-92458882D01*
X144700724Y-92456198D01*
X144700722Y-92456197D01*
X144538319Y-92383891D01*
X144538318Y-92383891D01*
X144532288Y-92381206D01*
X144438888Y-92361353D01*
X144351944Y-92342872D01*
X144351939Y-92342872D01*
X144345487Y-92341500D01*
X144154513Y-92341500D01*
X144148061Y-92342872D01*
X144148056Y-92342872D01*
X144061112Y-92361353D01*
X143967712Y-92381206D01*
X143961682Y-92383891D01*
X143961681Y-92383891D01*
X143799278Y-92456197D01*
X143799276Y-92456198D01*
X143793248Y-92458882D01*
X143638747Y-92571134D01*
X143634326Y-92576044D01*
X143634325Y-92576045D01*
X143572666Y-92644525D01*
X143510960Y-92713056D01*
X143415473Y-92878444D01*
X143356458Y-93060072D01*
X143355768Y-93066633D01*
X143355768Y-93066635D01*
X143352105Y-93101485D01*
X143336496Y-93250000D01*
X118022089Y-93250000D01*
X117920826Y-93105380D01*
X117764620Y-92949174D01*
X117760112Y-92946017D01*
X117760109Y-92946015D01*
X117588171Y-92825623D01*
X117588168Y-92825621D01*
X117583662Y-92822466D01*
X117578680Y-92820143D01*
X117578675Y-92820140D01*
X117458699Y-92764195D01*
X117405414Y-92717278D01*
X117385953Y-92649001D01*
X117406495Y-92581041D01*
X117458699Y-92535805D01*
X117578675Y-92479860D01*
X117578680Y-92479857D01*
X117583662Y-92477534D01*
X117588171Y-92474377D01*
X117760109Y-92353985D01*
X117760112Y-92353983D01*
X117764620Y-92350826D01*
X117920826Y-92194620D01*
X118047534Y-92013661D01*
X118053905Y-92000000D01*
X118059202Y-91988640D01*
X138416463Y-91988640D01*
X138434163Y-92169160D01*
X138491418Y-92341273D01*
X138495065Y-92347295D01*
X138495066Y-92347297D01*
X138575349Y-92479860D01*
X138585380Y-92496424D01*
X138711382Y-92626902D01*
X138863159Y-92726222D01*
X138869763Y-92728678D01*
X138869765Y-92728679D01*
X139026558Y-92786990D01*
X139026560Y-92786990D01*
X139033168Y-92789448D01*
X139116995Y-92800633D01*
X139205980Y-92812507D01*
X139205984Y-92812507D01*
X139212961Y-92813438D01*
X139219972Y-92812800D01*
X139219976Y-92812800D01*
X139362459Y-92799832D01*
X139393600Y-92796998D01*
X139400302Y-92794820D01*
X139400304Y-92794820D01*
X139559409Y-92743124D01*
X139559412Y-92743123D01*
X139566108Y-92740947D01*
X139697182Y-92662811D01*
X139715860Y-92651677D01*
X139715862Y-92651676D01*
X139721912Y-92648069D01*
X139853266Y-92522982D01*
X139953643Y-92371902D01*
X139995898Y-92260666D01*
X140015555Y-92208920D01*
X140015556Y-92208918D01*
X140018055Y-92202338D01*
X140019774Y-92190108D01*
X140042748Y-92026639D01*
X140042748Y-92026636D01*
X140043299Y-92022717D01*
X140043616Y-92000000D01*
X140023397Y-91819745D01*
X140021080Y-91813091D01*
X139966064Y-91655106D01*
X139966062Y-91655103D01*
X139963745Y-91648448D01*
X139933514Y-91600068D01*
X139871359Y-91500598D01*
X139867626Y-91494624D01*
X139853941Y-91480843D01*
X139744778Y-91370915D01*
X139744774Y-91370912D01*
X139739815Y-91365918D01*
X139728697Y-91358862D01*
X139680538Y-91328300D01*
X139586666Y-91268727D01*
X139519095Y-91244666D01*
X139422425Y-91210243D01*
X139422420Y-91210242D01*
X139415790Y-91207881D01*
X139408802Y-91207048D01*
X139408799Y-91207047D01*
X139285698Y-91192368D01*
X139235680Y-91186404D01*
X139228677Y-91187140D01*
X139228676Y-91187140D01*
X139062288Y-91204628D01*
X139062286Y-91204629D01*
X139055288Y-91205364D01*
X138883579Y-91263818D01*
X138877575Y-91267512D01*
X138735095Y-91355166D01*
X138735092Y-91355168D01*
X138729088Y-91358862D01*
X138724053Y-91363793D01*
X138724050Y-91363795D01*
X138652426Y-91433935D01*
X138599493Y-91485771D01*
X138501235Y-91638238D01*
X138498826Y-91644858D01*
X138498824Y-91644861D01*
X138456734Y-91760502D01*
X138439197Y-91808685D01*
X138416463Y-91988640D01*
X118059202Y-91988640D01*
X118138571Y-91818432D01*
X118138572Y-91818431D01*
X118140894Y-91813450D01*
X118143945Y-91802066D01*
X118168063Y-91712056D01*
X118198070Y-91600068D01*
X118217323Y-91380000D01*
X118198070Y-91159932D01*
X118140894Y-90946550D01*
X118082798Y-90821962D01*
X118049857Y-90751320D01*
X118049855Y-90751317D01*
X118047534Y-90746339D01*
X117920826Y-90565380D01*
X117764620Y-90409174D01*
X117760112Y-90406017D01*
X117760109Y-90406015D01*
X117588171Y-90285623D01*
X117588168Y-90285621D01*
X117583662Y-90282466D01*
X117578680Y-90280143D01*
X117578675Y-90280140D01*
X117388432Y-90191429D01*
X117388431Y-90191429D01*
X117383450Y-90189106D01*
X117378142Y-90187684D01*
X117378140Y-90187683D01*
X117312748Y-90170161D01*
X117170068Y-90131930D01*
X116950000Y-90112677D01*
X116729932Y-90131930D01*
X116587252Y-90170161D01*
X116521860Y-90187683D01*
X116521858Y-90187684D01*
X116516550Y-90189106D01*
X116511569Y-90191428D01*
X116511568Y-90191429D01*
X116321320Y-90280143D01*
X116321317Y-90280145D01*
X116316339Y-90282466D01*
X116135380Y-90409174D01*
X115979174Y-90565380D01*
X115852466Y-90746339D01*
X115850145Y-90751317D01*
X115850143Y-90751320D01*
X115817202Y-90821962D01*
X115759106Y-90946550D01*
X115701930Y-91159932D01*
X115682677Y-91380000D01*
X115701930Y-91600068D01*
X115731937Y-91712056D01*
X115756056Y-91802066D01*
X115759106Y-91813450D01*
X115761428Y-91818431D01*
X115761429Y-91818432D01*
X115846096Y-92000000D01*
X115852466Y-92013661D01*
X115979174Y-92194620D01*
X116135380Y-92350826D01*
X116139888Y-92353983D01*
X116139891Y-92353985D01*
X116311829Y-92474377D01*
X116316338Y-92477534D01*
X116321320Y-92479857D01*
X116321325Y-92479860D01*
X116441301Y-92535805D01*
X116494586Y-92582722D01*
X116514047Y-92650999D01*
X116493505Y-92718959D01*
X116441301Y-92764195D01*
X116321320Y-92820143D01*
X116321317Y-92820145D01*
X116316339Y-92822466D01*
X116135380Y-92949174D01*
X115979174Y-93105380D01*
X115852466Y-93286339D01*
X115850145Y-93291317D01*
X115850143Y-93291320D01*
X115761429Y-93481568D01*
X115759106Y-93486550D01*
X115701930Y-93699932D01*
X115682677Y-93920000D01*
X115701930Y-94140068D01*
X115759106Y-94353450D01*
X115761428Y-94358431D01*
X115761429Y-94358432D01*
X115833006Y-94511928D01*
X115852466Y-94553661D01*
X115979174Y-94734620D01*
X116135380Y-94890826D01*
X116139888Y-94893983D01*
X116139891Y-94893985D01*
X116311829Y-95014377D01*
X116316338Y-95017534D01*
X116321320Y-95019857D01*
X116321325Y-95019860D01*
X116441301Y-95075805D01*
X116494586Y-95122722D01*
X116514047Y-95190999D01*
X116493505Y-95258959D01*
X116441301Y-95304195D01*
X116321320Y-95360143D01*
X116321317Y-95360145D01*
X116316339Y-95362466D01*
X116135380Y-95489174D01*
X115979174Y-95645380D01*
X115852466Y-95826339D01*
X115850145Y-95831317D01*
X115850143Y-95831320D01*
X115796990Y-95945307D01*
X115759106Y-96026550D01*
X115701930Y-96239932D01*
X115682677Y-96460000D01*
X115701930Y-96680068D01*
X115759106Y-96893450D01*
X115761428Y-96898431D01*
X115761429Y-96898432D01*
X115838373Y-97063438D01*
X115852466Y-97093661D01*
X115979174Y-97274620D01*
X116135380Y-97430826D01*
X116139888Y-97433983D01*
X116139891Y-97433985D01*
X116311829Y-97554377D01*
X116316338Y-97557534D01*
X116321320Y-97559857D01*
X116321325Y-97559860D01*
X116441301Y-97615805D01*
X116494586Y-97662722D01*
X116514047Y-97730999D01*
X116493505Y-97798959D01*
X116441301Y-97844195D01*
X116321320Y-97900143D01*
X116321317Y-97900145D01*
X116316339Y-97902466D01*
X116135380Y-98029174D01*
X115979174Y-98185380D01*
X115852466Y-98366339D01*
X115850145Y-98371317D01*
X115850143Y-98371320D01*
X115777717Y-98526639D01*
X115759106Y-98566550D01*
X115701930Y-98779932D01*
X115682677Y-99000000D01*
X115701930Y-99220068D01*
X115728888Y-99320675D01*
X115748424Y-99393583D01*
X115759106Y-99433450D01*
X115761428Y-99438431D01*
X115761429Y-99438432D01*
X115797898Y-99516639D01*
X115852466Y-99633661D01*
X115979174Y-99814620D01*
X116135380Y-99970826D01*
X116139888Y-99973983D01*
X116139891Y-99973985D01*
X116311829Y-100094377D01*
X116316338Y-100097534D01*
X116321320Y-100099857D01*
X116321325Y-100099860D01*
X116441301Y-100155805D01*
X116494586Y-100202722D01*
X116514047Y-100270999D01*
X116493505Y-100338959D01*
X116441301Y-100384195D01*
X116321320Y-100440143D01*
X116321317Y-100440145D01*
X116316339Y-100442466D01*
X116135380Y-100569174D01*
X115979174Y-100725380D01*
X115852466Y-100906339D01*
X115850145Y-100911317D01*
X115850143Y-100911320D01*
X115761429Y-101101568D01*
X115759106Y-101106550D01*
X115757684Y-101111858D01*
X115757683Y-101111860D01*
X115747879Y-101148448D01*
X115701930Y-101319932D01*
X115682677Y-101540000D01*
X115701930Y-101760068D01*
X115759106Y-101973450D01*
X115761428Y-101978431D01*
X115761429Y-101978432D01*
X115842215Y-102151677D01*
X115852466Y-102173661D01*
X115979174Y-102354620D01*
X116135380Y-102510826D01*
X116139888Y-102513983D01*
X116139891Y-102513985D01*
X116299740Y-102625912D01*
X116316338Y-102637534D01*
X116321320Y-102639857D01*
X116321325Y-102639860D01*
X116441301Y-102695805D01*
X116494586Y-102742722D01*
X116514047Y-102810999D01*
X116493505Y-102878959D01*
X116441301Y-102924195D01*
X116321320Y-102980143D01*
X116321317Y-102980145D01*
X116316339Y-102982466D01*
X116135380Y-103109174D01*
X115979174Y-103265380D01*
X115852466Y-103446339D01*
X115850145Y-103451317D01*
X115850143Y-103451320D01*
X115785209Y-103590571D01*
X115759106Y-103646550D01*
X115701930Y-103859932D01*
X115682677Y-104080000D01*
X113508000Y-104080000D01*
X113508000Y-88988640D01*
X156936463Y-88988640D01*
X156954163Y-89169160D01*
X157011418Y-89341273D01*
X157015065Y-89347295D01*
X157015066Y-89347297D01*
X157033298Y-89377401D01*
X157105380Y-89496424D01*
X157110269Y-89501487D01*
X157110270Y-89501488D01*
X157125357Y-89517111D01*
X157231382Y-89626902D01*
X157383159Y-89726222D01*
X157389763Y-89728678D01*
X157389765Y-89728679D01*
X157546558Y-89786990D01*
X157546560Y-89786990D01*
X157553168Y-89789448D01*
X157636995Y-89800633D01*
X157725980Y-89812507D01*
X157725984Y-89812507D01*
X157732961Y-89813438D01*
X157739972Y-89812800D01*
X157739976Y-89812800D01*
X157882459Y-89799832D01*
X157913600Y-89796998D01*
X157920302Y-89794820D01*
X157920304Y-89794820D01*
X158079409Y-89743124D01*
X158079412Y-89743123D01*
X158086108Y-89740947D01*
X158241912Y-89648069D01*
X158373266Y-89522982D01*
X158473643Y-89371902D01*
X158515423Y-89261917D01*
X158535555Y-89208920D01*
X158535556Y-89208918D01*
X158538055Y-89202338D01*
X158539035Y-89195366D01*
X158562748Y-89026639D01*
X158562748Y-89026636D01*
X158563299Y-89022717D01*
X158563616Y-89000000D01*
X158543397Y-88819745D01*
X158540241Y-88810681D01*
X158486064Y-88655106D01*
X158486062Y-88655103D01*
X158483745Y-88648448D01*
X158387626Y-88494624D01*
X158331113Y-88437715D01*
X158264778Y-88370915D01*
X158264774Y-88370912D01*
X158259815Y-88365918D01*
X158252569Y-88361319D01*
X158200538Y-88328300D01*
X158106666Y-88268727D01*
X158077463Y-88258328D01*
X157942425Y-88210243D01*
X157942420Y-88210242D01*
X157935790Y-88207881D01*
X157928802Y-88207048D01*
X157928799Y-88207047D01*
X157805698Y-88192368D01*
X157755680Y-88186404D01*
X157748677Y-88187140D01*
X157748676Y-88187140D01*
X157582288Y-88204628D01*
X157582286Y-88204629D01*
X157575288Y-88205364D01*
X157403579Y-88263818D01*
X157397575Y-88267512D01*
X157255095Y-88355166D01*
X157255092Y-88355168D01*
X157249088Y-88358862D01*
X157244053Y-88363793D01*
X157244050Y-88363795D01*
X157168566Y-88437715D01*
X157119493Y-88485771D01*
X157021235Y-88638238D01*
X157018826Y-88644858D01*
X157018824Y-88644861D01*
X157007461Y-88676081D01*
X156959197Y-88808685D01*
X156936463Y-88988640D01*
X113508000Y-88988640D01*
X113508000Y-86560000D01*
X167011693Y-86560000D01*
X167030885Y-86779371D01*
X167087880Y-86992076D01*
X167090205Y-86997061D01*
X167178618Y-87186666D01*
X167178621Y-87186671D01*
X167180944Y-87191653D01*
X167184100Y-87196160D01*
X167184101Y-87196162D01*
X167286138Y-87341885D01*
X167307251Y-87372038D01*
X167462962Y-87527749D01*
X167643346Y-87654056D01*
X167842924Y-87747120D01*
X168055629Y-87804115D01*
X168275000Y-87823307D01*
X168494371Y-87804115D01*
X168707076Y-87747120D01*
X168906654Y-87654056D01*
X169087038Y-87527749D01*
X169242749Y-87372038D01*
X169263863Y-87341885D01*
X169365899Y-87196162D01*
X169365900Y-87196160D01*
X169369056Y-87191653D01*
X169371379Y-87186671D01*
X169371382Y-87186666D01*
X169459795Y-86997061D01*
X169462120Y-86992076D01*
X169519115Y-86779371D01*
X169538307Y-86560000D01*
X169519115Y-86340629D01*
X169462120Y-86127924D01*
X169411227Y-86018784D01*
X169371382Y-85933334D01*
X169371379Y-85933329D01*
X169369056Y-85928347D01*
X169365899Y-85923838D01*
X169245908Y-85752473D01*
X169245906Y-85752470D01*
X169242749Y-85747962D01*
X169087038Y-85592251D01*
X168976947Y-85515164D01*
X168932620Y-85459708D01*
X168925311Y-85389089D01*
X168950796Y-85333282D01*
X168960523Y-85321112D01*
X168953457Y-85307668D01*
X168287811Y-84642021D01*
X168273868Y-84634408D01*
X168272034Y-84634539D01*
X168265420Y-84638790D01*
X167595820Y-85308391D01*
X167589393Y-85320161D01*
X167600646Y-85334707D01*
X167626509Y-85400825D01*
X167612521Y-85470430D01*
X167573259Y-85515020D01*
X167467478Y-85589088D01*
X167467472Y-85589093D01*
X167462962Y-85592251D01*
X167307251Y-85747962D01*
X167304094Y-85752470D01*
X167304092Y-85752473D01*
X167184101Y-85923838D01*
X167180944Y-85928347D01*
X167178621Y-85933329D01*
X167178618Y-85933334D01*
X167138773Y-86018784D01*
X167087880Y-86127924D01*
X167030885Y-86340629D01*
X167011693Y-86560000D01*
X113508000Y-86560000D01*
X113508000Y-84275475D01*
X167012674Y-84275475D01*
X167030901Y-84483804D01*
X167032804Y-84494599D01*
X167086928Y-84696595D01*
X167090674Y-84706887D01*
X167179054Y-84896417D01*
X167184534Y-84905907D01*
X167213411Y-84947149D01*
X167223887Y-84955523D01*
X167237334Y-84948455D01*
X167902979Y-84282811D01*
X167909356Y-84271132D01*
X168639408Y-84271132D01*
X168639539Y-84272966D01*
X168643790Y-84279580D01*
X169313391Y-84949180D01*
X169325161Y-84955607D01*
X169337176Y-84946311D01*
X169365466Y-84905907D01*
X169370946Y-84896417D01*
X169459326Y-84706887D01*
X169463072Y-84696595D01*
X169517196Y-84494599D01*
X169519099Y-84483804D01*
X169531488Y-84342204D01*
X173008151Y-84342204D01*
X173012720Y-84348735D01*
X173225736Y-84479271D01*
X173234530Y-84483752D01*
X173466492Y-84579834D01*
X173475877Y-84582883D01*
X173720017Y-84641496D01*
X173729764Y-84643039D01*
X173980070Y-84662739D01*
X173989930Y-84662739D01*
X174240236Y-84643039D01*
X174249983Y-84641496D01*
X174494123Y-84582883D01*
X174503508Y-84579834D01*
X174735470Y-84483752D01*
X174744264Y-84479271D01*
X174955875Y-84349596D01*
X174961922Y-84340330D01*
X174955915Y-84330125D01*
X173997812Y-83372022D01*
X173983868Y-83364408D01*
X173982035Y-83364539D01*
X173975420Y-83368790D01*
X173015544Y-84328666D01*
X173008151Y-84342204D01*
X169531488Y-84342204D01*
X169537326Y-84275475D01*
X169537326Y-84264525D01*
X169519099Y-84056196D01*
X169517196Y-84045401D01*
X169463072Y-83843405D01*
X169459326Y-83833113D01*
X169370946Y-83643583D01*
X169365466Y-83634093D01*
X169336589Y-83592851D01*
X169326113Y-83584477D01*
X169312666Y-83591545D01*
X168647021Y-84257189D01*
X168639408Y-84271132D01*
X167909356Y-84271132D01*
X167910592Y-84268868D01*
X167910461Y-84267034D01*
X167906210Y-84260420D01*
X167236609Y-83590820D01*
X167224839Y-83584393D01*
X167212824Y-83593689D01*
X167184534Y-83634093D01*
X167179054Y-83643583D01*
X167090674Y-83833113D01*
X167086928Y-83843405D01*
X167032804Y-84045401D01*
X167030901Y-84056196D01*
X167012674Y-84264525D01*
X167012674Y-84275475D01*
X113508000Y-84275475D01*
X113508000Y-82588640D01*
X153186463Y-82588640D01*
X153204163Y-82769160D01*
X153261418Y-82941273D01*
X153265065Y-82947295D01*
X153265066Y-82947297D01*
X153348870Y-83085674D01*
X153355380Y-83096424D01*
X153481382Y-83226902D01*
X153487278Y-83230760D01*
X153626683Y-83321984D01*
X153633159Y-83326222D01*
X153639763Y-83328678D01*
X153639765Y-83328679D01*
X153796558Y-83386990D01*
X153796560Y-83386990D01*
X153803168Y-83389448D01*
X153886995Y-83400633D01*
X153975980Y-83412507D01*
X153975984Y-83412507D01*
X153982961Y-83413438D01*
X153989972Y-83412800D01*
X153989976Y-83412800D01*
X154132459Y-83399832D01*
X154163600Y-83396998D01*
X154170302Y-83394820D01*
X154170304Y-83394820D01*
X154329409Y-83343124D01*
X154329412Y-83343123D01*
X154336108Y-83340947D01*
X154469601Y-83261369D01*
X154485860Y-83251677D01*
X154485862Y-83251676D01*
X154491912Y-83248069D01*
X154522556Y-83218887D01*
X167589477Y-83218887D01*
X167596545Y-83232334D01*
X168262189Y-83897979D01*
X168276132Y-83905592D01*
X168277966Y-83905461D01*
X168284580Y-83901210D01*
X168954180Y-83231609D01*
X168960607Y-83219839D01*
X168951313Y-83207825D01*
X168910912Y-83179536D01*
X168901416Y-83174053D01*
X168711887Y-83085674D01*
X168701595Y-83081928D01*
X168499599Y-83027804D01*
X168488804Y-83025901D01*
X168280475Y-83007674D01*
X168269525Y-83007674D01*
X168061196Y-83025901D01*
X168050401Y-83027804D01*
X167848405Y-83081928D01*
X167838113Y-83085674D01*
X167648583Y-83174054D01*
X167639093Y-83179534D01*
X167597851Y-83208411D01*
X167589477Y-83218887D01*
X154522556Y-83218887D01*
X154623266Y-83122982D01*
X154701699Y-83004930D01*
X172322261Y-83004930D01*
X172341961Y-83255236D01*
X172343504Y-83264983D01*
X172402117Y-83509123D01*
X172405166Y-83518508D01*
X172501248Y-83750470D01*
X172505729Y-83759264D01*
X172635404Y-83970875D01*
X172644670Y-83976922D01*
X172654875Y-83970915D01*
X173612978Y-83012812D01*
X173620592Y-82998868D01*
X173620461Y-82997035D01*
X173616210Y-82990420D01*
X172656334Y-82030544D01*
X172642796Y-82023151D01*
X172636265Y-82027720D01*
X172505729Y-82240736D01*
X172501248Y-82249530D01*
X172405166Y-82481492D01*
X172402117Y-82490877D01*
X172343504Y-82735017D01*
X172341961Y-82744764D01*
X172322261Y-82995070D01*
X172322261Y-83004930D01*
X154701699Y-83004930D01*
X154723643Y-82971902D01*
X154781589Y-82819361D01*
X154785555Y-82808920D01*
X154785556Y-82808918D01*
X154788055Y-82802338D01*
X154790212Y-82786990D01*
X154812748Y-82626639D01*
X154812748Y-82626636D01*
X154813299Y-82622717D01*
X154813616Y-82600000D01*
X154793397Y-82419745D01*
X154791080Y-82413091D01*
X154736064Y-82255106D01*
X154736062Y-82255103D01*
X154733745Y-82248448D01*
X154637626Y-82094624D01*
X154632664Y-82089628D01*
X154630669Y-82087110D01*
X154604033Y-82021300D01*
X154617205Y-81951536D01*
X154666004Y-81899968D01*
X154703219Y-81885602D01*
X154775822Y-81870169D01*
X154775827Y-81870167D01*
X154782288Y-81868794D01*
X154788319Y-81866109D01*
X154950722Y-81793803D01*
X154950724Y-81793802D01*
X154956752Y-81791118D01*
X154963241Y-81786404D01*
X155012157Y-81750864D01*
X155111253Y-81678866D01*
X155128537Y-81659670D01*
X155234621Y-81541852D01*
X155234622Y-81541851D01*
X155239040Y-81536944D01*
X155313197Y-81408500D01*
X155331223Y-81377279D01*
X155331224Y-81377278D01*
X155334527Y-81371556D01*
X155393542Y-81189928D01*
X155396270Y-81190814D01*
X155424052Y-81139403D01*
X155486215Y-81105106D01*
X155557052Y-81109861D01*
X155607170Y-81143796D01*
X155638747Y-81178866D01*
X155677287Y-81206867D01*
X155762430Y-81268727D01*
X155793248Y-81291118D01*
X155799276Y-81293802D01*
X155799278Y-81293803D01*
X155959799Y-81365271D01*
X155967712Y-81368794D01*
X156061113Y-81388647D01*
X156148056Y-81407128D01*
X156148061Y-81407128D01*
X156154513Y-81408500D01*
X156188191Y-81408500D01*
X156256312Y-81428502D01*
X156302805Y-81482158D01*
X156312909Y-81552432D01*
X156294104Y-81602752D01*
X156271235Y-81638238D01*
X156268826Y-81644858D01*
X156268824Y-81644861D01*
X156211606Y-81802066D01*
X156209197Y-81808685D01*
X156186463Y-81988640D01*
X156204163Y-82169160D01*
X156261418Y-82341273D01*
X156265065Y-82347295D01*
X156265066Y-82347297D01*
X156313181Y-82426744D01*
X156355380Y-82496424D01*
X156481382Y-82626902D01*
X156494462Y-82635461D01*
X156626281Y-82721721D01*
X156633159Y-82726222D01*
X156639763Y-82728678D01*
X156639765Y-82728679D01*
X156796558Y-82786990D01*
X156796560Y-82786990D01*
X156803168Y-82789448D01*
X156886995Y-82800633D01*
X156975980Y-82812507D01*
X156975984Y-82812507D01*
X156982961Y-82813438D01*
X156989972Y-82812800D01*
X156989976Y-82812800D01*
X157132459Y-82799832D01*
X157163600Y-82796998D01*
X157170302Y-82794820D01*
X157170304Y-82794820D01*
X157329409Y-82743124D01*
X157329412Y-82743123D01*
X157336108Y-82740947D01*
X157464423Y-82664456D01*
X157485860Y-82651677D01*
X157485862Y-82651676D01*
X157491912Y-82648069D01*
X157623266Y-82522982D01*
X157723643Y-82371902D01*
X157788055Y-82202338D01*
X157789035Y-82195366D01*
X157812748Y-82026639D01*
X157812748Y-82026636D01*
X157813299Y-82022717D01*
X157813616Y-82000000D01*
X157793397Y-81819745D01*
X157791080Y-81813091D01*
X157736064Y-81655106D01*
X157736062Y-81655103D01*
X157733745Y-81648448D01*
X157704264Y-81601267D01*
X157685129Y-81532899D01*
X157705995Y-81465038D01*
X157760237Y-81419231D01*
X157811119Y-81408500D01*
X157845487Y-81408500D01*
X157851939Y-81407128D01*
X157851944Y-81407128D01*
X157938887Y-81388647D01*
X158032288Y-81368794D01*
X158040201Y-81365271D01*
X158200722Y-81293803D01*
X158200724Y-81293802D01*
X158206752Y-81291118D01*
X158237571Y-81268727D01*
X158322713Y-81206867D01*
X158361253Y-81178866D01*
X158406364Y-81128765D01*
X158466810Y-81091525D01*
X158537793Y-81092877D01*
X158593636Y-81128765D01*
X158638747Y-81178866D01*
X158677287Y-81206867D01*
X158762430Y-81268727D01*
X158793248Y-81291118D01*
X158799279Y-81293803D01*
X158799281Y-81293804D01*
X158815836Y-81301175D01*
X158869932Y-81347154D01*
X158890582Y-81415081D01*
X158871230Y-81483390D01*
X158869583Y-81485683D01*
X158869493Y-81485771D01*
X158869261Y-81486131D01*
X158869256Y-81486138D01*
X158849852Y-81516248D01*
X158771235Y-81638238D01*
X158768826Y-81644858D01*
X158768824Y-81644861D01*
X158711606Y-81802066D01*
X158709197Y-81808685D01*
X158686463Y-81988640D01*
X158704163Y-82169160D01*
X158761418Y-82341273D01*
X158765065Y-82347295D01*
X158765066Y-82347297D01*
X158813181Y-82426744D01*
X158855380Y-82496424D01*
X158981382Y-82626902D01*
X158994462Y-82635461D01*
X159126281Y-82721721D01*
X159133159Y-82726222D01*
X159139763Y-82728678D01*
X159139765Y-82728679D01*
X159296558Y-82786990D01*
X159296560Y-82786990D01*
X159303168Y-82789448D01*
X159386995Y-82800633D01*
X159475980Y-82812507D01*
X159475984Y-82812507D01*
X159482961Y-82813438D01*
X159489972Y-82812800D01*
X159489976Y-82812800D01*
X159632459Y-82799832D01*
X159663600Y-82796998D01*
X159670302Y-82794820D01*
X159670304Y-82794820D01*
X159829409Y-82743124D01*
X159829412Y-82743123D01*
X159836108Y-82740947D01*
X159964423Y-82664456D01*
X159985860Y-82651677D01*
X159985862Y-82651676D01*
X159991912Y-82648069D01*
X160123266Y-82522982D01*
X160223643Y-82371902D01*
X160288055Y-82202338D01*
X160289035Y-82195366D01*
X160312748Y-82026639D01*
X160312748Y-82026636D01*
X160313299Y-82022717D01*
X160313616Y-82000000D01*
X160293397Y-81819745D01*
X160291080Y-81813091D01*
X160237653Y-81659670D01*
X173008078Y-81659670D01*
X173014085Y-81669875D01*
X173972188Y-82627978D01*
X173986132Y-82635592D01*
X173987965Y-82635461D01*
X173994580Y-82631210D01*
X174954456Y-81671334D01*
X174961849Y-81657796D01*
X174957280Y-81651265D01*
X174744264Y-81520729D01*
X174735470Y-81516248D01*
X174503508Y-81420166D01*
X174494123Y-81417117D01*
X174249983Y-81358504D01*
X174240236Y-81356961D01*
X173989930Y-81337261D01*
X173980070Y-81337261D01*
X173729764Y-81356961D01*
X173720017Y-81358504D01*
X173475877Y-81417117D01*
X173466492Y-81420166D01*
X173234530Y-81516248D01*
X173225736Y-81520729D01*
X173014125Y-81650404D01*
X173008078Y-81659670D01*
X160237653Y-81659670D01*
X160236064Y-81655106D01*
X160236062Y-81655103D01*
X160233745Y-81648448D01*
X160137626Y-81494624D01*
X160063686Y-81420166D01*
X160014778Y-81370915D01*
X160014774Y-81370912D01*
X160009815Y-81365918D01*
X159998133Y-81358504D01*
X159933985Y-81317795D01*
X159887186Y-81264406D01*
X159876681Y-81194191D01*
X159907862Y-81127102D01*
X159989040Y-81036944D01*
X160069220Y-80898069D01*
X160081223Y-80877279D01*
X160081224Y-80877278D01*
X160084527Y-80871556D01*
X160143542Y-80689928D01*
X160163504Y-80500000D01*
X160155710Y-80425844D01*
X160144232Y-80316635D01*
X160144232Y-80316633D01*
X160143542Y-80310072D01*
X160120332Y-80238640D01*
X169686463Y-80238640D01*
X169704163Y-80419160D01*
X169761418Y-80591273D01*
X169765065Y-80597295D01*
X169765066Y-80597297D01*
X169795778Y-80648008D01*
X169855380Y-80746424D01*
X169981382Y-80876902D01*
X170133159Y-80976222D01*
X170139763Y-80978678D01*
X170139765Y-80978679D01*
X170296558Y-81036990D01*
X170296560Y-81036990D01*
X170303168Y-81039448D01*
X170386995Y-81050633D01*
X170475980Y-81062507D01*
X170475984Y-81062507D01*
X170482961Y-81063438D01*
X170489972Y-81062800D01*
X170489976Y-81062800D01*
X170632459Y-81049832D01*
X170663600Y-81046998D01*
X170670302Y-81044820D01*
X170670304Y-81044820D01*
X170829409Y-80993124D01*
X170829412Y-80993123D01*
X170836108Y-80990947D01*
X170991912Y-80898069D01*
X171123266Y-80772982D01*
X171223643Y-80621902D01*
X171272444Y-80493435D01*
X171285555Y-80458920D01*
X171285556Y-80458918D01*
X171288055Y-80452338D01*
X171289035Y-80445366D01*
X171312748Y-80276639D01*
X171312748Y-80276636D01*
X171313299Y-80272717D01*
X171313616Y-80250000D01*
X171293397Y-80069745D01*
X171291080Y-80063091D01*
X171236064Y-79905106D01*
X171236062Y-79905103D01*
X171233745Y-79898448D01*
X171137626Y-79744624D01*
X171122804Y-79729698D01*
X171014778Y-79620915D01*
X171014774Y-79620912D01*
X171009815Y-79615918D01*
X170998697Y-79608862D01*
X170947573Y-79576418D01*
X174789122Y-79576418D01*
X174789171Y-79577110D01*
X174794617Y-79585274D01*
X174872268Y-79657812D01*
X174876507Y-79661433D01*
X175209802Y-79921363D01*
X175214359Y-79924602D01*
X175569448Y-80153880D01*
X175574250Y-80156686D01*
X175948316Y-80353491D01*
X175953374Y-80355871D01*
X176343435Y-80518638D01*
X176348690Y-80520561D01*
X176751676Y-80648008D01*
X176757075Y-80649455D01*
X177169796Y-80740575D01*
X177175307Y-80741537D01*
X177594501Y-80795610D01*
X177600064Y-80796077D01*
X178022405Y-80812670D01*
X178027997Y-80812641D01*
X178450125Y-80791626D01*
X178455708Y-80791098D01*
X178874305Y-80732640D01*
X178879792Y-80731623D01*
X179291543Y-80636185D01*
X179296929Y-80634681D01*
X179698567Y-80503018D01*
X179703784Y-80501046D01*
X180092126Y-80334202D01*
X180097169Y-80331764D01*
X180469131Y-80131063D01*
X180473935Y-80128188D01*
X180826563Y-79895231D01*
X180831126Y-79891916D01*
X181161658Y-79628529D01*
X181165873Y-79624852D01*
X181203823Y-79588649D01*
X181211763Y-79574890D01*
X181211713Y-79573843D01*
X181206822Y-79566032D01*
X180806507Y-79165717D01*
X179921210Y-78280419D01*
X179395122Y-77754332D01*
X178012812Y-76372022D01*
X177998868Y-76364408D01*
X177997035Y-76364539D01*
X177990420Y-76368790D01*
X176604879Y-77754331D01*
X175719581Y-78639628D01*
X175193494Y-79165716D01*
X174796736Y-79562474D01*
X174789122Y-79576418D01*
X170947573Y-79576418D01*
X170876361Y-79531226D01*
X170856666Y-79518727D01*
X170827463Y-79508328D01*
X170692425Y-79460243D01*
X170692420Y-79460242D01*
X170685790Y-79457881D01*
X170678802Y-79457048D01*
X170678799Y-79457047D01*
X170555698Y-79442368D01*
X170505680Y-79436404D01*
X170498677Y-79437140D01*
X170498676Y-79437140D01*
X170332288Y-79454628D01*
X170332286Y-79454629D01*
X170325288Y-79455364D01*
X170153579Y-79513818D01*
X170108011Y-79541852D01*
X170005095Y-79605166D01*
X170005092Y-79605168D01*
X169999088Y-79608862D01*
X169994053Y-79613793D01*
X169994050Y-79613795D01*
X169874525Y-79730843D01*
X169869493Y-79735771D01*
X169771235Y-79888238D01*
X169768826Y-79894858D01*
X169768824Y-79894861D01*
X169744003Y-79963056D01*
X169709197Y-80058685D01*
X169686463Y-80238640D01*
X160120332Y-80238640D01*
X160084527Y-80128444D01*
X159989040Y-79963056D01*
X159954416Y-79924602D01*
X159873117Y-79834310D01*
X159842399Y-79770303D01*
X159851164Y-79699849D01*
X159873117Y-79665690D01*
X159984621Y-79541852D01*
X159984622Y-79541851D01*
X159989040Y-79536944D01*
X160084527Y-79371556D01*
X160143542Y-79189928D01*
X160163504Y-79000000D01*
X160143542Y-78810072D01*
X160084527Y-78628444D01*
X159989040Y-78463056D01*
X159892520Y-78355859D01*
X159865675Y-78326045D01*
X159865674Y-78326044D01*
X159861253Y-78321134D01*
X159706752Y-78208882D01*
X159700724Y-78206198D01*
X159700722Y-78206197D01*
X159538319Y-78133891D01*
X159538318Y-78133891D01*
X159532288Y-78131206D01*
X159438888Y-78111353D01*
X159351944Y-78092872D01*
X159351939Y-78092872D01*
X159345487Y-78091500D01*
X159154513Y-78091500D01*
X159148061Y-78092872D01*
X159148056Y-78092872D01*
X159061112Y-78111353D01*
X158967712Y-78131206D01*
X158961682Y-78133891D01*
X158961681Y-78133891D01*
X158799278Y-78206197D01*
X158799276Y-78206198D01*
X158793248Y-78208882D01*
X158638747Y-78321134D01*
X158634326Y-78326044D01*
X158634325Y-78326045D01*
X158593636Y-78371235D01*
X158533190Y-78408475D01*
X158462207Y-78407123D01*
X158406364Y-78371235D01*
X158365675Y-78326045D01*
X158365674Y-78326044D01*
X158361253Y-78321134D01*
X158206752Y-78208882D01*
X158200724Y-78206198D01*
X158200722Y-78206197D01*
X158038319Y-78133891D01*
X158038318Y-78133891D01*
X158032288Y-78131206D01*
X157938888Y-78111353D01*
X157851944Y-78092872D01*
X157851939Y-78092872D01*
X157845487Y-78091500D01*
X157654513Y-78091500D01*
X157648061Y-78092872D01*
X157648056Y-78092872D01*
X157561112Y-78111353D01*
X157467712Y-78131206D01*
X157461682Y-78133891D01*
X157461681Y-78133891D01*
X157299278Y-78206197D01*
X157299276Y-78206198D01*
X157293248Y-78208882D01*
X157138747Y-78321134D01*
X157134326Y-78326044D01*
X157134325Y-78326045D01*
X157093636Y-78371235D01*
X157033190Y-78408475D01*
X156962207Y-78407123D01*
X156906364Y-78371235D01*
X156865675Y-78326045D01*
X156865674Y-78326044D01*
X156861253Y-78321134D01*
X156706752Y-78208882D01*
X156700724Y-78206198D01*
X156700722Y-78206197D01*
X156538319Y-78133891D01*
X156538318Y-78133891D01*
X156532288Y-78131206D01*
X156438888Y-78111353D01*
X156351944Y-78092872D01*
X156351939Y-78092872D01*
X156345487Y-78091500D01*
X156154513Y-78091500D01*
X156148061Y-78092872D01*
X156148056Y-78092872D01*
X156061112Y-78111353D01*
X155967712Y-78131206D01*
X155961682Y-78133891D01*
X155961681Y-78133891D01*
X155799278Y-78206197D01*
X155799276Y-78206198D01*
X155793248Y-78208882D01*
X155787907Y-78212762D01*
X155787906Y-78212763D01*
X155743974Y-78244682D01*
X155638747Y-78321134D01*
X155634994Y-78325302D01*
X155571317Y-78355859D01*
X155500863Y-78347093D01*
X155447804Y-78303776D01*
X155440934Y-78293964D01*
X155389301Y-78220224D01*
X155239776Y-78070699D01*
X155066558Y-77949411D01*
X155061580Y-77947090D01*
X155061577Y-77947088D01*
X154879892Y-77862367D01*
X154879891Y-77862366D01*
X154874910Y-77860044D01*
X154869603Y-77858622D01*
X154869592Y-77858618D01*
X154842829Y-77851447D01*
X154782207Y-77814496D01*
X154751185Y-77750635D01*
X154759614Y-77680140D01*
X154804818Y-77625394D01*
X154842830Y-77608034D01*
X154869426Y-77600908D01*
X154879723Y-77597159D01*
X155061323Y-77512479D01*
X155070811Y-77507001D01*
X155101248Y-77485689D01*
X155109623Y-77475212D01*
X155102554Y-77461764D01*
X154472812Y-76832022D01*
X154458868Y-76824408D01*
X154457035Y-76824539D01*
X154450420Y-76828790D01*
X153816724Y-77462486D01*
X153810294Y-77474261D01*
X153819590Y-77486276D01*
X153849189Y-77507001D01*
X153858677Y-77512479D01*
X154040277Y-77597159D01*
X154050574Y-77600908D01*
X154077170Y-77608034D01*
X154137793Y-77644986D01*
X154168814Y-77708846D01*
X154160386Y-77779341D01*
X154115183Y-77834088D01*
X154077171Y-77851447D01*
X154050408Y-77858618D01*
X154050397Y-77858622D01*
X154045090Y-77860044D01*
X154040109Y-77862366D01*
X154040108Y-77862367D01*
X153858423Y-77947088D01*
X153858420Y-77947090D01*
X153853442Y-77949411D01*
X153680224Y-78070699D01*
X153530699Y-78220224D01*
X153409411Y-78393442D01*
X153407090Y-78398420D01*
X153407088Y-78398423D01*
X153322367Y-78580108D01*
X153320044Y-78585090D01*
X153318622Y-78590398D01*
X153318621Y-78590400D01*
X153266738Y-78784030D01*
X153265314Y-78789345D01*
X153246884Y-79000000D01*
X153265314Y-79210655D01*
X153320044Y-79414910D01*
X153322366Y-79419891D01*
X153322367Y-79419892D01*
X153394156Y-79573843D01*
X153409411Y-79606558D01*
X153530699Y-79779776D01*
X153680224Y-79929301D01*
X153853442Y-80050589D01*
X153858420Y-80052910D01*
X153858423Y-80052912D01*
X153907887Y-80075977D01*
X153961172Y-80122894D01*
X153980633Y-80191171D01*
X153960091Y-80259131D01*
X153928699Y-80292107D01*
X153888747Y-80321134D01*
X153884326Y-80326044D01*
X153884325Y-80326045D01*
X153770611Y-80452338D01*
X153760960Y-80463056D01*
X153702686Y-80563990D01*
X153673054Y-80615314D01*
X153665473Y-80628444D01*
X153606458Y-80810072D01*
X153605768Y-80816633D01*
X153605768Y-80816635D01*
X153599434Y-80876902D01*
X153586496Y-81000000D01*
X153587186Y-81006565D01*
X153601610Y-81143798D01*
X153606458Y-81189928D01*
X153665473Y-81371556D01*
X153668776Y-81377278D01*
X153668777Y-81377279D01*
X153686803Y-81408500D01*
X153760960Y-81536944D01*
X153765378Y-81541851D01*
X153765379Y-81541852D01*
X153833173Y-81617145D01*
X153863891Y-81681152D01*
X153855126Y-81751606D01*
X153809663Y-81806137D01*
X153780143Y-81820732D01*
X153653579Y-81863818D01*
X153647575Y-81867512D01*
X153505095Y-81955166D01*
X153505092Y-81955168D01*
X153499088Y-81958862D01*
X153494053Y-81963793D01*
X153494050Y-81963795D01*
X153374525Y-82080843D01*
X153369493Y-82085771D01*
X153271235Y-82238238D01*
X153268826Y-82244858D01*
X153268824Y-82244861D01*
X153224983Y-82365314D01*
X153209197Y-82408685D01*
X153186463Y-82588640D01*
X113508000Y-82588640D01*
X113508000Y-79576418D01*
X114789122Y-79576418D01*
X114789171Y-79577110D01*
X114794617Y-79585274D01*
X114872268Y-79657812D01*
X114876507Y-79661433D01*
X115209802Y-79921363D01*
X115214359Y-79924602D01*
X115569448Y-80153880D01*
X115574250Y-80156686D01*
X115948316Y-80353491D01*
X115953374Y-80355871D01*
X116343435Y-80518638D01*
X116348690Y-80520561D01*
X116751676Y-80648008D01*
X116757075Y-80649455D01*
X117169796Y-80740575D01*
X117175307Y-80741537D01*
X117594501Y-80795610D01*
X117600064Y-80796077D01*
X118022405Y-80812670D01*
X118027997Y-80812641D01*
X118450125Y-80791626D01*
X118455708Y-80791098D01*
X118874305Y-80732640D01*
X118879792Y-80731623D01*
X119291543Y-80636185D01*
X119296929Y-80634681D01*
X119698567Y-80503018D01*
X119703784Y-80501046D01*
X120092126Y-80334202D01*
X120097169Y-80331764D01*
X120469131Y-80131063D01*
X120473935Y-80128188D01*
X120826563Y-79895231D01*
X120831126Y-79891916D01*
X121161658Y-79628529D01*
X121165873Y-79624852D01*
X121203823Y-79588649D01*
X121211763Y-79574890D01*
X121211713Y-79573843D01*
X121206822Y-79566032D01*
X120806507Y-79165717D01*
X119921210Y-78280419D01*
X119395122Y-77754332D01*
X118012812Y-76372022D01*
X117998868Y-76364408D01*
X117997035Y-76364539D01*
X117990420Y-76368790D01*
X116604879Y-77754331D01*
X115719581Y-78639628D01*
X115193494Y-79165716D01*
X114796736Y-79562474D01*
X114789122Y-79576418D01*
X113508000Y-79576418D01*
X113508000Y-78301001D01*
X113528002Y-78232880D01*
X113581658Y-78186387D01*
X113651932Y-78176283D01*
X113716512Y-78205777D01*
X113746713Y-78244682D01*
X113793416Y-78338150D01*
X113796140Y-78343043D01*
X114017917Y-78702833D01*
X114021068Y-78707469D01*
X114273955Y-79046127D01*
X114277488Y-79050444D01*
X114413222Y-79201988D01*
X114426717Y-79210351D01*
X114436128Y-79204662D01*
X114834283Y-78806507D01*
X115719581Y-77921210D01*
X115780746Y-77860045D01*
X116245668Y-77395122D01*
X117639658Y-76001132D01*
X118364408Y-76001132D01*
X118364539Y-76002965D01*
X118368790Y-76009580D01*
X119754331Y-77395121D01*
X120219253Y-77860044D01*
X120280418Y-77921209D01*
X121165716Y-78806506D01*
X121562142Y-79202932D01*
X121575903Y-79210446D01*
X121585263Y-79203989D01*
X121754244Y-79011303D01*
X121757744Y-79006935D01*
X122007073Y-78665645D01*
X122010168Y-78660987D01*
X122228160Y-78298903D01*
X122230841Y-78293964D01*
X122415779Y-77913946D01*
X122418014Y-77908780D01*
X122568442Y-77513815D01*
X122570201Y-77508496D01*
X122684920Y-77101730D01*
X122686204Y-77096259D01*
X122764315Y-76680883D01*
X122765102Y-76675346D01*
X122785496Y-76465475D01*
X153247865Y-76465475D01*
X153265329Y-76665091D01*
X153267231Y-76675878D01*
X153319093Y-76869429D01*
X153322841Y-76879723D01*
X153407521Y-77061323D01*
X153412999Y-77070811D01*
X153434311Y-77101248D01*
X153444788Y-77109623D01*
X153458236Y-77102554D01*
X154087978Y-76472812D01*
X154094356Y-76461132D01*
X154824408Y-76461132D01*
X154824539Y-76462965D01*
X154828790Y-76469580D01*
X155462486Y-77103276D01*
X155474261Y-77109706D01*
X155486276Y-77100410D01*
X155507001Y-77070811D01*
X155512479Y-77061323D01*
X155597159Y-76879723D01*
X155600907Y-76869429D01*
X155652769Y-76675878D01*
X155654671Y-76665091D01*
X155672135Y-76465475D01*
X155672135Y-76454525D01*
X155654671Y-76254909D01*
X155652769Y-76244122D01*
X155600907Y-76050571D01*
X155597159Y-76040277D01*
X155520941Y-75876825D01*
X173188855Y-75876825D01*
X173196600Y-76299410D01*
X173196950Y-76304976D01*
X173242231Y-76725208D01*
X173243078Y-76730746D01*
X173325535Y-77145286D01*
X173326864Y-77150698D01*
X173445852Y-77556289D01*
X173447658Y-77561564D01*
X173602219Y-77954948D01*
X173604501Y-77960072D01*
X173793416Y-78338150D01*
X173796140Y-78343043D01*
X174017917Y-78702833D01*
X174021068Y-78707469D01*
X174273955Y-79046127D01*
X174277488Y-79050444D01*
X174413222Y-79201988D01*
X174426717Y-79210351D01*
X174436128Y-79204662D01*
X174834283Y-78806507D01*
X175719581Y-77921210D01*
X175780746Y-77860045D01*
X176245668Y-77395122D01*
X177627978Y-76012812D01*
X177635592Y-75998868D01*
X177635461Y-75997035D01*
X177631210Y-75990420D01*
X176245669Y-74604879D01*
X175360372Y-73719581D01*
X174834284Y-73193494D01*
X174435561Y-72794771D01*
X174422253Y-72787504D01*
X174412214Y-72794626D01*
X174168223Y-73087994D01*
X174164828Y-73092467D01*
X173924528Y-73440152D01*
X173921549Y-73444902D01*
X173713106Y-73812575D01*
X173710562Y-73817568D01*
X173535629Y-74202312D01*
X173533538Y-74207511D01*
X173393498Y-74606290D01*
X173391877Y-74611659D01*
X173287840Y-75021303D01*
X173286706Y-75026776D01*
X173219496Y-75444054D01*
X173218851Y-75449632D01*
X173189002Y-75871204D01*
X173188855Y-75876825D01*
X155520941Y-75876825D01*
X155512479Y-75858677D01*
X155507001Y-75849189D01*
X155485689Y-75818752D01*
X155475212Y-75810377D01*
X155461764Y-75817446D01*
X154832022Y-76447188D01*
X154824408Y-76461132D01*
X154094356Y-76461132D01*
X154095592Y-76458868D01*
X154095461Y-76457035D01*
X154091210Y-76450420D01*
X153457514Y-75816724D01*
X153445739Y-75810294D01*
X153433724Y-75819590D01*
X153412999Y-75849189D01*
X153407521Y-75858677D01*
X153322841Y-76040277D01*
X153319093Y-76050571D01*
X153267231Y-76244122D01*
X153265329Y-76254909D01*
X153247865Y-76454525D01*
X153247865Y-76465475D01*
X122785496Y-76465475D01*
X122806035Y-76254102D01*
X122806308Y-76249665D01*
X122812788Y-76002233D01*
X122812746Y-75997762D01*
X122793917Y-75574973D01*
X122793419Y-75569386D01*
X122776683Y-75444788D01*
X153810377Y-75444788D01*
X153817446Y-75458236D01*
X154447188Y-76087978D01*
X154461132Y-76095592D01*
X154462965Y-76095461D01*
X154469580Y-76091210D01*
X155103276Y-75457514D01*
X155109706Y-75445739D01*
X155100410Y-75433724D01*
X155070811Y-75412999D01*
X155061323Y-75407521D01*
X154879723Y-75322841D01*
X154869429Y-75319093D01*
X154675878Y-75267231D01*
X154665091Y-75265329D01*
X154465475Y-75247865D01*
X154454525Y-75247865D01*
X154254909Y-75265329D01*
X154244122Y-75267231D01*
X154050571Y-75319093D01*
X154040277Y-75322841D01*
X153858677Y-75407521D01*
X153849189Y-75412999D01*
X153818752Y-75434311D01*
X153810377Y-75444788D01*
X122776683Y-75444788D01*
X122737155Y-75150499D01*
X122736162Y-75144976D01*
X122642883Y-74732748D01*
X122641410Y-74727361D01*
X122511847Y-74325025D01*
X122509910Y-74319815D01*
X122475537Y-74238640D01*
X144186463Y-74238640D01*
X144204163Y-74419160D01*
X144261418Y-74591273D01*
X144265065Y-74597295D01*
X144265066Y-74597297D01*
X144347098Y-74732748D01*
X144355380Y-74746424D01*
X144481382Y-74876902D01*
X144633159Y-74976222D01*
X144639763Y-74978678D01*
X144639765Y-74978679D01*
X144796558Y-75036990D01*
X144796560Y-75036990D01*
X144803168Y-75039448D01*
X144886995Y-75050633D01*
X144975980Y-75062507D01*
X144975984Y-75062507D01*
X144982961Y-75063438D01*
X144989972Y-75062800D01*
X144989976Y-75062800D01*
X145132459Y-75049832D01*
X145163600Y-75046998D01*
X145170302Y-75044820D01*
X145170304Y-75044820D01*
X145329409Y-74993124D01*
X145329412Y-74993123D01*
X145336108Y-74990947D01*
X145491912Y-74898069D01*
X145623266Y-74772982D01*
X145723643Y-74621902D01*
X145765423Y-74511917D01*
X145785555Y-74458920D01*
X145785556Y-74458918D01*
X145788055Y-74452338D01*
X145789035Y-74445366D01*
X145812748Y-74276639D01*
X145812748Y-74276636D01*
X145813299Y-74272717D01*
X145813616Y-74250000D01*
X145793397Y-74069745D01*
X145791080Y-74063091D01*
X145736064Y-73905106D01*
X145736062Y-73905103D01*
X145733745Y-73898448D01*
X145637626Y-73744624D01*
X145612757Y-73719581D01*
X145514778Y-73620915D01*
X145514774Y-73620912D01*
X145509815Y-73615918D01*
X145498697Y-73608862D01*
X145409939Y-73552535D01*
X145356666Y-73518727D01*
X145327463Y-73508328D01*
X145192425Y-73460243D01*
X145192420Y-73460242D01*
X145185790Y-73457881D01*
X145178802Y-73457048D01*
X145178799Y-73457047D01*
X145037111Y-73440152D01*
X145005680Y-73436404D01*
X144998677Y-73437140D01*
X144998676Y-73437140D01*
X144832288Y-73454628D01*
X144832286Y-73454629D01*
X144825288Y-73455364D01*
X144653579Y-73513818D01*
X144647575Y-73517512D01*
X144505095Y-73605166D01*
X144505092Y-73605168D01*
X144499088Y-73608862D01*
X144494053Y-73613793D01*
X144494050Y-73613795D01*
X144374525Y-73730843D01*
X144369493Y-73735771D01*
X144271235Y-73888238D01*
X144268826Y-73894858D01*
X144268824Y-73894861D01*
X144211606Y-74052066D01*
X144209197Y-74058685D01*
X144186463Y-74238640D01*
X122475537Y-74238640D01*
X122345098Y-73930599D01*
X122342683Y-73925536D01*
X122143936Y-73552535D01*
X122141085Y-73547713D01*
X121909974Y-73193865D01*
X121906692Y-73189297D01*
X121645030Y-72857380D01*
X121641382Y-72853155D01*
X121588103Y-72796715D01*
X121574389Y-72788705D01*
X121573517Y-72788742D01*
X121565438Y-72793772D01*
X121165717Y-73193493D01*
X120280419Y-74078790D01*
X119754332Y-74604878D01*
X118372022Y-75987188D01*
X118364408Y-76001132D01*
X117639658Y-76001132D01*
X119395121Y-74245669D01*
X120280419Y-73360372D01*
X120806506Y-72834284D01*
X121202754Y-72438036D01*
X121210316Y-72424187D01*
X121203987Y-72414962D01*
X121030928Y-72261582D01*
X121026561Y-72258046D01*
X120686600Y-72006948D01*
X120681947Y-72003821D01*
X120320995Y-71783926D01*
X120316094Y-71781232D01*
X120246690Y-71747006D01*
X120194441Y-71698938D01*
X120176474Y-71630252D01*
X120198493Y-71562756D01*
X120253508Y-71517880D01*
X120302418Y-71508000D01*
X175694917Y-71508000D01*
X175763038Y-71528002D01*
G37*
%TD.AperFunction*%
%TA.AperFunction,Conductor*%
G36*
X179798365Y-123455257D02*
G01*
X179843428Y-123484217D01*
X180280419Y-123921209D01*
X181076622Y-124717411D01*
X181110647Y-124779723D01*
X181105582Y-124850539D01*
X181076622Y-124895601D01*
X180986112Y-124986112D01*
X180986111Y-124986113D01*
X180895601Y-125076622D01*
X180833289Y-125110647D01*
X180762473Y-125105581D01*
X180717410Y-125076621D01*
X179921209Y-124280419D01*
X179484216Y-123843427D01*
X179450191Y-123781115D01*
X179455256Y-123710299D01*
X179484216Y-123665237D01*
X179574726Y-123574726D01*
X179574727Y-123574725D01*
X179665237Y-123484216D01*
X179727549Y-123450191D01*
X179798365Y-123455257D01*
G37*
%TD.AperFunction*%
%TA.AperFunction,Conductor*%
G36*
X116289701Y-123455256D02*
G01*
X116334763Y-123484216D01*
X116425274Y-123574726D01*
X116425275Y-123574727D01*
X116515784Y-123665237D01*
X116549809Y-123727549D01*
X116544743Y-123798365D01*
X116515783Y-123843428D01*
X115719581Y-124639629D01*
X115282589Y-125076622D01*
X115220277Y-125110647D01*
X115149461Y-125105582D01*
X115104399Y-125076622D01*
X115013888Y-124986112D01*
X115013887Y-124986111D01*
X114923378Y-124895601D01*
X114889353Y-124833289D01*
X114894419Y-124762473D01*
X114923379Y-124717410D01*
X115719581Y-123921209D01*
X116156573Y-123484216D01*
X116218885Y-123450191D01*
X116289701Y-123455256D01*
G37*
%TD.AperFunction*%
%TA.AperFunction,Conductor*%
G36*
X115237527Y-72894419D02*
G01*
X115282590Y-72923379D01*
X115719581Y-73360371D01*
X116515784Y-74156573D01*
X116549809Y-74218885D01*
X116544744Y-74289701D01*
X116515784Y-74334763D01*
X116425274Y-74425274D01*
X116425273Y-74425275D01*
X116334763Y-74515784D01*
X116272451Y-74549809D01*
X116201635Y-74544743D01*
X116156572Y-74515783D01*
X115360371Y-73719581D01*
X114923378Y-73282589D01*
X114889353Y-73220277D01*
X114894418Y-73149461D01*
X114923378Y-73104399D01*
X115013888Y-73013888D01*
X115013889Y-73013887D01*
X115104399Y-72923378D01*
X115166711Y-72889353D01*
X115237527Y-72894419D01*
G37*
%TD.AperFunction*%
%TA.AperFunction,Conductor*%
G36*
X180850539Y-72894418D02*
G01*
X180895601Y-72923378D01*
X180986112Y-73013888D01*
X180986113Y-73013889D01*
X181076622Y-73104399D01*
X181110647Y-73166711D01*
X181105581Y-73237527D01*
X181076621Y-73282590D01*
X180280419Y-74078791D01*
X179843427Y-74515784D01*
X179781115Y-74549809D01*
X179710299Y-74544744D01*
X179665237Y-74515784D01*
X179574726Y-74425274D01*
X179574725Y-74425273D01*
X179484216Y-74334763D01*
X179450191Y-74272451D01*
X179455257Y-74201635D01*
X179484217Y-74156572D01*
X180280419Y-73360371D01*
X180717411Y-72923378D01*
X180779723Y-72889353D01*
X180850539Y-72894418D01*
G37*
%TD.AperFunction*%
%TD*%
M02*
